<?xml version="1.0" encoding="UTF-8" standalone="no"?>
<!-- Created with Inkscape (http://www.inkscape.org/) -->

<svg
   xmlns:dc="http://purl.org/dc/elements/1.1/"
   xmlns:cc="http://creativecommons.org/ns#"
   xmlns:rdf="http://www.w3.org/1999/02/22-rdf-syntax-ns#"
   xmlns:svg="http://www.w3.org/2000/svg"
   xmlns="http://www.w3.org/2000/svg"
   xmlns:sodipodi="http://sodipodi.sourceforge.net/DTD/sodipodi-0.dtd"
   xmlns:inkscape="http://www.inkscape.org/namespaces/inkscape"
   width="48px"
   height="48px"
   id="svg2987"
   version="1.1"
   inkscape:version="0.48.4 r9939"
   sodipodi:docname="2ser.svg">
  <defs
     id="defs2989" />
  <sodipodi:namedview
     id="base"
     pagecolor="#ffffff"
     bordercolor="#666666"
     borderopacity="1.0"
     inkscape:pageopacity="0.0"
     inkscape:pageshadow="2"
     inkscape:zoom="3.5"
     inkscape:cx="71.195141"
     inkscape:cy="-31.697198"
     inkscape:current-layer="layer1"
     showgrid="true"
     inkscape:grid-bbox="true"
     inkscape:document-units="px"
     inkscape:window-width="1871"
     inkscape:window-height="1056"
     inkscape:window-x="49"
     inkscape:window-y="24"
     inkscape:window-maximized="1" />
  <metadata
     id="metadata2992">
    <rdf:RDF>
      <cc:Work
         rdf:about="">
        <dc:format>image/svg+xml</dc:format>
        <dc:type
           rdf:resource="http://purl.org/dc/dcmitype/StillImage" />
        <dc:title></dc:title>
      </cc:Work>
    </rdf:RDF>
  </metadata>
  <g
     id="layer1"
     inkscape:label="Layer 1"
     inkscape:groupmode="layer">
    <g
       id="g3017"
       transform="matrix(0.09101353,0,0,0.09101353,-13.504094,-6.847122)"
       style="fill:#ffffff">
      <g
         id="imagenes"
         style="fill:#ffffff" />
      <g
         id="g3909"
         transform="matrix(1.94206,0,0,1.94206,-1321.9399,-608.3509)"
         style="fill:#ffffff">
        <g
           transform="matrix(10.987377,0,0,10.987377,408.43523,1045.0167)"
           id="g3872"
           style="fill:#ffffff;fill-opacity:1">
          <path
             sodipodi:nodetypes="sccssssccsccs"
             style="fill:#ffffff;fill-opacity:1"
             inkscape:connector-curvature="0"
             d="m 49.796699,-56.78846 c 0,-2.14 -1.465,-4.013 -3.637,-4.674 -0.338,-0.103 -1.047,3.849 -1.047,3.849 l 0,-4.346 c 0,-0.339 -0.266,-0.612 -0.571,-0.612 l -0.857,0 c -0.306,0 -0.572,0.273 -0.572,0.612 l 0,4.346 c 0,0 -0.713,-3.95 -1.053,-3.846 -2.168,0.662 -3.63,2.533 -3.63,4.671 0,0.547 -1.317,-0.228 -1.317,2.159 l 14,0 c 0,-2.409 -1.316,-1.612 -1.316,-2.159 z"
             id="path3874" />
        </g>
        <polygon
           style="fill:#ffffff"
           transform="matrix(10.987377,0,0,10.987377,783.43127,361.39206)"
           id="polygon3885"
           points="9.453,15.81 7.943,14.176 6.924,15.199 1.953,16.301 0,23.303 8.557,23.303 " />
        <polygon
           style="fill:#ffffff"
           transform="matrix(10.987377,0,0,10.987377,783.43127,361.39206)"
           id="polygon3887"
           points="11.606,23.304 20.167,23.304 18.213,16.301 13.237,15.199 12.216,14.177 10.711,15.811 " />
        <path
           style="fill:#ffffff"
           sodipodi:nodetypes="ccccc"
           id="path3891"
           d="m 950.05484,453.04876 -55.48782,-0.25164 -56.17689,-0.85809 c 3.96644,35.22553 27.33659,62.41929 55.92575,62.41929 28.24854,-0.022 51.34401,-26.6334 55.73896,-61.30956 z"
           inkscape:connector-curvature="0" />
      </g>
    </g>
  </g>
</svg>
