<?xml version="1.0" encoding="UTF-8" standalone="no"?>
<!-- Created with Inkscape (http://www.inkscape.org/) -->

<svg
   xmlns:dc="http://purl.org/dc/elements/1.1/"
   xmlns:cc="http://creativecommons.org/ns#"
   xmlns:rdf="http://www.w3.org/1999/02/22-rdf-syntax-ns#"
   xmlns:svg="http://www.w3.org/2000/svg"
   xmlns="http://www.w3.org/2000/svg"
   xmlns:sodipodi="http://sodipodi.sourceforge.net/DTD/sodipodi-0.dtd"
   xmlns:inkscape="http://www.inkscape.org/namespaces/inkscape"
   width="48px"
   height="48px"
   id="svg2987"
   version="1.1"
   inkscape:version="0.48.4 r9939"
   sodipodi:docname="4ser.svg">
  <defs
     id="defs2989" />
  <sodipodi:namedview
     id="base"
     pagecolor="#ffffff"
     bordercolor="#666666"
     borderopacity="1.0"
     inkscape:pageopacity="0.0"
     inkscape:pageshadow="2"
     inkscape:zoom="7"
     inkscape:cx="42.59991"
     inkscape:cy="20.26044"
     inkscape:current-layer="layer1"
     showgrid="true"
     inkscape:grid-bbox="true"
     inkscape:document-units="px"
     inkscape:window-width="1871"
     inkscape:window-height="1056"
     inkscape:window-x="49"
     inkscape:window-y="24"
     inkscape:window-maximized="1" />
  <metadata
     id="metadata2992">
    <rdf:RDF>
      <cc:Work
         rdf:about="">
        <dc:format>image/svg+xml</dc:format>
        <dc:type
           rdf:resource="http://purl.org/dc/dcmitype/StillImage" />
        <dc:title />
      </cc:Work>
    </rdf:RDF>
  </metadata>
  <g
     id="layer1"
     inkscape:label="Layer 1"
     inkscape:groupmode="layer">
    <g
       id="imagenes"
       transform="matrix(0.09101353,0,0,0.09101353,-13.504094,-6.847122)" />
    <path
       style="fill:#b21e21;fill-opacity:1"
       inkscape:connector-curvature="0"
       d="m 28.131744,17.757731 -0.792733,2.591516 c 0.707694,0.22629 1.225133,0.921012 1.225133,1.744013 0,0.412221 -0.131162,0.791292 -0.350244,1.096855 l 2.06543,1.686359 c 0.569327,-0.76823 0.90804,-1.733923 0.90804,-2.784655 -0.0014,-2.055341 -1.2972,-3.779175 -3.055626,-4.334088 z"
       id="path3938" />
    <path
       style="fill:#b21e21;fill-opacity:1"
       inkscape:connector-curvature="0"
       d="m 26.415116,24.024646 c -0.939749,-0.0086 -1.699331,-0.824442 -1.699331,-1.818962 0,-0.993078 0.758141,-1.808873 1.699331,-1.816079 0.177284,-0.0014 0.347361,0.02594 0.508791,0.07783 l 0.788409,-2.587193 c -0.41078,-0.12972 -0.846063,-0.196021 -1.295758,-0.185932 -2.320547,0.04756 -4.172659,2.069754 -4.172659,4.509931 0,2.441618 1.850671,4.466691 4.172659,4.515696 1.388003,0.02883 2.634756,-0.651482 3.434696,-1.733923 l -2.056782,-1.684919 c -0.317093,0.443931 -0.815795,0.729315 -1.379356,0.723549 z"
       id="path3940" />
    <path
       style="fill:#b21e21;fill-opacity:1"
       inkscape:connector-curvature="0"
       d="m 44.480784,19.09817 c 2.724119,-1.056497 2.724119,-1.158832 2.724119,-1.432685 V 15.52943 c 0,-0.273854 0,-0.38916 -2.72556,-1.360619 l -0.09657,-0.03459 -0.383394,-0.912363 0.04036,-0.09225 c 1.160273,-2.62755 1.079559,-2.705382 0.88642,-2.895638 L 43.38393,8.7248966 C 43.320511,8.6629193 43.209528,8.618238 43.112959,8.618238 c -0.08792,0 -0.348803,0 -2.631874,1.0334357 l -0.0908,0.041799 -0.939749,-0.3790706 -0.03748,-0.093687 C 38.339264,6.5628971 38.22684,6.5628971 37.961635,6.5628971 h -2.182178 c -0.268088,0 -0.387719,0 -1.382239,2.6621421 l -0.03747,0.096569 -0.935425,0.3819532 -0.0908,-0.037475 C 31.789847,9.0146045 30.889014,8.6845393 30.654077,8.6845393 c -0.09513,0 -0.207552,0.04324 -0.270971,0.1052173 l -1.54655,1.5119584 c -0.196022,0.193139 -0.276736,0.273853 0.94119,2.846633 l 0.04468,0.09513 -0.383394,0.910922 -0.09369,0.03603 c -0.309886,0.119631 -0.579416,0.22629 -0.823001,0.322859 -0.0908,0.03603 -0.631304,0.387719 -0.970017,0.601036 l -7.107213,-0.38916 -2.444501,11.718037 -0.0014,0 -0.04756,0.0072 c -0.590947,-1.003168 -1.692125,-1.573936 -3.227145,-1.573936 h -0.671661 c -0.900833,0.879213 -2.47621,1.467277 -4.2807589,1.467277 -1.8045489,0 -3.3799259,-0.588064 -4.280759,-1.467277 H 4.8196239 c -2.3681101,0 -3.7244045,1.337557 -3.7244045,3.568741 0,2.231183 -0.072067,8.332346 -0.072067,9.548831 0,1.216485 -0.14557467,2.481975 0.9037158,2.481975 0.3877185,0 1.6214996,0 3.2213792,0 1.5263717,0 2.9922073,0 4.336971,0 0.185932,0 0.3920426,0 0.5722092,0 1.723834,0 3.156519,0 3.980962,0 0.147016,0 0.24935,0 0.356009,0 0.04612,0 0.115307,0 0.152781,0 1.34044,0 2.369552,0 2.712589,0 0.142692,0 0.276736,0 0.356009,0 1.050732,0 0.903716,-1.26549 0.903716,-2.481975 0,-0.187373 -0.0029,-0.503025 -0.0043,-0.890744 H 47.171753 V 35.16615 H 18.499315 c -0.0058,-0.546265 -0.01153,-1.130005 -0.0173,-1.725275 l 2.731326,1.044966 13.513939,-2.149027 1.353411,-5.613992 h 1.971744 c 0.273853,0 0.387718,0 1.382238,-2.663584 l 0.03748,-0.09657 0.936866,-0.379071 0.0908,0.03603 c 1.542227,0.652924 2.44306,0.982989 2.676556,0.982989 0.09369,0 0.208993,-0.0418 0.272412,-0.105217 l 1.54655,-1.514841 c 0.196021,-0.19458 0.275295,-0.273854 -0.944073,-2.84375 l -0.04468,-0.09657 0.381954,-0.908039 0.09224,-0.03603 z m -23.356801,-3.277591 14.133711,0.944073 -3.0931,13.059918 -13.242968,-3.747465 2.202357,-10.256526 z m -2.675114,12.624636 c 0,-0.400691 -0.05765,-0.761024 -0.144134,-1.101179 l 0.05045,-0.0086 11.209247,3.201201 -5.119615,0.72499 -5.994504,-1.951564 c 0,-0.3243 -0.0014,-0.621215 -0.0014,-0.8648 z m 0.0072,1.656091 1.546551,0.517439 -1.540785,0.230613 c -0.0029,-0.257998 -0.0043,-0.50879 -0.0058,-0.748052 z m 19.243237,-10.086448 0.815795,-3.382809 -0.820119,-0.570767 -3.658103,15.606753 -12.732736,1.862203 v -0.0058 l -2.829336,-1.034877 c -0.0029,-0.269529 -0.0058,-0.534734 -0.0072,-0.798498 l 2.881225,1.033435 11.903969,-1.598438 3.671075,-15.502978 -3.27615,-0.177284 c 0.03892,-0.145574 0.08071,-0.289708 0.0908,-0.311328 0.572209,-1.155949 1.780046,-1.955888 3.176698,-1.955888 1.950124,0 3.534149,1.553757 3.534149,3.464964 0,1.644561 -1.177569,3.021034 -2.750064,3.371278 z"
       id="path3942" />
    <path
       style="fill:#b21e21;fill-opacity:1"
       inkscape:connector-curvature="0"
       d="m 3.3480229,17.590536 c -0.012972,0.0836 -0.030268,0.167195 -0.040357,0.252233 -0.3934839,3.666751 2.1994741,6.965963 5.782628,7.353681 3.5845954,0.387719 6.8232704,-2.28163 7.2210784,-5.948381 0.0591,-0.566444 0.0418,-1.121357 -0.03315,-1.660416 0.420869,-0.0029 0.681751,-0.0086 0.739404,-0.0173 0.456903,-0.05765 0.82156,-0.0908 0.859035,-0.59527 0.0072,-0.673103 -0.01153,-0.565003 -0.0014,-0.664455 0.01153,-0.582298 -0.330065,-0.514556 -0.707694,-0.554913 -0.37763,-0.04036 -0.840297,0.0173 -0.840297,0.0173 0,0 -1.088207,-7.3162063 -7.8567066,-6.1213413 -2.0236316,0.3574503 -3.3568646,1.2121613 -4.233195,2.2326253 1.7281582,-0.859035 3.7662031,-1.271256 5.5390427,-1.027671 1.6906839,0.233496 3.0167099,1.017581 3.8714209,2.264334 -0.569327,-0.42231 -1.207838,-0.753817 -1.905443,-0.970017 -0.696164,-0.41078 -1.435567,-0.609684 -2.0510166,-0.694722 -2.0438102,-0.29115 -4.4522776,0.354568 -6.2352065,1.578259 -1.1429771,2.179296 -0.8114705,4.553171 -0.8114705,4.553171 0,0 0.2637639,0 0.7033705,0.0029 z m 1.1631557,0.381953 c 0.012972,-0.128279 0.036033,-0.253674 0.060536,-0.37907 2.7342087,0.0043 7.7269864,0.01297 10.4856974,0.0014 0.08504,0.491494 0.106659,1.001726 0.04901,1.522048 -0.325742,3.003738 -2.967705,5.191681 -5.8864045,4.876029 -2.9230233,-0.315652 -5.0331348,-3.01671 -4.7088349,-6.020448 z"
       id="path3944" />
    <g
       id="g3946"
       style="fill:#b21e21;fill-opacity:1"
       transform="matrix(1.441333,0,0,1.441333,1.0159461,6.5628971)" />
    <g
       id="g3948"
       style="fill:#b21e21;fill-opacity:1"
       transform="matrix(1.441333,0,0,1.441333,1.0159461,6.5628971)" />
    <g
       id="g3950"
       style="fill:#b21e21;fill-opacity:1"
       transform="matrix(1.441333,0,0,1.441333,1.0159461,6.5628971)" />
    <g
       id="g3952"
       style="fill:#b21e21;fill-opacity:1"
       transform="matrix(1.441333,0,0,1.441333,1.0159461,6.5628971)" />
    <g
       id="g3954"
       style="fill:#b21e21;fill-opacity:1"
       transform="matrix(1.441333,0,0,1.441333,1.0159461,6.5628971)" />
    <g
       id="g3956"
       style="fill:#b21e21;fill-opacity:1"
       transform="matrix(1.441333,0,0,1.441333,1.0159461,6.5628971)" />
    <g
       id="g3958"
       style="fill:#b21e21;fill-opacity:1"
       transform="matrix(1.441333,0,0,1.441333,1.0159461,6.5628971)" />
    <g
       id="g3960"
       style="fill:#b21e21;fill-opacity:1"
       transform="matrix(1.441333,0,0,1.441333,1.0159461,6.5628971)" />
    <g
       id="g3962"
       style="fill:#b21e21;fill-opacity:1"
       transform="matrix(1.441333,0,0,1.441333,1.0159461,6.5628971)" />
    <g
       id="g3964"
       style="fill:#b21e21;fill-opacity:1"
       transform="matrix(1.441333,0,0,1.441333,1.0159461,6.5628971)" />
    <g
       id="g3966"
       style="fill:#b21e21;fill-opacity:1"
       transform="matrix(1.441333,0,0,1.441333,1.0159461,6.5628971)" />
    <g
       id="g3968"
       style="fill:#b21e21;fill-opacity:1"
       transform="matrix(1.441333,0,0,1.441333,1.0159461,6.5628971)" />
    <g
       id="g3970"
       style="fill:#b21e21;fill-opacity:1"
       transform="matrix(1.441333,0,0,1.441333,1.0159461,6.5628971)" />
    <g
       id="g3972"
       style="fill:#b21e21;fill-opacity:1"
       transform="matrix(1.441333,0,0,1.441333,1.0159461,6.5628971)" />
    <g
       id="g3974"
       style="fill:#b21e21;fill-opacity:1"
       transform="matrix(1.441333,0,0,1.441333,1.0159461,6.5628971)" />
  </g>
</svg>
