<?xml version="1.0" encoding="utf-8"?>
<!-- Generator: Adobe Illustrator 16.0.0, SVG Export Plug-In . SVG Version: 6.00 Build 0)  -->
<!DOCTYPE svg PUBLIC "-//W3C//DTD SVG 1.1//EN" "http://www.w3.org/Graphics/SVG/1.1/DTD/svg11.dtd">
<svg version="1.1" xmlns="http://www.w3.org/2000/svg" xmlns:xlink="http://www.w3.org/1999/xlink" x="0px" y="0px"
	 width="122.418px" height="61.902px" viewBox="0 0 122.418 61.902" enable-background="new 0 0 122.418 61.902"
	 xml:space="preserve">
<g id="Footer">
	<g opacity="0.8">
		<path fill-rule="evenodd" clip-rule="evenodd" fill="#FFFFFF" d="M67.844,39.798c0,0.624,0,1.138,0,1.69
			c-5.424,0-10.811,0-16.256,0c0-0.528,0-1.06,0-1.667c1.692,0,3.384,0,5.152,0c-0.726-2.469-1.423-4.848-2.127-7.225
			c-0.276-0.933-0.596-1.854-0.836-2.795c-0.105-0.412-0.283-0.545-0.692-0.543c-3.275,0.012-6.549,0-9.824,0.023
			c-0.219,0.002-0.58,0.193-0.634,0.37c-1.023,3.353-2.011,6.718-3.025,10.149c1.731,0,3.396,0,5.113,0c0,0.585,0,1.116,0,1.688
			c-3.677,0-7.334,0-11.051,0c0-0.529,0-1.061,0-1.687c1.09,0,2.182-0.035,3.271,0.013c0.674,0.029,0.952-0.133,1.141-0.868
			c0.484-1.882,1.154-3.715,1.728-5.576c1.509-4.891,3-9.788,4.511-14.678c0.876-2.835,1.784-5.66,2.665-8.494
			c1.003-3.225,1.983-6.457,3.006-9.675c0.068-0.211,0.411-0.48,0.625-0.478c1.54,0.008,1.281-0.326,1.734,1.263
			c0.912,3.197,1.926,6.365,2.872,9.553c1.47,4.957,2.911,9.922,4.377,14.879c0.937,3.165,1.9,6.321,2.85,9.481
			c0.398,1.324,0.812,2.644,1.174,3.978c0.124,0.457,0.316,0.625,0.797,0.611C65.535,39.774,66.657,39.798,67.844,39.798z
			 M48.362,11.175c-1.715,5.633-3.362,11.04-5.018,16.475c3.303,0,6.51,0,9.786,0C51.549,22.187,49.985,16.781,48.362,11.175z"/>
		<path fill-rule="evenodd" clip-rule="evenodd" fill="#FFFFFF" d="M122.418,39.799c0,0.61,0,1.105,0,1.665
			c-5.463,0-10.921,0-16.434,0c0-0.51,0-1.042,0-1.649c1.748,0,3.492,0,5.294,0c-1.035-3.562-2.046-7.04-3.066-10.549
			c-3.535,0-7.043-0.011-10.552,0.028c-0.208,0.002-0.524,0.364-0.6,0.616c-0.983,3.254-1.931,6.519-2.912,9.862
			c1.71,0,3.393,0,5.126,0c0,0.612,0,1.144,0,1.716c-3.627,0-7.233,0-10.897,0c0-0.528,0-1.06,0-1.689
			c1.111,0,2.229-0.019,3.346,0.009c0.48,0.012,0.708-0.11,0.863-0.623c1.488-4.896,3.015-9.779,4.532-14.666
			c1.45-4.667,2.903-9.333,4.351-14.002c1.015-3.274,2.069-6.537,3.003-9.834c0.296-1.045,0.997-0.532,1.54-0.658
			c0.57-0.132,0.7,0.287,0.821,0.7c1.793,6.111,3.582,12.223,5.379,18.332c1.618,5.501,3.244,10.998,4.872,16.496
			c0.356,1.203,0.799,2.385,1.066,3.606c0.124,0.569,0.349,0.654,0.827,0.646C120.099,39.786,121.221,39.799,122.418,39.799z
			 M103.03,11.412c-0.047-0.001-0.094-0.003-0.14-0.004c-1.669,5.399-3.337,10.8-5.023,16.255c3.313,0,6.525,0,9.804,0
			C106.116,22.218,104.573,16.815,103.03,11.412z"/>
		<path fill-rule="evenodd" clip-rule="evenodd" fill="#FFFFFF" d="M74.59,2.04c-1.736,0-3.403,0-5.104,0c0-0.573,0-1.085,0-1.652
			c5.688,0,11.354,0,17.063,0c0,0.528,0,1.042,0,1.645c-1.676,0-3.363,0-5.097,0c0,12.618,0,25.147,0,37.739
			c1.685,0,3.351,0,5.078,0c0,0.593,0,1.124,0,1.706c-5.659,0-11.326,0-17.035,0c0-0.533,0-1.047,0-1.648c1.672,0,3.359,0,5.096,0
			C74.59,27.215,74.59,14.686,74.59,2.04z"/>
		<path fill-rule="evenodd" clip-rule="evenodd" fill="#FFFFFF" d="M12.694,15.202c-2.505-2.871-1.937-6.181-1.648-9.483
			c3.706,0,7.415,0,11.18,0c0.019,0.195,0.049,0.394,0.057,0.593c0.055,1.535,0.117,3.069,0.15,4.604
			c0.007,0.326-0.034,0.683-0.162,0.978c-0.483,1.114-1.01,2.209-1.521,3.312c-0.086-0.016-0.172-0.032-0.259-0.047
			c0-2.614,0-5.229,0-7.844c-0.116-0.035-0.232-0.069-0.348-0.104c-0.125,0.258-0.355,0.517-0.354,0.774
			c0.003,0.96,0.117,1.92,0.128,2.88c0.023,1.99,0.032,3.981-0.002,5.971c-0.018,1.037-0.142,2.071-0.353,3.181
			c-0.348-0.994-0.695-1.988-1.042-2.981c-0.132,1.317,0.417,2.464,0.988,3.76c-0.302-0.073-0.502-0.168-0.699-0.159
			c-0.291,0.014-0.579,0.093-0.866,0.158C17.74,20.84,17.517,21,17.347,20.953c-0.869-0.243-0.864-0.26-1.703,0.119
			c-0.493-0.42-0.493-0.42-1.816-0.368c0.395-0.941,0.866-1.851,1.157-2.815c0.297-0.986-0.079-2.432-1.195-2.799
			c-0.136-0.044-0.32-0.372-0.274-0.458c0.149-0.283,0.384-0.524,0.611-0.759c0.052-0.054,0.202-0.012,0.306-0.016
			c0.657-0.021,3.054,1.22,3.462,1.754c0.382,0.5,0.807,0.965,1.212,1.446c0.068-0.052,0.136-0.104,0.205-0.157
			c-0.237-0.33-0.506-0.642-0.703-0.994c-0.177-0.317-0.382-0.675-0.395-1.021c-0.085-2.32-0.117-4.642-0.182-6.962
			c-0.006-0.225-0.115-0.447-0.361-0.674c-0.085,0.196-0.248,0.394-0.245,0.588c0.023,1.222,0.097,2.441,0.125,3.663
			c0.023,0.966,0.005,1.934,0.005,2.9c-0.526-0.083-1.04-0.099-1.498-0.268c-0.188-0.069-0.362-0.469-0.36-0.716
			c0.02-1.771,0.104-3.542,0.124-5.312c0.003-0.299-0.205-0.601-0.315-0.901c-0.116,0.029-0.231,0.058-0.347,0.086
			c0,2.049,0,4.098,0,5.911c-0.721,0.298-1.236,0.512-1.837,0.761c0-0.729-0.014-1.472,0.003-2.213
			c0.031-1.326,0.091-2.651,0.109-3.976c0.002-0.167-0.179-0.335-0.275-0.502c-0.143,0.119-0.354,0.211-0.412,0.362
			c-0.079,0.209-0.052,0.462-0.052,0.697C12.693,10.601,12.694,12.873,12.694,15.202z"/>
		<path fill-rule="evenodd" clip-rule="evenodd" fill="#FFFFFF" d="M7.069,41.472c0-1.244,0-2.438,0-3.676
			c6.381,0,12.726,0,19.109,0c0,1.23,0,2.424,0,3.676C19.83,41.472,13.484,41.472,7.069,41.472z"/>
		<path fill-rule="evenodd" clip-rule="evenodd" fill="#FFFFFF" d="M14.808,20.784c0.295,0.282,0.521,0.498,0.793,0.757
			c0.633-0.53,1.297-0.84,1.96,0.149c0.316-0.297,0.571-0.536,0.826-0.774c-0.035-0.035-0.069-0.07-0.104-0.104
			c0.05-0.005,0.111-0.032,0.149-0.013c0.673,0.33,1.552,0.44,1.604,1.448c0.041,0.789,0.121,1.583,0.08,2.369
			c-0.113,2.15-0.925,4.13-1.562,6.154c-0.15,0.477-0.278,0.545-0.732,0.397c-1.278-0.414-1.285-0.392-3.015,0.134
			c-0.767-2.538-1.944-4.98-1.78-7.725c0.042-0.704,0.178-1.455,0.498-2.067C13.711,21.151,14.345,21.028,14.808,20.784z"/>
		<path fill-rule="evenodd" clip-rule="evenodd" fill="#FFFFFF" d="M23.974,0.38c0,0.806,0,1.581,0,2.415c-4.875,0-9.752,0-14.685,0
			c0-0.782,0-1.575,0-2.415C14.18,0.38,19.057,0.38,23.974,0.38z"/>
		<path fill-rule="evenodd" clip-rule="evenodd" fill="#FFFFFF" d="M8.473,6.124C8.712,6.835,8.93,7.554,9.194,8.256
			c0.521,1.385,1.048,2.768,1.607,4.138c0.695,1.704,1.614,3.344,2.077,5.106c0.342,1.301,0.116,2.753,0.119,4.139
			c0,0.183-0.146,0.365-0.232,0.568c-0.705-0.339-0.93-0.952-1-1.585c-0.18-1.6-0.89-2.994-1.652-4.356
			c-1.079-1.929-2.146-3.869-2.659-6.027c-0.339-1.426-0.149-2.847,0.72-4.084C8.274,6.144,8.374,6.134,8.473,6.124z"/>
		<path fill-rule="evenodd" clip-rule="evenodd" fill="#FFFFFF" d="M20.292,22.209c-0.072-0.589-0.203-1.178-0.203-1.766
			c0-0.828-0.01-1.681,0.177-2.478c0.267-1.135,0.585-2.291,1.101-3.33c1.246-2.51,2.4-5.044,3.122-7.761
			c0.058-0.218,0.169-0.422,0.34-0.835c0.257,0.321,0.488,0.515,0.6,0.763c0.866,1.92,0.466,3.786-0.375,5.578
			c-0.773,1.648-1.71,3.22-2.463,4.876c-0.472,1.037-0.718,2.176-1.105,3.255c-0.215,0.599-0.511,1.169-0.771,1.752
			C20.574,22.245,20.433,22.227,20.292,22.209z"/>
		<path fill-rule="evenodd" clip-rule="evenodd" fill="#FFFFFF" d="M23.679,3.511c-0.365,0.612-0.668,1.17-1.03,1.688
			c-0.087,0.125-0.368,0.16-0.56,0.161c-3.822,0.009-7.644,0.007-11.494,0.007c-0.334-0.602-0.664-1.196-1.031-1.856
			C14.289,3.511,18.913,3.511,23.679,3.511z"/>
		<path fill-rule="evenodd" clip-rule="evenodd" fill="#FFFFFF" d="M9.481,17.564c-0.132,0.272-0.263,0.543-0.444,0.917
			c-1.832-3.006-3.725-5.855-4.588-9.202C4.177,8.224,4.222,7.1,4.856,6.128c0.166-0.254,0.5-0.398,0.757-0.593
			c0.116,0.233,0.269,0.455,0.342,0.7c0.569,1.937,0.986,3.932,1.722,5.802c0.72,1.83,1.762,3.534,2.662,5.295
			c0.057,0.111,0.104,0.228,0.196,0.428C10.129,17.685,9.798,17.623,9.481,17.564z"/>
		<path fill-rule="evenodd" clip-rule="evenodd" fill="#FFFFFF" d="M24.103,18.401c-0.104-0.28-0.208-0.561-0.314-0.843
			c-0.318,0.065-0.631,0.13-1.042,0.215c0.058-0.203,0.069-0.376,0.149-0.506c1.776-2.901,3.219-5.949,4.046-9.263
			c0.161-0.643,0.221-1.311,0.371-1.957c0.043-0.189,0.238-0.481,0.361-0.48c0.185,0.001,0.424,0.181,0.544,0.352
			c0.972,1.379,0.942,2.938,0.307,4.34c-1.266,2.793-2.737,5.493-4.124,8.232C24.301,18.46,24.202,18.431,24.103,18.401z"/>
		<path fill-rule="evenodd" clip-rule="evenodd" fill="#FFFFFF" d="M8.014,21.764c0.688-0.527,0.656-1.222,0.127-1.975
			c0.722-0.456,1.49-0.833,1.41-1.818c1.368,0.192,1.771,0.67,1.872,2.384c0.047,0.809,0.37,1.436,0.89,1.994
			c0.258,0.277,0.296,0.511,0.286,0.925c-0.029,1.118,0.165,2.243,0.281,3.486c-0.507-0.057-1.098-0.122-1.671-0.186
			c-0.194-0.492-0.303-0.991-0.573-1.376c-0.203-0.29-0.588-0.524-0.937-0.621c-0.565-0.157-0.725-0.434-0.823-1.017
			C8.774,22.954,8.336,22.402,8.014,21.764z"/>
		<path fill-rule="evenodd" clip-rule="evenodd" fill="#FFFFFF" d="M25.306,21.835c-0.527,0.839-1.489,1.337-1.083,2.425
			c-0.33,0.143-0.572,0.302-0.835,0.353c-0.54,0.104-0.779,0.43-0.971,0.923c-0.468,1.202-0.705,1.305-2.138,1.148
			c0.11-0.696,0.223-1.392,0.329-2.088c0.042-0.279,0.175-0.6,0.086-0.831c-0.286-0.743,0.151-1.201,0.459-1.792
			c0.4-0.767,0.54-1.667,0.826-2.498c0.19-0.552,0.188-1.191,0.981-1.42c0.497-0.143,0.746-0.03,0.8,0.365
			c0.083,0.599,0.469,0.845,0.912,1.12c0.139,0.086,0.277,0.447,0.211,0.547C24.399,20.824,24.751,21.352,25.306,21.835z"/>
		<path fill-rule="evenodd" clip-rule="evenodd" fill="#FFFFFF" d="M8.857,18.836c-0.943,0.696-0.974,0.724-1.748-0.124
			c-1.097-1.201-2.256-2.369-3.181-3.695c-1.009-1.446-1.041-3.121-0.417-4.776c0.062-0.164,0.251-0.336,0.417-0.384
			c0.096-0.027,0.332,0.16,0.385,0.297c1.155,2.948,2.677,5.7,4.424,8.333C8.802,18.586,8.818,18.72,8.857,18.836z"/>
		<path fill-rule="evenodd" clip-rule="evenodd" fill="#FFFFFF" d="M24.33,18.764c1.682-2.706,3.348-5.352,4.456-8.301
			c0.09-0.239,0.381-0.403,0.578-0.602c0.156,0.24,0.396,0.461,0.454,0.723c0.472,2.165,0.197,4.144-1.466,5.785
			c-0.813,0.802-1.556,1.677-2.356,2.493C25.321,19.549,25.05,19.52,24.33,18.764z"/>
		<path fill-rule="evenodd" clip-rule="evenodd" fill="#FFFFFF" d="M14.477,33.534c1.455,0,2.861,0,4.296,0
			c0.175,0.657,0.37,1.29,0.508,1.934c0.092,0.429-0.005,0.789-0.461,1.04c-1.446,0.795-2.855,0.974-4.326,0.029
			c-0.49-0.315-0.691-0.638-0.54-1.182C14.125,34.747,14.303,34.141,14.477,33.534z"/>
		<path fill-rule="evenodd" clip-rule="evenodd" fill="#FFFFFF" d="M3.174,14.767c0.644,0.765,1.273,1.572,1.965,2.321
			c0.733,0.794,1.489,1.574,2.302,2.286c0.678,0.593,0.816,1.586,0.154,2.313c-1.54-0.899-3.097-1.833-4.195-3.267
			c-0.701-0.915-1.018-2.068-0.605-3.269c0.032-0.094,0.095-0.179,0.155-0.258C2.978,14.856,3.035,14.843,3.174,14.767z"/>
		<path fill-rule="evenodd" clip-rule="evenodd" fill="#FFFFFF" d="M25.713,21.723c-0.838-0.764-0.723-1.572,0.105-2.38
			c1.203-1.173,2.333-2.419,3.483-3.643c0.277-0.295,0.517-0.626,0.94-1.144c0.151,0.675,0.354,1.125,0.332,1.563
			c-0.076,1.534-0.764,2.735-2.074,3.594C27.539,20.345,26.631,21.057,25.713,21.723z"/>
		<path fill-rule="evenodd" clip-rule="evenodd" fill="#FFFFFF" d="M10.292,25.377c0.199,0.432,0.379,0.823,0.592,1.285
			c-0.932,0.533-1.804,1.058-2.701,1.535c-1.04,0.553-2.546,0.007-3.06-1.063c-0.251-0.524-0.181-0.771,0.473-0.874
			C7.152,26.015,8.696,25.683,10.292,25.377z"/>
		<path fill-rule="evenodd" clip-rule="evenodd" fill="#FFFFFF" d="M22.387,26.666c0.17-0.5,0.3-0.883,0.433-1.272
			c1.658,0.296,3.304,0.603,4.956,0.877c0.529,0.088,0.562,0.379,0.413,0.777c-0.378,1.012-2.097,1.714-3.044,1.21
			C24.223,27.769,23.334,27.216,22.387,26.666z"/>
		<path fill-rule="evenodd" clip-rule="evenodd" fill="#FFFFFF" d="M23.235,33.923c1.9-0.758,4.006-0.77,4.943,2.287
			C26.722,37.179,23.893,36.968,23.235,33.923z"/>
		<path fill-rule="evenodd" clip-rule="evenodd" fill="#FFFFFF" d="M20.247,27.189c0.942-0.041,1.68-0.457,2.467,0.055
			c0.969,0.631,1.969,1.213,2.939,1.841c0.219,0.142,0.523,0.39,0.516,0.579c-0.007,0.199-0.31,0.439-0.537,0.57
			c-1.008,0.581-2.226,0.398-3.042-0.422c-0.388-0.39-0.792-0.766-1.159-1.174C21.072,28.238,20.748,27.805,20.247,27.189z"/>
		<path fill-rule="evenodd" clip-rule="evenodd" fill="#FFFFFF" d="M5.042,36.276c0.785-2.931,3.062-3.283,4.806-2.3
			C9.395,36.425,7.248,37.319,5.042,36.276z"/>
		<path fill-rule="evenodd" clip-rule="evenodd" fill="#FFFFFF" d="M12.847,27.433c-0.792,0.853-1.572,1.72-2.382,2.557
			c-0.711,0.734-2.457,0.741-3.199,0.06c-0.461-0.424-0.161-0.701,0.183-0.924c1.095-0.709,2.155-1.506,3.332-2.039
			c0.569-0.258,1.371-0.001,2.067,0.022C12.848,27.216,12.848,27.325,12.847,27.433z"/>
		<path fill-rule="evenodd" clip-rule="evenodd" fill="#FFFFFF" d="M30.254,19.108c0.273,1.535-0.604,2.625-1.559,3.581
			c-0.342,0.342-1.108,0.283-1.688,0.357c-0.771,0.099-1.549,0.147-2.378,0.222C25.266,22.204,29.539,19.076,30.254,19.108z"/>
		<path fill-rule="evenodd" clip-rule="evenodd" fill="#FFFFFF" d="M8.392,23.31c-1.254-0.171-2.586-0.139-3.737-0.58
			c-0.929-0.356-1.433-1.422-1.704-2.454c-0.013-0.049-0.009-0.104-0.003-0.156c0.037-0.351,0.077-0.702,0.116-1.052
			c0.328,0.175,0.673,0.326,0.98,0.531c1,0.667,2.007,1.324,2.968,2.044c0.554,0.415,1.024,0.943,1.532,1.421
			C8.492,23.146,8.442,23.228,8.392,23.31z"/>
		<path fill-rule="evenodd" clip-rule="evenodd" fill="#FFFFFF" d="M3.604,23.087c1.683,0.203,3.289,0.397,4.965,0.599
			c-0.213,0.947,0.603,1.065,1.217,1.471c-1.237,0.215-2.468,0.476-3.711,0.632C5.13,25.908,3.637,24.292,3.604,23.087z"/>
		<path fill-rule="evenodd" clip-rule="evenodd" fill="#FFFFFF" d="M31.089,32.95c-1.932,1.464-3.933,1.194-5.164-1.209
			C27.715,30.452,30.064,30.638,31.089,32.95z"/>
		<path fill-rule="evenodd" clip-rule="evenodd" fill="#FFFFFF" d="M7.308,31.848c-1.408,2.196-2.979,2.609-5.231,1.128
			C2.997,30.872,5.278,30.271,7.308,31.848z"/>
		<path fill-rule="evenodd" clip-rule="evenodd" fill="#FFFFFF" d="M23.334,25.089c0.671-0.401,1.647-0.345,1.291-1.396
			c1.659-0.201,3.232-0.393,4.802-0.583c0.195,1.425-1.36,2.823-2.713,2.563c-0.555-0.106-1.13-0.102-1.688-0.194
			C24.501,25.391,23.986,25.242,23.334,25.089z"/>
		<path fill-rule="evenodd" clip-rule="evenodd" fill="#FFFFFF" d="M5.516,29.172c-2.611,1.749-3.71,1.671-5.257-0.238
			c0.677-0.821,1.643-1.338,2.601-1.171C3.747,27.918,4.537,28.626,5.516,29.172z"/>
		<path fill-rule="evenodd" clip-rule="evenodd" fill="#FFFFFF" d="M27.938,29.315c1.176-1.907,3.581-2.057,4.862-0.423
			C31.818,30.476,30.123,31.238,27.938,29.315z"/>
		<path fill-rule="evenodd" clip-rule="evenodd" fill="#FFFFFF" d="M20.109,27.599c1.092,1.218,2.139,2.359,3.151,3.531
			c0.322,0.373,0.119,0.814-0.371,0.79c-0.709-0.035-1.413-0.177-2.118-0.282c-0.12-0.018-0.268-0.045-0.347-0.124
			C19.457,30.537,19.307,29.01,20.109,27.599z"/>
		<path fill-rule="evenodd" clip-rule="evenodd" fill="#FFFFFF" d="M13.172,27.545c0.13,0.337,0.17,0.513,0.259,0.658
			c0.729,1.196,0.036,2.16-0.539,3.114c-0.304,0.506-2.419,0.899-2.825,0.537c-0.137-0.123-0.179-0.585-0.063-0.722
			C11.003,29.95,12.048,28.805,13.172,27.545z"/>
		<path fill-rule="evenodd" clip-rule="evenodd" fill="#FFFFFF" d="M14.102,33.609c-0.184,0.556-0.355,1.087-0.535,1.617
			c-0.255,0.755-1.483,1.475-2.247,1.233c-0.205-0.065-0.48-0.538-0.417-0.714c0.265-0.744,0.607-1.468,0.994-2.159
			C12.22,33.007,13.542,33.023,14.102,33.609z"/>
		<path fill-rule="evenodd" clip-rule="evenodd" fill="#FFFFFF" d="M21.698,36.446c-0.303-0.047-0.61-0.074-0.906-0.147
			c-0.598-0.147-1.086-0.405-1.186-1.116c-0.057-0.4-0.146-0.818-0.328-1.173c-0.27-0.525,0.172-0.909,0.395-0.888
			c0.587,0.055,1.34,0.169,1.683,0.562c0.48,0.549,0.672,1.362,0.943,2.079C22.479,36.239,22.197,36.546,21.698,36.446z"/>
		<path fill-rule="evenodd" clip-rule="evenodd" fill="#FFFFFF" d="M0,24.324c2.155-0.414,3.242,0.131,3.693,2.351
			C1.706,27.311,0.487,26.449,0,24.324z"/>
		<path fill-rule="evenodd" clip-rule="evenodd" fill="#FFFFFF" d="M29.543,26.652c0.189-1.563,1.174-2.835,3.513-2.362
			C33.195,26.16,31.745,27.135,29.543,26.652z"/>
		<path fill-rule="evenodd" clip-rule="evenodd" fill="#FFFFFF" d="M13.286,15.449c0.893,0.065,1.363,0.571,1.441,1.532
			c0.099,1.2-0.622,2.127-1.204,3.122C13.445,18.57,13.367,17.037,13.286,15.449z"/>
		<path fill-rule="evenodd" clip-rule="evenodd" fill="#FFFFFF" d="M17.953,31.769c0.026-0.021,0.205-0.166,0.516-0.416
			c0.11,0.415,0.195,0.732,0.277,1.042c0.014-0.017,0.051-0.044,0.068-0.081c0.132-0.278,0.26-0.559,0.389-0.838
			c0.124,0.077,0.359,0.161,0.354,0.228c-0.023,0.341-0.084,0.685-0.185,1.012c-0.039,0.126-0.219,0.209-0.335,0.312
			c-0.023-0.064-0.046-0.128-0.069-0.193c-0.319,0.054-0.639,0.107-1.017,0.17c-0.034-0.189-0.072-0.406-0.104-0.586
			c-0.222,0.254-0.461,0.53-0.702,0.805c-0.087-0.026-0.174-0.052-0.261-0.078c0.087-0.545,0.175-1.09,0.263-1.635
			C17.375,31.584,17.605,31.657,17.953,31.769z"/>
		<path fill-rule="evenodd" clip-rule="evenodd" fill="#FFFFFF" d="M15.343,32.373c0,0.205,0,0.41,0,0.785
			c-0.357-0.231-0.612-0.396-0.841-0.544c-0.096,0.109-0.232,0.262-0.369,0.416c-0.224-0.443-0.448-0.887-0.673-1.333
			c0.82-0.477,0.81,0.017,0.834,0.305c0.178-0.163,0.376-0.344,0.575-0.525c0.115,0.228,0.228,0.457,0.345,0.683
			c0.043,0.083,0.099,0.16,0.149,0.238L15.343,32.373z"/>
		<path fill-rule="evenodd" clip-rule="evenodd" fill="#FFFFFF" d="M23.184,33.262c-0.279,0.186-0.569,0.528-0.834,0.51
			c-0.243-0.018-0.625-0.415-0.638-0.661c-0.012-0.222,0.377-0.631,0.619-0.655c0.267-0.026,0.567,0.293,0.853,0.461
			C23.184,33.032,23.184,33.147,23.184,33.262z"/>
		<path fill-rule="evenodd" clip-rule="evenodd" fill="#FFFFFF" d="M11.822,33.113c-0.452,0.32-0.726,0.662-1,0.661
			c-0.215,0-0.632-0.465-0.595-0.649c0.056-0.271,0.407-0.607,0.686-0.667C11.11,32.415,11.395,32.787,11.822,33.113z"/>
		<path fill-rule="evenodd" clip-rule="evenodd" fill="#FFFFFF" d="M25.423,31.449c-0.032,0.588,0.22,1.229-0.541,1.228
			c-0.233,0-0.681-0.491-0.66-0.724C24.29,31.199,24.917,31.542,25.423,31.449z"/>
		<path fill-rule="evenodd" clip-rule="evenodd" fill="#FFFFFF" d="M8.438,31.006c0.298,0.455,0.618,0.73,0.581,0.943
			c-0.041,0.235-0.399,0.557-0.638,0.573c-0.207,0.014-0.627-0.359-0.616-0.539C7.784,31.716,8.099,31.468,8.438,31.006z"/>
		<path fill-rule="evenodd" clip-rule="evenodd" fill="#FFFFFF" d="M27.437,29.33c0.117,0.223,0.371,0.488,0.317,0.658
			c-0.081,0.259-0.374,0.451-0.577,0.671c-0.208-0.196-0.6-0.408-0.583-0.584c0.024-0.267,0.33-0.508,0.517-0.76
			C27.219,29.32,27.328,29.325,27.437,29.33z"/>
		<path fill-rule="evenodd" clip-rule="evenodd" fill="#FFFFFF" d="M15.364,32.396c0.022-0.473-0.031-1.011,0.739-0.9
			c0.078,0.563,0.15,1.087,0.222,1.611c-0.074,0.053-0.148,0.105-0.223,0.157c-0.252-0.296-0.505-0.593-0.758-0.89
			C15.343,32.373,15.364,32.396,15.364,32.396z"/>
		<path fill-rule="evenodd" clip-rule="evenodd" fill="#FFFFFF" d="M6.876,30.003c-0.401,0.331-0.677,0.669-0.78,0.623
			c-0.253-0.114-0.512-0.378-0.597-0.637c-0.04-0.123,0.306-0.518,0.492-0.529C6.208,29.447,6.442,29.719,6.876,30.003z"/>
		<path fill-rule="evenodd" clip-rule="evenodd" fill="#FFFFFF" d="M5.154,27.417c-0.457,0.223-0.689,0.436-0.87,0.399
			c-0.207-0.042-0.368-0.307-0.548-0.476c0.2-0.194,0.378-0.5,0.608-0.545C4.507,26.762,4.739,27.082,5.154,27.417z"/>
		<path fill-rule="evenodd" clip-rule="evenodd" fill="#FFFFFF" d="M28.891,26.475c0.301,0.417,0.561,0.63,0.586,0.868
			c0.016,0.148-0.314,0.453-0.506,0.468c-0.172,0.013-0.503-0.262-0.518-0.432C28.434,27.159,28.66,26.918,28.891,26.475z"/>
	</g>
	
		<text transform="matrix(1 0 0 1 2.441406e-004 61.1079)" opacity="0.5" fill="#FFFFFF" font-family="'ProximaNovaT-Thin'" font-size="13.6893" letter-spacing="2">MEMBER</text>
</g>
<g id="Cont2_Services">
</g>
<g id="Cont1_WHY_x3F_">
</g>
<g id="Slider">
</g>
<g id="Menu">
</g>
<g id="Guides">
</g>
</svg>
