<?xml version="1.0" encoding="utf-8"?>
<!-- Generator: Adobe Illustrator 16.0.0, SVG Export Plug-In . SVG Version: 6.00 Build 0)  -->
<!DOCTYPE svg PUBLIC "-//W3C//DTD SVG 1.1//EN" "http://www.w3.org/Graphics/SVG/1.1/DTD/svg11.dtd">
<svg version="1.1" xmlns="http://www.w3.org/2000/svg" xmlns:xlink="http://www.w3.org/1999/xlink" x="0px" y="0px" width="38.25px"
	 height="57.75px" viewBox="0 0 38.25 57.75" enable-background="new 0 0 38.25 57.75" xml:space="preserve">
<g id="Layer_2">
</g>
<g id="Layer_1">
	<g>
		<path fill-rule="evenodd" clip-rule="evenodd" fill="#414042" d="M37.692,39.088c0,0-0.896-9.611-1.335-12.802
			c-0.556-4.053-2.761-16.129-2.761-16.129s-0.722-3.564-3.788-5.801C26.203,1.73,22.318,1.282,19.67,1.251l-0.025,1.816
			l0.015-1.816C17.007,1.226,13.118,1.59,9.457,4.137C6.34,6.313,5.548,9.859,5.548,9.859S3.088,21.891,2.444,25.926
			C1.938,29.106,0.844,38.7,0.844,38.7s-0.869,7.77,6.531,13.941c4.852,4.041,10.631,4.125,11.673,4.108
			c0.853,0.041,6.774,0.164,11.818-3.864C38.391,46.875,37.692,39.088,37.692,39.088z M16.248,7.591c4-1.735,8.65,0.099,10.388,4.1
			c1.737,4.001-0.1,8.648-4.098,10.387c-4.003,1.738-8.653-0.101-10.39-4.098C10.412,13.979,12.249,9.326,16.248,7.591z
			 M22.367,53.646l-3.378-0.037l-3.44-0.039C9.277,53.507,4.252,47.669,4.328,40.537c0.079-7.136,5.389-10.489,11.662-10.419
			l6.814,0.07c6.268,0.067,11.132,3.523,11.054,10.662C33.784,47.982,28.639,53.708,22.367,53.646z"/>
	</g>
</g>
</svg>
