<?xml version="1.0" encoding="utf-8"?>
<!-- Generator: Adobe Illustrator 16.0.0, SVG Export Plug-In . SVG Version: 6.00 Build 0)  -->
<!DOCTYPE svg PUBLIC "-//W3C//DTD SVG 1.1//EN" "http://www.w3.org/Graphics/SVG/1.1/DTD/svg11.dtd">
<svg version="1.1" xmlns="http://www.w3.org/2000/svg" xmlns:xlink="http://www.w3.org/1999/xlink" x="0px" y="0px"
	  viewBox="0 0 399.606 110.782" enable-background="new 0 0 399.606 110.782"
	 xml:space="preserve">
<g id="Layer_2">
</g>
<g id="Layer_1">
	<g>
		<g>
			<g>
				<path fill="#FFFFFF" d="M84.151,10.405c0,1.912-0.957,3.984-1.753,5.738c-4.622,9.883-22.953,49.412-22.953,60.25
					c0,0.479,0,1.275,0.478,1.275c1.116,0,5.579-3.027,12.433-14.026c0.797-0.797,1.435-1.274,1.754-1.274
					c0.159,0.158,0.318,0.318,0.318,0.797c0,3.984-11.795,21.039-16.417,21.039c-1.594,0-5.419,0-5.419-6.535
					c0-13.389,13.229-50.049,20.084-66.307c0.318-1.116,0.637-2.392,1.115-3.508c0.638-1.912,1.275-3.984,1.275-5.26
					C75.862,2.595,84.151,6.102,84.151,10.405z"/>
				<path fill="#FFFFFF" d="M106.465,63.643c-1.594,3.028-3.507,5.579-5.579,7.811c-3.666,3.825-9.245,7.651-16.736,7.651
					c-11.158,0-14.824-10.68-14.824-17.215c0-14.346,10.361-28.213,21.359-28.213c6.854,0,10.679,4.623,10.679,9.086
					c0,8.926-8.289,16.736-18.171,16.736c-3.347,0-5.738-0.797-6.854-1.913c-0.638,1.913-0.956,3.825-0.956,5.737
					c0,5.898,3.984,11.637,10.201,11.637c4.622,0,10.042-3.348,12.751-5.26c6.376-4.782,6.376-6.854,7.173-6.854
					c0.16,0,0.479,0,0.638,0.159C106.306,63.165,106.465,63.483,106.465,63.643z M76.978,55.194c0.319,0.16,0.956,0.16,2.072,0.16
					c6.375,0,12.273-6.854,12.273-10.361c0-1.434-0.797-2.072-2.232-2.072c-2.072,0-5.101,1.436-8.129,5.261
					C79.528,50.254,78.093,52.645,76.978,55.194z"/>
				<path fill="#FFFFFF" d="M138.502,33.677c-4.303,0-9.085,0.318-14.664,0.797c-6.057,11.955-14.824,29.967-14.824,37.617
					c0,2.072,0.797,3.028,2.55,3.028c3.666,0,9.882-3.825,14.345-13.39c0,0,0.16,0,0.319-0.158c0.318,0,0.637,0.158,0.956,0.478
					l0.319,0.319c0,0-3.666,17.373-16.896,17.533c-3.188,0-8.447-1.913-8.447-9.564c0-8.926,5.419-23.908,10.042-34.748
					c-2.072,0.798-3.985,0.957-5.738,0.957c-6.216,0-10.201-3.507-10.201-7.173c0-2.391,1.594-4.463,4.782-6.216
					c1.913,0,2.71,0.797,2.71,1.275c0,0.318-0.159,0.478-0.479,0.478c-0.478,0-0.637-0.478-1.435-0.478
					c-1.115,0-2.709,0.637-2.709,3.188c0,2.072,1.435,3.188,4.304,3.188c3.028,0,6.375-1.115,12.114-2.551
					c2.55-5.578,6.376-16.098,6.216-16.098c1.913,0,8.767,3.984,8.767,8.288c0,1.753-0.637,3.028-1.753,4.94
					c7.811-1.274,14.505-1.752,20.084-1.752c7.65,0,12.592,0.955,14.345,1.434c1.116,0.479,2.072,0.957,2.869,1.754
					c1.435,1.275,3.028,3.188,3.028,6.375c0,0.479-0.319,4.463-1.116,4.463c-1.275,0-3.507-2.55-15.78-3.347
					C148.544,33.837,144.081,33.677,138.502,33.677z"/>
				<path fill="#FFFFFF" d="M140.893,10.087c0.479,0,0.638-0.16,1.116-0.16c3.029,0,3.985,2.391,3.985,4.782
					c0,10.36-11.636,16.577-12.433,16.577c0.479,0.159-0.319-0.318-0.319-0.957c0.16-0.478,2.232-1.434,4.623-4.622
					c2.71-3.666,3.188-6.854,3.188-9.245c0-1.753-0.16-4.303-0.638-6.375H140.893z"/>
				<path fill="#FFFFFF" d="M163.525,37.98c0,0.478-0.159,0.797-0.319,1.435c0.16,5.101,3.028,12.91,4.144,22.634
					c0,10.839-9.404,16.417-17.852,16.417c-9.564,0-14.187-7.172-14.187-12.273c0-3.188,1.594-5.896,4.623-6.375
					c3.985-6.535,9.723-17.693,13.07-23.431c0-1.913,1.594-6.535,3.028-6.535h-0.159c0,0.478,6.216,2.71,7.492,6.854
					C163.525,37.024,163.525,37.503,163.525,37.98z M159.063,63.323c0-4.94-4.304-14.504-5.579-19.924
					c-3.666,5.26-7.97,11.317-11.157,15.78c4.304-1.116,7.173-0.797,7.013-0.956c0.16,0,0.16,0,0.319,0.159s0.319,0.478,0.319,0.956
					c0,1.275-10.839,1.275-10.839,6.217c0,2.391,3.985,7.014,9.245,7.014C153.324,72.569,159.063,69.062,159.063,63.323z"/>
				<path fill="#FFFFFF" d="M247.684,61.89c-0.16,0.318-1.116,0.479-2.551,0.479c-1.753,0-3.825-0.16-6.216-1.275
					c-2.231,6.057-8.129,16.736-16.896,16.736c-6.375,0-11.317-3.029-12.751-11.477c-2.391,4.463-7.173,11.316-13.548,11.316
					c-3.985,0-8.448-3.984-8.448-11.635c0-17.853,10.36-27.576,12.114-36.023c0.478,0,7.492,4.304,7.492,7.65
					c0,6.377-12.114,20.402-12.114,31.082c0,2.71,0.479,4.781,3.029,4.781c3.028,0,7.491-3.188,11.157-12.113
					c0.797-15.779,9.245-25.822,9.245-25.822c2.55,0,8.926,4.464,8.767,4.623v0.16c-3.826,6.057-10.042,15.461-10.042,24.705
					c0,3.826,1.116,6.376,4.782,6.376c6.376,0,11.158-8.13,13.708-12.751c-2.391-2.072-3.666-5.738-3.666-10.043
					c0-3.984,3.507-14.982,8.607-14.982c3.028,0,3.825,2.391,3.825,6.057c0,6.376-3.507,16.1-4.782,19.605
					c1.435,1.116,3.985,1.754,6.375,1.754c0.797,0,1.435,0,1.753-0.16h0.16v0.16c0,0.159,0,0.159,0.159,0.318
					c0,0.16-0.159,0.16-0.159,0.318V61.89z M236.526,56.63c1.275-2.391,3.985-10.84,3.985-14.506c0-1.594-0.479-2.391-1.275-2.391
					c-2.55,0-4.463,7.811-4.463,10.521c0,2.071,0.479,3.985,1.275,5.579C236.207,56.311,236.366,56.151,236.526,56.63z"/>
				<path fill="#FFFFFF" d="M278.125,49.138c0,7.651-4.144,14.983-7.491,19.287c0.478,0.159,1.116,0.318,1.913,0.318
					c3.826,0,7.013-3.666,8.289-3.666c0.318,0,0.478,0.318,0.478,0.797c0,1.754-2.55,7.173-10.839,7.173
					c-1.275,0-2.55-0.319-3.985-0.797c-1.116,1.435-5.419,5.419-10.679,5.419c-8.767,0-12.273-8.607-12.273-14.823
					c0-16.417,12.911-26.459,15.461-27.257c0.478,0,0.956,0.16,2.709,2.869c1.753-1.274,3.666-2.55,7.013-2.55
					c6.695,0,9.245,7.173,9.245,10.201C278.125,47.226,278.125,48.022,278.125,49.138z M262.504,70.337
					c-5.579-3.347-6.854-10.041-6.854-15.779c0-1.275,0.16-2.71,0.319-3.984c-3.667,3.824-6.376,8.766-6.376,14.504
					s2.391,8.129,6.694,8.607C257.404,73.685,259.476,73.047,262.504,70.337z M270.474,52.964c0-3.188,0-6.376-1.275-6.854
					c-3.188,0-6.376,7.491-6.376,12.433c0,2.391,0.638,7.014,3.188,7.811c1.753-2.391,3.028-5.26,3.826-9.086
					C270.315,55.991,270.474,54.397,270.474,52.964z"/>
				<path fill="#FFFFFF" d="M318.448,59.657c0,0.798-5.738,18.012-15.142,18.012c-3.985,0-8.289-3.984-8.289-11.635
					c0-6.217,2.072-13.07,4.463-18.809c-2.391,0.479-4.303,0.637-6.694,0.637c-1.116,0-1.913,0-2.709-0.158
					c-7.97,16.417-7.492,18.17-8.767,18.17c-0.797,0-1.275-0.318-1.275-0.797v-0.479c0-0.158,0-0.158,0.16-0.158
					c1.753-4.305,4.622-12.273,5.897-18.49c-3.666-2.391-4.623-6.057-4.623-8.447c0-2.392,0.16-3.508,1.913-3.508
					c0.479,0,1.275-0.158,2.391,0.319c3.666,0.797,6.694,1.594,6.694,1.753c-0.637,1.436-0.637,1.436-1.116,1.913
					c0,0.638,4.145,1.116,7.173,1.116h4.463c0.797-1.116,1.435-2.232,1.913-3.348c1.115-1.912,1.913-4.145,2.391-5.897
					c0.319,0,7.332,4.144,7.332,7.81c0,6.377-12.114,20.402-12.114,31.082c0,2.391,0.319,4.145,2.072,4.145
					c3.029,0,7.811-4.145,12.114-13.867c0,0,0.159,0,0.319-0.16c0.159,0,0.478,0,0.637,0.16
					C318.13,59.339,318.448,59.499,318.448,59.657z"/>
				<path fill="#FFFFFF" d="M379.175,92.333c0,1.436-0.478,3.666-6.057,3.666c-4.463,0-13.389-1.594-26.141-13.07
					c-0.638-0.478-0.797-0.637-1.913-0.637c-3.826,0-11.477,2.391-39.53,9.563c0,0.956-49.571,14.664-75.552,14.664
					c-9.085,0-31.56-1.274-45.586-11.476c-1.275-0.798-2.391-1.754-3.347-2.869c-1.753-1.914-3.188-4.305-3.188-7.971
					c0-1.275,0.159-2.55,0.637-3.825c2.71,2.71,6.535,4.941,11.158,7.014c8.129,3.666,20.721,7.013,40.486,7.013
					c5.579,0,11.636-0.318,18.171-0.956c5.738-0.478,11.795-1.274,18.012-2.231c10.838-1.754,24.546-3.984,37.457-7.65
					c2.551-0.479,18.649-5.579,34.907-7.651c-4.941-4.622-8.129-9.245-10.201-12.911c-6.375,10.201-5.897,14.664-11.157,14.664
					c-1.913,0-5.419-0.318-5.419-7.65c0-13.708,11.795-43.515,14.824-50.049c0.318-0.319,2.709-6.377,2.709-9.404
					c0.797,0,8.926,3.506,8.926,7.81c0,3.347-19.605,37.139-19.605,51.006c12.751-23.271,27.734-33.632,27.575-33.632
					c0.16,0.159,0.478,0.318,0.797,0.479c0.637,0.478,0.956,0.797,0.956,0.956c-0.159,0-8.607,8.606-12.751,15.78
					c0.797,7.013,6.535,15.301,12.751,22.793h1.116c3.347,0.318,6.535,0.797,9.723,1.435c5.579,1.116,11.476,3.028,15.78,6.216
					C377.741,85.798,379.175,88.827,379.175,92.333z M372.8,92.972c1.116,0,2.072-0.319,2.55-0.797
					c0.319-0.319,0.637-0.639,0.797-0.957c-0.797-3.666-6.057-5.897-11.158-7.173c-3.028-0.797-6.375-1.274-10.201-1.594
					c2.71,3.347,6.695,5.738,9.723,7.491c1.753,0.957,3.666,1.754,5.419,2.391C370.887,92.812,371.843,92.972,372.8,92.972z"/>
			</g>
		</g>
		
			<rect x="4.147" y="49.384" transform="matrix(0.7071 0.7071 -0.7071 0.7071 41.9019 9.1453)" fill="#FFFFFF" width="11.531" height="11.53"/>
		
			<rect x="384.688" y="49.384" transform="matrix(0.7071 0.7071 -0.7071 0.7071 153.3758 -259.9536)" fill="#FFFFFF" width="11.531" height="11.53"/>
	</g>
</g>
</svg>
