<?xml version="1.0" encoding="UTF-8" standalone="no"?>
<!-- Generator: Adobe Illustrator 16.0.0, SVG Export Plug-In . SVG Version: 6.00 Build 0)  -->

<svg
   xmlns:dc="http://purl.org/dc/elements/1.1/"
   xmlns:cc="http://creativecommons.org/ns#"
   xmlns:rdf="http://www.w3.org/1999/02/22-rdf-syntax-ns#"
   xmlns:svg="http://www.w3.org/2000/svg"
   xmlns="http://www.w3.org/2000/svg"
   xmlns:sodipodi="http://sodipodi.sourceforge.net/DTD/sodipodi-0.dtd"
   xmlns:inkscape="http://www.inkscape.org/namespaces/inkscape"
   version="1.1"
   x="0px"
   y="0px"
   width="226px"
   height="62.816px"
   viewBox="0 0 226 62.816"
   enable-background="new 0 0 226 62.816"
   xml:space="preserve"
   id="svg2"
   inkscape:version="0.48.4 r9939"
   sodipodi:docname="logoArgeda2.svg"><metadata
     id="metadata102"><rdf:RDF><cc:Work
         rdf:about=""><dc:format>image/svg+xml</dc:format><dc:type
           rdf:resource="http://purl.org/dc/dcmitype/StillImage" /><dc:title></dc:title></cc:Work></rdf:RDF></metadata><defs
     id="defs100" /><sodipodi:namedview
     pagecolor="#ffffff"
     bordercolor="#666666"
     borderopacity="1"
     objecttolerance="10"
     gridtolerance="10"
     guidetolerance="10"
     inkscape:pageopacity="0"
     inkscape:pageshadow="2"
     inkscape:window-width="1871"
     inkscape:window-height="1056"
     id="namedview98"
     showgrid="false"
     inkscape:zoom="1.2920354"
     inkscape:cx="113"
     inkscape:cy="31.408001"
     inkscape:window-x="49"
     inkscape:window-y="24"
     inkscape:window-maximized="1"
     inkscape:current-layer="svg2" /><g
     id="Footer"
     style="fill:#ffffff"><g
       id="g5"
       style="fill:#ffffff"><path
         fill-rule="evenodd"
         clip-rule="evenodd"
         fill="#B31E23"
         d="M6.145,44.173h38.107V5.972L6.145,44.173z M3.135,0h43.653    c1.577,0,2.867,1.291,2.867,2.867v43.75c0,1.576-1.29,2.866-2.867,2.866H3.135c-1.577,0-2.867-1.29-2.867-2.866V2.867    C0.268,1.291,1.558,0,3.135,0z"
         id="path7"
         style="fill:#ffffff" /><g
         id="g9"
         style="fill:#ffffff"><path
           fill="#B31E23"
           d="M61.323,15.141h5.837c3.253,0,5.458,0.132,6.613,0.396c1.74,0.397,3.154,1.247,4.244,2.548     c1.089,1.302,1.634,2.904,1.634,4.808c0,1.586-0.376,2.979-1.126,4.183c-0.75,1.202-1.823,2.11-3.216,2.725     c-1.395,0.615-3.321,0.928-5.776,0.942l10.537,13.522h-3.623L65.908,30.742h-1.656v13.522h-2.929V15.141z M64.252,17.992v9.899     l5.048,0.04c1.956,0,3.402-0.185,4.339-0.554c0.938-0.37,1.67-0.96,2.195-1.772c0.526-0.813,0.789-1.719,0.789-2.722     c0-0.977-0.267-1.864-0.798-2.664c-0.533-0.798-1.231-1.368-2.096-1.712c-0.863-0.343-2.301-0.514-4.309-0.514H64.252z"
           id="path11"
           style="fill:#ffffff" /><path
           fill="#B31E23"
           d="M119.497,20.031l-2.271,2.138c-1.634-1.597-3.424-2.808-5.369-3.633     c-1.945-0.824-3.841-1.237-5.687-1.237c-2.297,0-4.485,0.562-6.564,1.683c-2.078,1.122-3.688,2.643-4.831,4.564     c-1.141,1.92-1.713,3.95-1.713,6.088c0,2.191,0.591,4.273,1.773,6.247c1.181,1.973,2.814,3.523,4.9,4.652     c2.084,1.128,4.369,1.692,6.852,1.692c3.015,0,5.566-0.845,7.65-2.534c2.086-1.689,3.319-3.88,3.706-6.573H108.6v-2.812h12.63     c-0.028,4.502-1.371,8.074-4.034,10.722c-2.663,2.646-6.225,3.97-10.688,3.97c-5.418,0-9.707-1.835-12.868-5.505     c-2.431-2.823-3.646-6.09-3.646-9.8c0-2.756,0.696-5.325,2.092-7.701c1.395-2.376,3.307-4.233,5.736-5.572     c2.431-1.34,5.18-2.011,8.248-2.011c2.483,0,4.82,0.445,7.012,1.337C115.273,16.635,117.411,18.064,119.497,20.031z"
           id="path13"
           style="fill:#ffffff" /><path
           fill="#B31E23"
           d="M132.13,15.141h16.793v2.851h-13.865v9.126h13.746v2.851h-13.746v11.443h13.746v2.852H132.13V15.141z"
           id="path15"
           style="fill:#ffffff" /><path
           fill="#B31E23"
           d="M159.288,44.264V15.141h6.076c4.383,0,7.563,0.35,9.542,1.049c2.842,0.99,5.063,2.706,6.665,5.147     c1.599,2.442,2.399,5.352,2.399,8.73c0,2.917-0.634,5.484-1.902,7.702c-1.269,2.217-2.916,3.854-4.94,4.91     c-2.025,1.056-4.865,1.584-8.517,1.584H159.288z M162.096,41.511h3.388c4.05,0,6.858-0.25,8.426-0.751     c2.204-0.712,3.937-1.995,5.2-3.846c1.262-1.854,1.892-4.119,1.892-6.795c0-2.81-0.684-5.209-2.051-7.201     c-1.368-1.993-3.274-3.356-5.717-4.095c-1.833-0.554-4.855-0.831-9.064-0.831h-2.072V41.511z"
           id="path17"
           style="fill:#ffffff" /></g><polygon
         fill-rule="evenodd"
         clip-rule="evenodd"
         fill="#B31E23"
         points="195.399,14.586 225.449,44.636 195.399,44.636   "
         id="polygon19"
         style="fill:#ffffff" /><g
         id="g21"
         style="fill:#ffffff"><path
           fill="#B31E23"
           d="M0,61.818l0.326-0.402c0.38,0.466,0.997,0.906,1.835,0.906c1.208,0,1.551-0.71,1.551-1.242     c0-1.828-3.526-0.877-3.526-3.051c0-1.017,0.864-1.661,1.93-1.661c0.882,0,1.535,0.326,1.994,0.876l-0.335,0.393     c-0.424-0.542-1.023-0.785-1.684-0.785c-0.785,0-1.375,0.476-1.375,1.148c0,1.596,3.526,0.718,3.526,3.042     c0,0.802-0.502,1.763-2.089,1.763C1.182,62.806,0.45,62.396,0,61.818z"
           id="path23"
           style="fill:#ffffff" /><path
           fill="#B31E23"
           d="M6.467,62.694V56.47h3.729v0.485H6.969v2.305h3.166v0.485H6.969v2.464h3.227v0.484H6.467z"
           id="path25"
           style="fill:#ffffff" /><path
           fill="#B31E23"
           d="M15.905,62.694l-1.649-2.575H12.96v2.575h-0.503V56.47h2.196c1.014,0,1.79,0.681,1.79,1.819     c0,1.129-0.758,1.754-1.631,1.791l1.702,2.613H15.905z M15.914,58.29c0-0.783-0.529-1.334-1.305-1.334H12.96v2.679h1.649     C15.384,59.634,15.914,59.074,15.914,58.29z"
           id="path27"
           style="fill:#ffffff" /><path
           fill="#B31E23"
           d="M20.519,62.694l-2.406-6.224h0.582l2.134,5.627l2.142-5.627h0.583l-2.407,6.224H20.519z"
           id="path29"
           style="fill:#ffffff" /><path
           fill="#B31E23"
           d="M25.436,62.694V56.47h0.502v6.224H25.436z"
           id="path31"
           style="fill:#ffffff" /><path
           fill="#B31E23"
           d="M28.197,59.586c0-1.912,1.314-3.218,2.98-3.218c0.935,0,1.641,0.438,2.143,1.101l-0.423,0.29     c-0.37-0.542-1.014-0.906-1.72-0.906c-1.384,0-2.451,1.11-2.451,2.734c0,1.605,1.067,2.735,2.451,2.735     c0.706,0,1.35-0.365,1.72-0.906l0.423,0.281c-0.52,0.68-1.208,1.11-2.143,1.11C29.511,62.806,28.197,61.5,28.197,59.586z"
           id="path33"
           style="fill:#ffffff" /><path
           fill="#B31E23"
           d="M35.361,62.694V56.47h3.729v0.485h-3.227v2.305h3.166v0.485h-3.166v2.464h3.227v0.484H35.361z"
           id="path35"
           style="fill:#ffffff" /><path
           fill="#B31E23"
           d="M48.54,62.694c-0.201-0.186-0.476-0.456-0.749-0.746c-0.423,0.504-0.979,0.858-1.728,0.858     c-0.97,0-1.773-0.578-1.773-1.698c0-0.989,0.626-1.483,1.313-1.884c-0.292-0.485-0.484-0.981-0.484-1.428     c0-0.821,0.625-1.418,1.403-1.418c0.722,0,1.234,0.419,1.234,1.176c0,0.933-0.768,1.343-1.525,1.772     c0.256,0.382,0.547,0.729,0.757,0.979c0.274,0.327,0.53,0.635,0.786,0.914c0.351-0.559,0.573-1.176,0.669-1.512l0.423,0.188     c-0.186,0.494-0.423,1.12-0.777,1.66c0.344,0.374,0.707,0.729,1.138,1.139H48.54z M47.491,61.621     c-0.361-0.392-0.706-0.775-0.881-0.998c-0.256-0.318-0.538-0.672-0.785-1.045c-0.564,0.345-1.023,0.765-1.023,1.502     c0,0.849,0.618,1.297,1.296,1.297C46.671,62.376,47.13,62.06,47.491,61.621z M46.019,58.99c0.67-0.374,1.279-0.718,1.279-1.418     c0-0.513-0.336-0.784-0.767-0.784c-0.502,0-0.917,0.419-0.917,1.018C45.613,58.168,45.78,58.588,46.019,58.99z"
           id="path37"
           style="fill:#ffffff" /><path
           fill="#B31E23"
           d="M54.277,61.818l0.326-0.402c0.38,0.466,0.997,0.906,1.835,0.906c1.208,0,1.552-0.71,1.552-1.242     c0-1.828-3.527-0.877-3.527-3.051c0-1.017,0.864-1.661,1.931-1.661c0.882,0,1.534,0.326,1.993,0.876l-0.335,0.393     c-0.422-0.542-1.022-0.785-1.684-0.785c-0.784,0-1.376,0.476-1.376,1.148c0,1.596,3.527,0.718,3.527,3.042     c0,0.802-0.502,1.763-2.089,1.763C55.459,62.806,54.728,62.396,54.277,61.818z"
           id="path39"
           style="fill:#ffffff" /><path
           fill="#B31E23"
           d="M60.523,59.586c0-1.819,1.129-3.218,2.857-3.218c1.72,0,2.857,1.399,2.857,3.218     c0,1.819-1.138,3.22-2.857,3.22C61.652,62.806,60.523,61.406,60.523,59.586z M65.708,59.586c0-1.586-0.917-2.734-2.328-2.734     c-1.429,0-2.328,1.148-2.328,2.734c0,1.568,0.899,2.735,2.328,2.735C64.791,62.322,65.708,61.155,65.708,59.586z"
           id="path41"
           style="fill:#ffffff" /><path
           fill="#B31E23"
           d="M68.498,62.694V56.47h0.503v5.739h2.849v0.484H68.498z"
           id="path43"
           style="fill:#ffffff" /><path
           fill="#B31E23"
           d="M73.96,60.305V56.47h0.512v3.827c0,1.258,0.626,2.025,1.781,2.025c1.164,0,1.783-0.767,1.783-2.025V56.47     h0.51v3.835c0,1.54-0.775,2.501-2.292,2.501C74.745,62.806,73.96,61.835,73.96,60.305z"
           id="path45"
           style="fill:#ffffff" /><path
           fill="#B31E23"
           d="M82.526,62.694v-5.738h-1.922V56.47h4.356v0.485h-1.922v5.738H82.526z"
           id="path47"
           style="fill:#ffffff" /><path
           fill="#B31E23"
           d="M87.018,62.694V56.47h0.503v6.224H87.018z"
           id="path49"
           style="fill:#ffffff" /><path
           fill="#B31E23"
           d="M89.78,59.586c0-1.819,1.129-3.218,2.857-3.218c1.719,0,2.856,1.399,2.856,3.218     c0,1.819-1.137,3.22-2.856,3.22C90.909,62.806,89.78,61.406,89.78,59.586z M94.965,59.586c0-1.586-0.917-2.734-2.328-2.734     c-1.429,0-2.328,1.148-2.328,2.734c0,1.568,0.899,2.735,2.328,2.735C94.047,62.322,94.965,61.155,94.965,59.586z"
           id="path51"
           style="fill:#ffffff" /><path
           fill="#B31E23"
           d="M101.961,62.694l-3.703-5.346v5.346h-0.503V56.47h0.513l3.686,5.272V56.47h0.503v6.224H101.961z"
           id="path53"
           style="fill:#ffffff" /><path
           fill="#B31E23"
           d="M104.611,61.818l0.326-0.402c0.379,0.466,0.997,0.906,1.835,0.906c1.208,0,1.551-0.71,1.551-1.242     c0-1.828-3.528-0.877-3.528-3.051c0-1.017,0.865-1.661,1.931-1.661c0.882,0,1.535,0.326,1.993,0.876l-0.335,0.393     c-0.423-0.542-1.023-0.785-1.684-0.785c-0.785,0-1.375,0.476-1.375,1.148c0,1.596,3.526,0.718,3.526,3.042     c0,0.802-0.502,1.763-2.089,1.763C105.793,62.806,105.061,62.396,104.611,61.818z"
           id="path55"
           style="fill:#ffffff" /><path
           fill="#B31E23"
           d="M114.377,62.694V56.47h1.879c1.825,0,2.971,1.409,2.971,3.116c0,1.727-1.146,3.107-2.971,3.107H114.377z      M118.699,59.586c0-1.456-0.884-2.631-2.443-2.631h-1.375v5.254h1.375C117.808,62.209,118.699,61.043,118.699,59.586z"
           id="path57"
           style="fill:#ffffff" /><path
           fill="#B31E23"
           d="M121.497,62.694V56.47h3.731v0.485H122v2.305h3.166v0.485H122v2.464h3.228v0.484H121.497z"
           id="path59"
           style="fill:#ffffff" /><path
           fill="#B31E23"
           d="M127.161,61.818l0.326-0.402c0.379,0.466,0.997,0.906,1.835,0.906c1.208,0,1.552-0.71,1.552-1.242     c0-1.828-3.528-0.877-3.528-3.051c0-1.017,0.865-1.661,1.932-1.661c0.882,0,1.534,0.326,1.993,0.876l-0.335,0.393     c-0.423-0.542-1.022-0.785-1.684-0.785c-0.785,0-1.375,0.476-1.375,1.148c0,1.596,3.527,0.718,3.527,3.042     c0,0.802-0.503,1.763-2.09,1.763C128.344,62.806,127.612,62.396,127.161,61.818z"
           id="path61"
           style="fill:#ffffff" /><path
           fill="#B31E23"
           d="M133.628,62.694V56.47h0.503v6.224H133.628z"
           id="path63"
           style="fill:#ffffff" /><path
           fill="#B31E23"
           d="M136.39,59.586c0-1.921,1.332-3.218,2.98-3.218c0.97,0,1.676,0.411,2.213,1.064l-0.38,0.288     c-0.413-0.521-1.083-0.868-1.833-0.868c-1.384,0-2.451,1.11-2.451,2.734c0,1.605,1.067,2.744,2.451,2.744     c0.785,0,1.402-0.411,1.729-0.756v-1.494h-2.222v-0.475h2.724v2.174c-0.521,0.616-1.304,1.036-2.231,1.036     C137.722,62.816,136.39,61.509,136.39,59.586z"
           id="path65"
           style="fill:#ffffff" /><path
           fill="#B31E23"
           d="M148.104,62.694l-3.703-5.346v5.346h-0.502V56.47h0.51l3.687,5.272V56.47h0.503v6.224H148.104z"
           id="path67"
           style="fill:#ffffff" /><path
           fill="#B31E23"
           d="M151.08,62.694V56.47h0.502v6.224H151.08z"
           id="path69"
           style="fill:#ffffff" /><path
           fill="#B31E23"
           d="M158.269,62.694l-3.704-5.346v5.346h-0.503V56.47h0.511l3.686,5.272V56.47h0.502v6.224H158.269z"
           id="path71"
           style="fill:#ffffff" /><path
           fill="#B31E23"
           d="M161.023,59.586c0-1.921,1.332-3.218,2.981-3.218c0.97,0,1.675,0.411,2.213,1.064l-0.379,0.288     c-0.415-0.521-1.084-0.868-1.834-0.868c-1.385,0-2.452,1.11-2.452,2.734c0,1.605,1.067,2.744,2.452,2.744     c0.785,0,1.402-0.411,1.728-0.756v-1.494h-2.222v-0.475h2.725v2.174c-0.52,0.616-1.304,1.036-2.23,1.036     C162.354,62.816,161.023,61.509,161.023,59.586z"
           id="path73"
           style="fill:#ffffff" /><path
           fill="#B31E23"
           d="M175.72,62.694c-0.203-0.186-0.476-0.456-0.749-0.746c-0.424,0.504-0.979,0.858-1.729,0.858     c-0.97,0-1.772-0.578-1.772-1.698c0-0.989,0.626-1.483,1.313-1.884c-0.291-0.485-0.485-0.981-0.485-1.428     c0-0.821,0.626-1.418,1.403-1.418c0.723,0,1.234,0.419,1.234,1.176c0,0.933-0.767,1.343-1.525,1.772     c0.256,0.382,0.547,0.729,0.758,0.979c0.274,0.327,0.529,0.635,0.785,0.914c0.353-0.559,0.574-1.176,0.67-1.512l0.424,0.188     c-0.187,0.494-0.424,1.12-0.777,1.66c0.345,0.374,0.707,0.729,1.138,1.139H175.72z M174.67,61.621     c-0.362-0.392-0.705-0.775-0.881-0.998c-0.256-0.318-0.538-0.672-0.787-1.045c-0.563,0.345-1.021,0.765-1.021,1.502     c0,0.849,0.616,1.297,1.296,1.297C173.85,62.376,174.309,62.06,174.67,61.621z M173.198,58.99     c0.669-0.374,1.278-0.718,1.278-1.418c0-0.513-0.334-0.784-0.766-0.784c-0.503,0-0.917,0.419-0.917,1.018     C172.792,58.168,172.96,58.588,173.198,58.99z"
           id="path75"
           style="fill:#ffffff" /><path
           fill="#B31E23"
           d="M181.783,62.694V56.47h2.417c0.987,0,1.622,0.607,1.622,1.586c0,0.784-0.502,1.316-1.031,1.428     c0.625,0.102,1.146,0.793,1.146,1.53c0,1.036-0.635,1.679-1.685,1.679H181.783z M185.293,58.113c0-0.635-0.398-1.157-1.157-1.157     h-1.851v2.305h1.851C184.895,59.261,185.293,58.756,185.293,58.113z M185.408,60.977c0-0.635-0.415-1.231-1.235-1.231h-1.888     v2.464h1.888C184.949,62.209,185.408,61.733,185.408,60.977z"
           id="path77"
           style="fill:#ffffff" /><path
           fill="#B31E23"
           d="M188.214,60.305V56.47h0.512v3.827c0,1.258,0.626,2.025,1.781,2.025c1.164,0,1.782-0.767,1.782-2.025     V56.47h0.511v3.835c0,1.54-0.776,2.501-2.292,2.501C188.999,62.806,188.214,61.835,188.214,60.305z"
           id="path79"
           style="fill:#ffffff" /><path
           fill="#B31E23"
           d="M195.281,62.694V56.47h0.503v6.224H195.281z"
           id="path81"
           style="fill:#ffffff" /><path
           fill="#B31E23"
           d="M198.264,62.694V56.47h0.502v5.739h2.849v0.484H198.264z"
           id="path83"
           style="fill:#ffffff" /><path
           fill="#B31E23"
           d="M203.725,62.694V56.47h1.879c1.824,0,2.972,1.409,2.972,3.116c0,1.727-1.147,3.107-2.972,3.107H203.725z      M208.047,59.586c0-1.456-0.883-2.631-2.442-2.631h-1.377v5.254h1.377C207.155,62.209,208.047,61.043,208.047,59.586z"
           id="path85"
           style="fill:#ffffff" /><path
           fill="#B31E23"
           d="M210.845,62.694V56.47h0.503v6.224H210.845z"
           id="path87"
           style="fill:#ffffff" /><path
           fill="#B31E23"
           d="M218.034,62.694l-3.704-5.346v5.346h-0.503V56.47h0.512l3.686,5.272V56.47h0.503v6.224H218.034z"
           id="path89"
           style="fill:#ffffff" /><path
           fill="#B31E23"
           d="M220.788,59.586c0-1.921,1.332-3.218,2.981-3.218c0.97,0,1.675,0.411,2.213,1.064l-0.38,0.288     c-0.414-0.521-1.084-0.868-1.833-0.868c-1.385,0-2.452,1.11-2.452,2.734c0,1.605,1.067,2.744,2.452,2.744     c0.786,0,1.402-0.411,1.728-0.756v-1.494h-2.222v-0.475H226v2.174c-0.52,0.616-1.305,1.036-2.231,1.036     C222.119,62.816,220.788,61.509,220.788,59.586z"
           id="path91"
           style="fill:#ffffff" /></g></g></g><g
     id="Cont2_Services" /><g
     id="Cont1_WHY_x3F_" /><g
     id="Slider" /><g
     id="Menu" /><g
     id="Guides" /></svg>