<?xml version="1.0" encoding="utf-8"?>
<!-- Generator: Adobe Illustrator 16.0.0, SVG Export Plug-In . SVG Version: 6.00 Build 0)  -->
<!DOCTYPE svg PUBLIC "-//W3C//DTD SVG 1.1//EN" "http://www.w3.org/Graphics/SVG/1.1/DTD/svg11.dtd">
<svg version="1.1" id="Layer_1" xmlns="http://www.w3.org/2000/svg" xmlns:xlink="http://www.w3.org/1999/xlink" x="0px" y="0px"
	 viewBox="0 0 500 500" enable-background="new 0 0 500 500" xml:space="preserve">
<g>
	<g>
		<g>
			<path fill="#FFFFFF" d="M173.792,284.583l-1.444,0.673c-0.132-0.557-0.453-1.009-0.963-1.357
				c-0.51-0.346-1.073-0.518-1.679-0.518c-0.446,0-0.842,0.088-1.182,0.264c-0.339,0.177-0.621,0.467-0.84,0.866
				c-0.142,0.328-0.215,0.663-0.215,1.003c0,0.814,0.381,1.425,1.145,1.839l3.463,1.275c0.631,0.351,1.113,0.827,1.451,1.426
				c0.332,0.603,0.498,1.24,0.498,1.919c0,0.581-0.119,1.141-0.352,1.673c-0.24,0.534-0.596,1.006-1.068,1.418
				c-0.85,0.593-1.803,0.896-2.861,0.896c-0.948,0-1.818-0.241-2.607-0.715c-0.422-0.319-0.75-0.674-0.974-1.064
				c-0.227-0.395-0.428-0.91-0.612-1.545l1.479-0.743c0,0.763,0.274,1.405,0.82,1.91c0.543,0.514,1.19,0.769,1.933,0.769
				c0.29,0,0.575-0.045,0.864-0.137c0.285-0.092,0.565-0.24,0.836-0.445c0.273-0.203,0.492-0.483,0.656-0.835
				c0.163-0.349,0.248-0.72,0.248-1.108c0-0.58-0.131-1.009-0.391-1.287c-0.259-0.276-0.466-0.467-0.623-0.56
				c-0.148-0.1-0.457-0.253-0.918-0.457l-2.332-0.822c-0.691-0.325-1.252-0.772-1.675-1.336c-0.427-0.566-0.639-1.209-0.639-1.925
				c0-0.181,0.048-0.514,0.136-0.992c0.091-0.479,0.379-0.987,0.867-1.523c0.484-0.534,1.017-0.858,1.594-0.975
				c0.577-0.112,1.088-0.172,1.54-0.172c0.192,0,0.345,0.007,0.456,0.019c0.107,0.013,0.391,0.066,0.844,0.153
				c0.458,0.092,0.943,0.357,1.459,0.794C173.219,283.4,173.581,283.94,173.792,284.583z"/>
			<path fill="#FFFFFF" d="M201.87,283.656h-3.882v12.062h-1.677v-12.062h-3.88v-1.423h9.439V283.656z"/>
			<path fill="#FFFFFF" d="M230.058,282.233l-0.038,9.185c0,0.805-0.222,1.568-0.673,2.304c-0.447,0.736-1.033,1.293-1.749,1.668
				c-0.995,0.449-2.031,0.677-3.097,0.677c-1.068,0-2.028-0.242-2.881-0.716c-0.847-0.474-1.413-1.025-1.69-1.666
				c-0.284-0.633-0.461-1.117-0.542-1.447c-0.077-0.332-0.117-0.626-0.117-0.892v-9.112h1.622v9.112
				c0.085,0.632,0.27,1.201,0.547,1.706c0.281,0.503,0.679,0.882,1.204,1.135c0.68,0.293,1.368,0.438,2.057,0.438
				c0.546,0,1.053-0.09,1.514-0.265c0.46-0.175,0.854-0.446,1.175-0.813c0.322-0.364,0.57-0.723,0.747-1.08
				c0.178-0.359,0.267-0.736,0.267-1.122v-0.146v-8.966H230.058z"/>
			<path fill="#FFFFFF" d="M254.824,294.971c-0.475,0.231-0.948,0.415-1.423,0.55c-0.474,0.131-0.942,0.197-1.403,0.197h-5.099
				v-13.484h5.74c1.709,0.17,3.063,0.927,4.061,2.271c0.993,1.341,1.494,2.875,1.494,4.6c0,1.274-0.278,2.437-0.84,3.481
				C256.797,293.628,255.952,294.424,254.824,294.971z M256.409,288.102c-0.099-1.057-0.508-1.992-1.229-2.808
				c-0.721-0.814-1.608-1.338-2.654-1.565h-4.044v10.53h3.481c1.373,0,2.462-0.546,3.278-1.639c0.814-1.094,1.221-2.342,1.221-3.735
				C256.463,288.616,256.445,288.359,256.409,288.102z"/>
			<path fill="#FFFFFF" d="M279.932,295.718h-1.582v-13.484h1.582V295.718z"/>
			<path fill="#FFFFFF" d="M313.968,288.874c0,1.996-0.698,3.697-2.099,5.1c-1.408,1.406-3.106,2.106-5.096,2.106
				c-2.019,0-3.75-0.678-5.201-2.032c-1.456-1.354-2.179-3.021-2.179-4.992c0-1.991,0.698-3.69,2.105-5.1
				c1.401-1.401,3.099-2.105,5.089-2.105c2.019,0,3.755,0.677,5.208,2.035C313.243,285.241,313.968,286.905,313.968,288.874z
				 M312.296,288.84c0-1.547-0.561-2.851-1.678-3.928c-1.117-1.068-2.463-1.604-4.029-1.604c-1.538,0-2.845,0.562-3.917,1.68
				c-1.066,1.119-1.6,2.463-1.6,4.034c0,1.543,0.556,2.848,1.661,3.915c1.118,1.063,2.463,1.597,4.041,1.597
				c1.544,0,2.851-0.561,3.917-1.68C311.756,291.733,312.296,290.397,312.296,288.84z"/>
			<path fill="#FFFFFF" d="M337.79,284.583l-1.444,0.673c-0.134-0.557-0.452-1.009-0.963-1.357
				c-0.512-0.346-1.072-0.518-1.677-0.518c-0.45,0-0.843,0.088-1.187,0.264c-0.34,0.177-0.617,0.467-0.838,0.866
				c-0.14,0.328-0.212,0.663-0.212,1.003c0,0.814,0.379,1.425,1.145,1.839l3.462,1.275c0.63,0.351,1.111,0.827,1.446,1.426
				c0.334,0.603,0.502,1.24,0.502,1.919c0,0.581-0.117,1.141-0.357,1.673c-0.235,0.534-0.59,1.006-1.062,1.418
				c-0.851,0.593-1.802,0.896-2.864,0.896c-0.943,0-1.814-0.241-2.606-0.715c-0.424-0.319-0.75-0.674-0.974-1.064
				c-0.226-0.395-0.43-0.91-0.608-1.545l1.474-0.743c0,0.763,0.273,1.405,0.821,1.91c0.544,0.514,1.188,0.769,1.933,0.769
				c0.29,0,0.575-0.045,0.865-0.137c0.282-0.092,0.562-0.24,0.838-0.445c0.271-0.203,0.491-0.483,0.652-0.835
				c0.165-0.349,0.25-0.72,0.25-1.108c0-0.58-0.131-1.009-0.394-1.287c-0.262-0.276-0.469-0.467-0.619-0.56
				c-0.151-0.1-0.459-0.253-0.92-0.457l-2.331-0.822c-0.693-0.325-1.251-0.772-1.678-1.336c-0.427-0.566-0.637-1.209-0.637-1.925
				c0-0.181,0.048-0.514,0.137-0.992c0.089-0.479,0.377-0.987,0.86-1.523c0.492-0.534,1.021-0.858,1.6-0.975
				c0.575-0.112,1.092-0.172,1.539-0.172c0.195,0,0.346,0.007,0.455,0.019c0.108,0.013,0.393,0.066,0.846,0.153
				c0.458,0.092,0.943,0.357,1.458,0.794C337.217,283.4,337.58,283.94,337.79,284.583z"/>
		</g>
	</g>
	<path fill="none" stroke="#FFFFFF" stroke-width="19" stroke-miterlimit="10" d="M36.333,249.158
		c0-118.993,96.469-215.458,215.448-215.458c118.995,0,215.461,96.465,215.461,215.458c0,118.989-96.467,215.445-215.461,215.445
		C132.802,464.604,36.333,368.147,36.333,249.158z"/>
	<line fill="#FFFFFF" x1="100.04" y1="273.782" x2="403.536" y2="273.782"/>
	<path fill-rule="evenodd" clip-rule="evenodd" fill="#FFFFFF" d="M288.528,394.564c0,0-1.787-19.158-2.661-25.519
		c-1.109-8.08-5.503-32.148-5.503-32.148s-1.44-7.106-7.551-11.565c-7.187-5.236-14.931-6.128-20.208-6.188l-0.051,3.617l0.03-3.617
		c-5.289-0.052-13.041,0.675-20.339,5.751c-6.211,4.341-7.792,11.408-7.792,11.408s-4.902,23.981-6.186,32.028
		c-1.008,6.338-3.191,25.461-3.191,25.461s-1.731,15.486,13.019,27.789c9.671,8.056,21.191,8.223,23.268,8.189
		c1.7,0.079,13.503,0.326,23.557-7.7C289.921,410.087,288.528,394.564,288.528,394.564z M245.781,331.779
		c7.972-3.459,17.243,0.198,20.708,8.172c3.463,7.977-0.199,17.24-8.168,20.707c-7.979,3.463-17.249-0.201-20.708-8.171
		C234.149,344.514,237.81,335.239,245.781,331.779z M257.979,423.583l-6.735-0.072l-6.855-0.076
		c-12.503-0.128-22.517-11.767-22.366-25.982c0.158-14.224,10.74-20.907,23.243-20.767l13.584,0.14
		c12.493,0.134,22.19,7.023,22.034,21.252C280.738,412.294,270.48,423.708,257.979,423.583z"/>
	<g>
		<g>
			<path fill="#FFFFFF" d="M123.644,226.311v4.412h-3.347v-4.639c0-5.706-2.206-10.043-8.063-10.043
				c-5.857,0-8.065,4.337-8.065,10.043v27.688c0,5.703,2.208,9.964,8.065,9.964c5.856,0,8.063-4.261,8.063-9.964v-6.314h3.347v6.085
				c0,7.682-3.347,13.465-11.485,13.465c-8.138,0-11.487-5.783-11.487-13.465v-27.232c0-7.682,3.35-13.465,11.487-13.465
				C120.297,212.846,123.644,218.629,123.644,226.311z"/>
			<path fill="#FFFFFF" d="M134.446,254.76l-2.659,11.788h-3.195l11.636-53.322h5.097l11.866,53.322h-3.498l-2.664-11.788H134.446z
				 M134.979,251.717H150.5l-7.838-34.459L134.979,251.717z"/>
			<path fill="#FFFFFF" d="M165.712,266.548h-3.194v-53.245h4.565l15.975,44.955v-44.955h3.193v53.245h-3.877l-16.662-47.463
				V266.548z"/>
			<path fill="#FFFFFF" d="M195.457,266.548h-3.194v-53.245h4.565l15.973,44.955v-44.955h3.193v53.245h-3.88l-16.656-47.463V266.548
				z"/>
			<path fill="#FFFFFF" d="M240.036,237.949v3.195h-14.53v22.21H243v3.193h-20.992v-53.245H243v3.195h-17.494v21.452H240.036z"/>
			<path fill="#FFFFFF" d="M260.423,213.303c8.212,0,11.79,5.4,11.79,13.235v26.776c0,7.837-3.577,13.233-11.79,13.233h-11.715
				v-53.245H260.423z M260.345,263.354c5.932,0,8.369-4.031,8.369-9.889v-27.078c0-5.86-2.513-9.89-8.369-9.89h-8.137v46.857
				H260.345z"/>
			<path fill="#FFFFFF" d="M293.286,241.524v25.023h-3.498v-53.245h3.498v25.026h16.582v-25.026h3.573v53.245h-3.573v-25.023
				H293.286z"/>
			<path fill="#FFFFFF" d="M337.559,237.949v3.195H323.03v22.21h17.494v3.193h-20.993v-53.245h20.993v3.195H323.03v21.452H337.559z"
				/>
			<path fill="#FFFFFF" d="M351.33,254.76l-2.665,11.788h-3.193l11.636-53.322h5.099l11.864,53.322h-3.499l-2.658-11.788H351.33z
				 M351.86,251.717h15.518l-7.834-34.459L351.86,251.717z"/>
			<path fill="#FFFFFF" d="M391.113,213.303c8.216,0,11.79,5.4,11.79,13.235v26.776c0,7.837-3.574,13.233-11.79,13.233H379.4
				v-53.245H391.113z M391.038,263.354c5.929,0,8.371-4.031,8.371-9.889v-27.078c0-5.86-2.513-9.89-8.371-9.89H382.9v46.857H391.038
				z"/>
		</g>
	</g>
</g>
</svg>
