<?xml version="1.0" encoding="UTF-8" standalone="no"?>
<!-- Generator: Adobe Illustrator 16.0.0, SVG Export Plug-In . SVG Version: 6.00 Build 0)  -->

<svg
   xmlns:dc="http://purl.org/dc/elements/1.1/"
   xmlns:cc="http://creativecommons.org/ns#"
   xmlns:rdf="http://www.w3.org/1999/02/22-rdf-syntax-ns#"
   xmlns:svg="http://www.w3.org/2000/svg"
   xmlns="http://www.w3.org/2000/svg"
   xmlns:sodipodi="http://sodipodi.sourceforge.net/DTD/sodipodi-0.dtd"
   xmlns:inkscape="http://www.inkscape.org/namespaces/inkscape"
   version="1.1"
   x="0px"
   y="0px"
   width="266.603px"
   height="74.102px"
   viewBox="0 0 266.603 74.102"
   enable-background="new 0 0 266.603 74.102"
   xml:space="preserve"
   id="svg2"
   inkscape:version="0.48.4 r9939"
   sodipodi:docname="logoArgeda.svg"><metadata
     id="metadata102"><rdf:RDF><cc:Work
         rdf:about=""><dc:format>image/svg+xml</dc:format><dc:type
           rdf:resource="http://purl.org/dc/dcmitype/StillImage" /></cc:Work></rdf:RDF></metadata><defs
     id="defs100" /><sodipodi:namedview
     pagecolor="#ffffff"
     bordercolor="#666666"
     borderopacity="1"
     objecttolerance="10"
     gridtolerance="10"
     guidetolerance="10"
     inkscape:pageopacity="0"
     inkscape:pageshadow="2"
     inkscape:window-width="1871"
     inkscape:window-height="1056"
     id="namedview98"
     showgrid="false"
     inkscape:zoom="3.0978674"
     inkscape:cx="185.7857"
     inkscape:cy="-9.4213399"
     inkscape:window-x="49"
     inkscape:window-y="24"
     inkscape:window-maximized="1"
     inkscape:current-layer="Menu" /><g
     id="Footer" /><g
     id="Cont2_Services" /><g
     id="Cont1_WHY_x3F_" /><g
     id="Slider" /><g
     id="Menu"><path
       style="fill:#b31e23;fill-rule:evenodd"
       inkscape:connector-curvature="0"
       id="path11"
       d="M 7.249,52.109 H 52.202 V 7.045 L 7.249,52.109 z M 3.698,0 h 51.496 c 1.861,0 3.382,1.522 3.382,3.382 v 51.609 c 0,1.859 -1.521,3.38 -3.382,3.38 H 3.698 c -1.86,0 -3.382,-1.521 -3.382,-3.38 V 3.382 C 0.316,1.522 1.838,0 3.698,0 z"
       clip-rule="evenodd" /><g
       id="g13"><path
         style="fill:#b31e23"
         inkscape:connector-curvature="0"
         id="path15"
         d="m 72.341,17.861 h 6.885 c 3.838,0 6.439,0.156 7.802,0.468 2.053,0.468 3.721,1.47 5.006,3.005 1.284,1.536 1.927,3.426 1.927,5.671 0,1.871 -0.444,3.516 -1.328,4.935 -0.885,1.418 -2.151,2.49 -3.794,3.214 -1.645,0.726 -3.917,1.096 -6.814,1.111 L 94.456,52.217 H 90.18 L 77.749,36.265 H 75.796 V 52.217 H 72.341 V 17.861 z m 3.455,3.363 v 11.678 l 5.955,0.047 c 2.307,0 4.013,-0.218 5.119,-0.654 1.107,-0.436 1.97,-1.132 2.589,-2.09 0.622,-0.959 0.93,-2.029 0.93,-3.211 0,-1.152 -0.315,-2.199 -0.941,-3.143 -0.629,-0.941 -1.452,-1.614 -2.472,-2.02 -1.019,-0.404 -2.714,-0.607 -5.083,-0.607 h -6.097 z" /><path
         style="fill:#b31e23"
         inkscape:connector-curvature="0"
         id="path17"
         d="m 140.966,23.629 -2.679,2.522 c -1.927,-1.884 -4.039,-3.313 -6.334,-4.286 -2.294,-0.973 -4.53,-1.46 -6.708,-1.46 -2.71,0 -5.291,0.663 -7.744,1.985 -2.452,1.323 -4.351,3.118 -5.699,5.383 -1.346,2.266 -2.02,4.66 -2.02,7.182 0,2.585 0.698,5.041 2.092,7.369 1.393,2.327 3.319,4.157 5.781,5.488 2.459,1.331 5.154,1.996 8.083,1.996 3.556,0 6.566,-0.996 9.024,-2.989 2.46,-1.993 3.916,-4.577 4.372,-7.754 H 128.112 V 35.75 h 14.899 c -0.033,5.31 -1.617,9.525 -4.759,12.648 -3.141,3.121 -7.343,4.683 -12.608,4.683 -6.391,0 -11.451,-2.165 -15.179,-6.494 -2.868,-3.331 -4.301,-7.185 -4.301,-11.561 0,-3.252 0.821,-6.282 2.467,-9.084 1.645,-2.803 3.901,-4.993 6.767,-6.573 2.868,-1.581 6.111,-2.372 9.73,-2.372 2.93,0 5.687,0.526 8.272,1.577 2.583,1.05 5.105,2.736 7.566,5.055 z" /><path
         style="fill:#b31e23"
         inkscape:connector-curvature="0"
         id="path19"
         d="m 155.869,17.861 h 19.81 v 3.363 H 159.323 V 31.99 h 16.215 v 3.364 h -16.215 v 13.499 h 16.215 v 3.364 H 155.869 V 17.861 z" /><path
         style="fill:#b31e23"
         inkscape:connector-curvature="0"
         id="path21"
         d="M 187.905,52.216 V 17.861 h 7.167 c 5.17,0 8.923,0.413 11.256,1.238 3.353,1.168 5.973,3.192 7.862,6.072 1.887,2.881 2.831,6.314 2.831,10.3 0,3.441 -0.748,6.47 -2.245,9.085 -1.496,2.616 -3.439,4.547 -5.827,5.793 -2.389,1.245 -5.739,1.868 -10.048,1.868 h -10.996 z m 3.314,-3.246 h 3.997 c 4.777,0 8.091,-0.295 9.939,-0.887 2.6,-0.839 4.645,-2.353 6.134,-4.538 1.488,-2.187 2.231,-4.859 2.231,-8.016 0,-3.314 -0.806,-6.145 -2.42,-8.494 -1.614,-2.35 -3.862,-3.959 -6.744,-4.831 -2.163,-0.653 -5.728,-0.981 -10.693,-0.981 h -2.445 V 48.97 z" /></g><polygon
       style="fill:#b31e23;fill-rule:evenodd"
       id="polygon23"
       points="230.505,52.656 230.505,17.208 265.953,52.656 "
       clip-rule="evenodd" /><g
       id="g25"
       style="fill:#000000"><path
         style="fill:#000000"
         inkscape:connector-curvature="0"
         id="path27"
         d="M 0,72.924 0.385,72.45 c 0.448,0.55 1.176,1.069 2.164,1.069 1.425,0 1.83,-0.838 1.83,-1.465 0,-2.157 -4.16,-1.034 -4.16,-3.599 0,-1.2 1.02,-1.959 2.277,-1.959 1.041,0 1.81,0.385 2.351,1.035 l -0.395,0.462 c -0.5,-0.639 -1.207,-0.925 -1.987,-0.925 -0.927,0 -1.623,0.562 -1.623,1.354 0,1.882 4.16,0.847 4.16,3.589 0,0.946 -0.593,2.079 -2.465,2.079 C 1.394,74.089 0.531,73.606 0,72.924 z" /><path
         style="fill:#000000"
         inkscape:connector-curvature="0"
         id="path29"
         d="m 7.629,73.958 v -7.342 h 4.399 v 0.572 H 8.221 v 2.72 h 3.735 V 70.48 H 8.221 v 2.906 h 3.807 v 0.572 H 7.629 z" /><path
         style="fill:#000000"
         inkscape:connector-curvature="0"
         id="path31"
         d="M 18.762,73.958 16.817,70.92 h -1.529 v 3.038 h -0.594 v -7.342 h 2.59 c 1.197,0 2.112,0.803 2.112,2.146 0,1.333 -0.894,2.069 -1.924,2.113 l 2.007,3.083 h -0.717 z m 0.011,-5.196 c 0,-0.924 -0.624,-1.574 -1.539,-1.574 h -1.945 v 3.16 h 1.945 c 0.914,0 1.539,-0.661 1.539,-1.586 z" /><path
         style="fill:#000000"
         inkscape:connector-curvature="0"
         id="path33"
         d="m 24.206,73.958 -2.839,-7.342 h 0.687 l 2.518,6.637 2.527,-6.637 h 0.688 l -2.84,7.342 h -0.741 z" /><path
         style="fill:#000000"
         inkscape:connector-curvature="0"
         id="path35"
         d="m 30.005,73.958 v -7.342 h 0.593 v 7.342 h -0.593 z" /><path
         style="fill:#000000"
         inkscape:connector-curvature="0"
         id="path37"
         d="m 33.263,70.292 c 0,-2.255 1.55,-3.797 3.516,-3.797 1.103,0 1.936,0.517 2.528,1.298 l -0.5,0.342 c -0.436,-0.639 -1.196,-1.068 -2.028,-1.068 -1.633,0 -2.891,1.31 -2.891,3.225 0,1.894 1.259,3.227 2.891,3.227 0.833,0 1.592,-0.431 2.028,-1.069 l 0.5,0.331 c -0.613,0.802 -1.425,1.309 -2.528,1.309 -1.966,-0.001 -3.516,-1.541 -3.516,-3.798 z" /><path
         style="fill:#000000"
         inkscape:connector-curvature="0"
         id="path39"
         d="m 41.714,73.958 v -7.342 h 4.4 v 0.572 h -3.807 v 2.72 h 3.735 v 0.572 h -3.735 v 2.906 h 3.807 v 0.572 h -4.4 z" /><path
         style="fill:#000000"
         inkscape:connector-curvature="0"
         id="path41"
         d="m 57.261,73.958 c -0.238,-0.22 -0.562,-0.539 -0.884,-0.88 -0.5,0.595 -1.155,1.012 -2.038,1.012 -1.145,0 -2.092,-0.682 -2.092,-2.002 0,-1.167 0.739,-1.75 1.55,-2.223 -0.344,-0.572 -0.572,-1.157 -0.572,-1.685 0,-0.969 0.738,-1.673 1.655,-1.673 0.852,0 1.456,0.495 1.456,1.388 0,1.1 -0.906,1.584 -1.799,2.091 0.302,0.451 0.645,0.859 0.894,1.155 0.323,0.386 0.625,0.749 0.927,1.079 0.414,-0.66 0.676,-1.388 0.79,-1.784 l 0.5,0.22 c -0.219,0.584 -0.5,1.321 -0.917,1.959 0.406,0.44 0.833,0.859 1.343,1.343 h -0.813 z m -1.238,-1.266 c -0.426,-0.462 -0.832,-0.914 -1.04,-1.177 -0.302,-0.375 -0.635,-0.793 -0.927,-1.233 -0.666,0.407 -1.207,0.902 -1.207,1.772 0,1.002 0.728,1.529 1.529,1.529 0.678,0 1.219,-0.374 1.645,-0.891 z m -1.737,-3.104 c 0.791,-0.441 1.508,-0.847 1.508,-1.673 0,-0.605 -0.396,-0.925 -0.905,-0.925 -0.593,0 -1.082,0.495 -1.082,1.2 10e-4,0.429 0.198,0.924 0.479,1.398 z" /><path
         style="fill:#000000"
         inkscape:connector-curvature="0"
         id="path43"
         d="m 64.029,72.924 0.384,-0.474 c 0.448,0.55 1.176,1.069 2.164,1.069 1.425,0 1.831,-0.838 1.831,-1.465 0,-2.157 -4.161,-1.034 -4.161,-3.599 0,-1.2 1.02,-1.959 2.278,-1.959 1.041,0 1.81,0.385 2.351,1.035 l -0.396,0.462 c -0.499,-0.639 -1.206,-0.925 -1.987,-0.925 -0.926,0 -1.623,0.562 -1.623,1.354 0,1.882 4.16,0.847 4.16,3.589 0,0.946 -0.592,2.079 -2.464,2.079 -1.143,-0.001 -2.006,-0.484 -2.537,-1.166 z" /><path
         style="fill:#000000"
         inkscape:connector-curvature="0"
         id="path45"
         d="m 71.397,70.292 c 0,-2.146 1.332,-3.797 3.37,-3.797 2.029,0 3.371,1.651 3.371,3.797 0,2.146 -1.343,3.797 -3.371,3.797 -2.038,0 -3.37,-1.651 -3.37,-3.797 z m 6.116,0 c 0,-1.871 -1.082,-3.225 -2.746,-3.225 -1.686,0 -2.746,1.354 -2.746,3.225 0,1.85 1.06,3.227 2.746,3.227 1.664,0 2.746,-1.377 2.746,-3.227 z" /><path
         style="fill:#000000"
         inkscape:connector-curvature="0"
         id="path47"
         d="m 80.805,73.958 v -7.342 h 0.594 v 6.77 h 3.36 v 0.572 h -3.954 z" /><path
         style="fill:#000000"
         inkscape:connector-curvature="0"
         id="path49"
         d="m 87.248,71.14 v -4.524 h 0.604 v 4.514 c 0,1.485 0.738,2.389 2.101,2.389 1.374,0 2.103,-0.904 2.103,-2.389 v -4.514 h 0.601 v 4.524 c 0,1.817 -0.914,2.95 -2.704,2.95 -1.779,-0.001 -2.705,-1.145 -2.705,-2.95 z" /><path
         style="fill:#000000"
         inkscape:connector-curvature="0"
         id="path51"
         d="m 97.353,73.958 v -6.77 h -2.267 v -0.572 h 5.139 v 0.572 h -2.267 v 6.77 h -0.605 z" /><path
         style="fill:#000000"
         inkscape:connector-curvature="0"
         id="path53"
         d="m 102.652,73.958 v -7.342 h 0.594 v 7.342 h -0.594 z" /><path
         style="fill:#000000"
         inkscape:connector-curvature="0"
         id="path55"
         d="m 105.91,70.292 c 0,-2.146 1.332,-3.797 3.37,-3.797 2.028,0 3.37,1.651 3.37,3.797 0,2.146 -1.342,3.797 -3.37,3.797 -2.038,0 -3.37,-1.651 -3.37,-3.797 z m 6.116,0 c 0,-1.871 -1.082,-3.225 -2.746,-3.225 -1.686,0 -2.746,1.354 -2.746,3.225 0,1.85 1.061,3.227 2.746,3.227 1.664,0 2.746,-1.377 2.746,-3.227 z" /><path
         style="fill:#000000"
         inkscape:connector-curvature="0"
         id="path57"
         d="m 120.28,73.958 -4.369,-6.307 v 6.307 h -0.594 v -7.342 h 0.605 l 4.348,6.219 v -6.219 h 0.594 v 7.342 h -0.584 z" /><path
         style="fill:#000000"
         inkscape:connector-curvature="0"
         id="path59"
         d="m 123.406,72.924 0.385,-0.474 c 0.448,0.55 1.176,1.069 2.165,1.069 1.425,0 1.83,-0.838 1.83,-1.465 0,-2.157 -4.162,-1.034 -4.162,-3.599 0,-1.2 1.021,-1.959 2.278,-1.959 1.041,0 1.811,0.385 2.352,1.035 l -0.396,0.462 c -0.499,-0.639 -1.207,-0.925 -1.987,-0.925 -0.927,0 -1.622,0.562 -1.622,1.354 0,1.882 4.16,0.847 4.16,3.589 0,0.946 -0.592,2.079 -2.465,2.079 -1.144,-0.001 -2.007,-0.484 -2.538,-1.166 z" /><path
         style="fill:#000000"
         inkscape:connector-curvature="0"
         id="path61"
         d="m 134.927,73.958 v -7.342 h 2.217 c 2.152,0 3.505,1.662 3.505,3.676 0,2.036 -1.352,3.666 -3.505,3.666 h -2.217 z m 5.098,-3.666 c 0,-1.718 -1.042,-3.104 -2.882,-3.104 h -1.623 v 6.198 h 1.623 c 1.831,0 2.882,-1.376 2.882,-3.094 z" /><path
         style="fill:#000000"
         inkscape:connector-curvature="0"
         id="path63"
         d="m 143.326,73.958 v -7.342 h 4.401 v 0.572 h -3.808 v 2.72 h 3.735 v 0.572 h -3.735 v 2.906 h 3.808 v 0.572 h -4.401 z" /><path
         style="fill:#000000"
         inkscape:connector-curvature="0"
         id="path65"
         d="m 150.007,72.924 0.384,-0.474 c 0.448,0.55 1.176,1.069 2.165,1.069 1.425,0 1.83,-0.838 1.83,-1.465 0,-2.157 -4.162,-1.034 -4.162,-3.599 0,-1.2 1.021,-1.959 2.279,-1.959 1.041,0 1.81,0.385 2.351,1.035 l -0.396,0.462 c -0.498,-0.639 -1.205,-0.925 -1.987,-0.925 -0.926,0 -1.622,0.562 -1.622,1.354 0,1.882 4.161,0.847 4.161,3.589 0,0.946 -0.594,2.079 -2.466,2.079 -1.141,-0.001 -2.006,-0.484 -2.537,-1.166 z" /><path
         style="fill:#000000"
         inkscape:connector-curvature="0"
         id="path67"
         d="m 157.636,73.958 v -7.342 h 0.594 v 7.342 h -0.594 z" /><path
         style="fill:#000000"
         inkscape:connector-curvature="0"
         id="path69"
         d="m 160.894,70.292 c 0,-2.266 1.571,-3.797 3.516,-3.797 1.145,0 1.977,0.484 2.611,1.255 l -0.448,0.34 c -0.487,-0.616 -1.278,-1.023 -2.163,-1.023 -1.632,0 -2.891,1.31 -2.891,3.225 0,1.894 1.259,3.237 2.891,3.237 0.927,0 1.655,-0.484 2.039,-0.892 v -1.762 h -2.621 v -0.561 h 3.213 v 2.565 c -0.614,0.727 -1.539,1.222 -2.632,1.222 -1.944,0.001 -3.515,-1.541 -3.515,-3.809 z" /><path
         style="fill:#000000"
         inkscape:connector-curvature="0"
         id="path71"
         d="m 174.713,73.958 -4.369,-6.307 v 6.307 h -0.593 v -7.342 h 0.602 l 4.349,6.219 v -6.219 h 0.594 v 7.342 h -0.583 z" /><path
         style="fill:#000000"
         inkscape:connector-curvature="0"
         id="path73"
         d="m 178.223,73.958 v -7.342 h 0.592 v 7.342 h -0.592 z" /><path
         style="fill:#000000"
         inkscape:connector-curvature="0"
         id="path75"
         d="m 186.703,73.958 -4.369,-6.307 v 6.307 h -0.593 v -7.342 h 0.604 l 4.348,6.219 v -6.219 h 0.592 v 7.342 h -0.582 z" /><path
         style="fill:#000000"
         inkscape:connector-curvature="0"
         id="path77"
         d="m 189.952,70.292 c 0,-2.266 1.571,-3.797 3.517,-3.797 1.145,0 1.976,0.484 2.611,1.255 l -0.448,0.34 c -0.489,-0.616 -1.28,-1.023 -2.163,-1.023 -1.634,0 -2.893,1.31 -2.893,3.225 0,1.894 1.259,3.237 2.893,3.237 0.925,0 1.654,-0.484 2.038,-0.892 v -1.762 h -2.622 v -0.561 h 3.215 v 2.565 c -0.614,0.727 -1.539,1.222 -2.631,1.222 -1.946,0.001 -3.517,-1.541 -3.517,-3.809 z" /><path
         style="fill:#000000"
         inkscape:connector-curvature="0"
         id="path79"
         d="m 207.29,73.958 c -0.24,-0.22 -0.562,-0.539 -0.884,-0.88 -0.501,0.595 -1.156,1.012 -2.039,1.012 -1.145,0 -2.091,-0.682 -2.091,-2.002 0,-1.167 0.738,-1.75 1.55,-2.223 -0.344,-0.572 -0.573,-1.157 -0.573,-1.685 0,-0.969 0.738,-1.673 1.655,-1.673 0.853,0 1.456,0.495 1.456,1.388 0,1.1 -0.905,1.584 -1.8,2.091 0.302,0.451 0.645,0.859 0.895,1.155 0.323,0.386 0.624,0.749 0.926,1.079 0.416,-0.66 0.677,-1.388 0.791,-1.784 l 0.5,0.22 c -0.22,0.584 -0.5,1.321 -0.917,1.959 0.406,0.44 0.833,0.859 1.341,1.343 h -0.81 z m -1.238,-1.266 c -0.426,-0.462 -0.832,-0.914 -1.04,-1.177 -0.302,-0.375 -0.634,-0.793 -0.927,-1.233 -0.665,0.407 -1.205,0.902 -1.205,1.772 0,1.002 0.727,1.529 1.529,1.529 0.675,0 1.216,-0.374 1.643,-0.891 z m -1.737,-3.104 c 0.79,-0.441 1.507,-0.847 1.507,-1.673 0,-0.605 -0.395,-0.925 -0.904,-0.925 -0.594,0 -1.082,0.495 -1.082,1.2 10e-4,0.429 0.198,0.924 0.479,1.398 z" /><path
         style="fill:#000000"
         inkscape:connector-curvature="0"
         id="path81"
         d="m 214.442,73.958 v -7.342 h 2.851 c 1.164,0 1.914,0.716 1.914,1.872 0,0.925 -0.593,1.552 -1.217,1.684 0.738,0.121 1.352,0.936 1.352,1.806 0,1.222 -0.749,1.981 -1.987,1.981 h -2.913 z m 4.141,-5.405 c 0,-0.749 -0.47,-1.365 -1.365,-1.365 h -2.184 v 2.72 h 2.184 c 0.896,0 1.365,-0.595 1.365,-1.355 z m 0.135,3.379 c 0,-0.749 -0.489,-1.453 -1.457,-1.453 h -2.227 v 2.906 h 2.227 c 0.916,10e-4 1.457,-0.561 1.457,-1.453 z" /><path
         style="fill:#000000"
         inkscape:connector-curvature="0"
         id="path83"
         d="m 222.029,71.14 v -4.524 h 0.604 v 4.514 c 0,1.485 0.739,2.389 2.101,2.389 1.373,0 2.102,-0.904 2.102,-2.389 v -4.514 h 0.602 v 4.524 c 0,1.817 -0.915,2.95 -2.704,2.95 -1.779,-0.001 -2.705,-1.145 -2.705,-2.95 z" /><path
         style="fill:#000000"
         inkscape:connector-curvature="0"
         id="path85"
         d="m 230.365,73.958 v -7.342 h 0.594 v 7.342 h -0.594 z" /><path
         style="fill:#000000"
         inkscape:connector-curvature="0"
         id="path87"
         d="m 233.885,73.958 v -7.342 h 0.593 v 6.77 h 3.36 v 0.572 h -3.953 z" /><path
         style="fill:#000000"
         inkscape:connector-curvature="0"
         id="path89"
         d="m 240.327,73.958 v -7.342 h 2.217 c 2.152,0 3.506,1.662 3.506,3.676 0,2.036 -1.354,3.666 -3.506,3.666 h -2.217 z m 5.098,-3.666 c 0,-1.718 -1.042,-3.104 -2.882,-3.104 h -1.624 v 6.198 h 1.624 c 1.83,0 2.882,-1.376 2.882,-3.094 z" /><path
         style="fill:#000000"
         inkscape:connector-curvature="0"
         id="path91"
         d="m 248.725,73.958 v -7.342 h 0.594 v 7.342 h -0.594 z" /><path
         style="fill:#000000"
         inkscape:connector-curvature="0"
         id="path93"
         d="m 257.207,73.958 -4.37,-6.307 v 6.307 h -0.594 v -7.342 h 0.603 l 4.348,6.219 v -6.219 h 0.594 v 7.342 h -0.581 z" /><path
         style="fill:#000000"
         inkscape:connector-curvature="0"
         id="path95"
         d="m 260.455,70.292 c 0,-2.266 1.57,-3.797 3.517,-3.797 1.145,0 1.976,0.484 2.611,1.255 l -0.448,0.34 c -0.489,-0.616 -1.279,-1.023 -2.163,-1.023 -1.634,0 -2.892,1.31 -2.892,3.225 0,1.894 1.259,3.237 2.892,3.237 0.927,0 1.654,-0.484 2.038,-0.892 v -1.762 h -2.622 v -0.561 h 3.215 v 2.565 c -0.613,0.727 -1.54,1.222 -2.632,1.222 -1.946,0.001 -3.516,-1.541 -3.516,-3.809 z" /></g></g><g
     id="Guides" /></svg>