<?xml version="1.0" encoding="UTF-8" standalone="no"?>
<!-- Generator: Adobe Illustrator 16.0.0, SVG Export Plug-In . SVG Version: 6.00 Build 0)  -->

<svg
   xmlns:dc="http://purl.org/dc/elements/1.1/"
   xmlns:cc="http://creativecommons.org/ns#"
   xmlns:rdf="http://www.w3.org/1999/02/22-rdf-syntax-ns#"
   xmlns:svg="http://www.w3.org/2000/svg"
   xmlns="http://www.w3.org/2000/svg"
   xmlns:sodipodi="http://sodipodi.sourceforge.net/DTD/sodipodi-0.dtd"
   xmlns:inkscape="http://www.inkscape.org/namespaces/inkscape"
   version="1.1"
   x="0px"
   y="0px"
   width="266.603"
   height="60"
   viewBox="0 0 266.603 60.000002"
   enable-background="new 0 0 266.603 74.102"
   xml:space="preserve"
   id="svg2"
   inkscape:version="0.48.4 r9939"
   sodipodi:docname="logoArgeda.svg"><metadata
     id="metadata102"><rdf:RDF><cc:Work
         rdf:about=""><dc:format>image/svg+xml</dc:format><dc:type
           rdf:resource="http://purl.org/dc/dcmitype/StillImage" /><dc:title></dc:title></cc:Work></rdf:RDF></metadata><defs
     id="defs100" /><sodipodi:namedview
     pagecolor="#ffffff"
     bordercolor="#666666"
     borderopacity="1"
     objecttolerance="10"
     gridtolerance="10"
     guidetolerance="10"
     inkscape:pageopacity="0"
     inkscape:pageshadow="2"
     inkscape:window-width="1871"
     inkscape:window-height="1056"
     id="namedview98"
     showgrid="false"
     inkscape:zoom="3.0978674"
     inkscape:cx="185.7857"
     inkscape:cy="-9.4213399"
     inkscape:window-x="49"
     inkscape:window-y="24"
     inkscape:window-maximized="1"
     inkscape:current-layer="svg2" /><g
     id="Footer"
     transform="translate(0,-14.101998)" /><g
     id="Cont2_Services"
     transform="translate(0,-14.101998)" /><g
     id="Cont1_WHY_x3F_"
     transform="translate(0,-14.101998)" /><g
     id="Slider"
     transform="translate(0,-14.101998)" /><g
     id="Menu"
     transform="translate(0,0.92959433)"><path
       style="fill:#b31e23;fill-rule:evenodd"
       inkscape:connector-curvature="0"
       id="path11"
       d="M 7.249,52.109 H 52.202 V 7.045 L 7.249,52.109 z M 3.698,0 h 51.496 c 1.861,0 3.382,1.522 3.382,3.382 v 51.609 c 0,1.859 -1.521,3.38 -3.382,3.38 H 3.698 c -1.86,0 -3.382,-1.521 -3.382,-3.38 V 3.382 C 0.316,1.522 1.838,0 3.698,0 z"
       clip-rule="evenodd" /><g
       id="g13"><path
         style="fill:#b31e23"
         inkscape:connector-curvature="0"
         id="path15"
         d="m 72.341,17.861 h 6.885 c 3.838,0 6.439,0.156 7.802,0.468 2.053,0.468 3.721,1.47 5.006,3.005 1.284,1.536 1.927,3.426 1.927,5.671 0,1.871 -0.444,3.516 -1.328,4.935 -0.885,1.418 -2.151,2.49 -3.794,3.214 -1.645,0.726 -3.917,1.096 -6.814,1.111 L 94.456,52.217 H 90.18 L 77.749,36.265 H 75.796 V 52.217 H 72.341 V 17.861 z m 3.455,3.363 v 11.678 l 5.955,0.047 c 2.307,0 4.013,-0.218 5.119,-0.654 1.107,-0.436 1.97,-1.132 2.589,-2.09 0.622,-0.959 0.93,-2.029 0.93,-3.211 0,-1.152 -0.315,-2.199 -0.941,-3.143 -0.629,-0.941 -1.452,-1.614 -2.472,-2.02 -1.019,-0.404 -2.714,-0.607 -5.083,-0.607 h -6.097 z" /><path
         style="fill:#b31e23"
         inkscape:connector-curvature="0"
         id="path17"
         d="m 140.966,23.629 -2.679,2.522 c -1.927,-1.884 -4.039,-3.313 -6.334,-4.286 -2.294,-0.973 -4.53,-1.46 -6.708,-1.46 -2.71,0 -5.291,0.663 -7.744,1.985 -2.452,1.323 -4.351,3.118 -5.699,5.383 -1.346,2.266 -2.02,4.66 -2.02,7.182 0,2.585 0.698,5.041 2.092,7.369 1.393,2.327 3.319,4.157 5.781,5.488 2.459,1.331 5.154,1.996 8.083,1.996 3.556,0 6.566,-0.996 9.024,-2.989 2.46,-1.993 3.916,-4.577 4.372,-7.754 H 128.112 V 35.75 h 14.899 c -0.033,5.31 -1.617,9.525 -4.759,12.648 -3.141,3.121 -7.343,4.683 -12.608,4.683 -6.391,0 -11.451,-2.165 -15.179,-6.494 -2.868,-3.331 -4.301,-7.185 -4.301,-11.561 0,-3.252 0.821,-6.282 2.467,-9.084 1.645,-2.803 3.901,-4.993 6.767,-6.573 2.868,-1.581 6.111,-2.372 9.73,-2.372 2.93,0 5.687,0.526 8.272,1.577 2.583,1.05 5.105,2.736 7.566,5.055 z" /><path
         style="fill:#b31e23"
         inkscape:connector-curvature="0"
         id="path19"
         d="m 155.869,17.861 h 19.81 v 3.363 H 159.323 V 31.99 h 16.215 v 3.364 h -16.215 v 13.499 h 16.215 v 3.364 H 155.869 V 17.861 z" /><path
         style="fill:#b31e23"
         inkscape:connector-curvature="0"
         id="path21"
         d="M 187.905,52.216 V 17.861 h 7.167 c 5.17,0 8.923,0.413 11.256,1.238 3.353,1.168 5.973,3.192 7.862,6.072 1.887,2.881 2.831,6.314 2.831,10.3 0,3.441 -0.748,6.47 -2.245,9.085 -1.496,2.616 -3.439,4.547 -5.827,5.793 -2.389,1.245 -5.739,1.868 -10.048,1.868 h -10.996 z m 3.314,-3.246 h 3.997 c 4.777,0 8.091,-0.295 9.939,-0.887 2.6,-0.839 4.645,-2.353 6.134,-4.538 1.488,-2.187 2.231,-4.859 2.231,-8.016 0,-3.314 -0.806,-6.145 -2.42,-8.494 -1.614,-2.35 -3.862,-3.959 -6.744,-4.831 -2.163,-0.653 -5.728,-0.981 -10.693,-0.981 h -2.445 V 48.97 z" /></g><polygon
       style="fill:#b31e23;fill-rule:evenodd"
       id="polygon23"
       points="230.505,52.656 230.505,17.208 265.953,52.656 "
       clip-rule="evenodd" /></g><g
     id="Guides"
     transform="translate(0,-14.101998)" /></svg>