<?xml version="1.0" encoding="utf-8"?>
<!-- Generator: Adobe Illustrator 16.0.0, SVG Export Plug-In . SVG Version: 6.00 Build 0)  -->
<!DOCTYPE svg PUBLIC "-//W3C//DTD SVG 1.1//EN" "http://www.w3.org/Graphics/SVG/1.1/DTD/svg11.dtd">
<svg version="1.1" id="Layer_1" xmlns="http://www.w3.org/2000/svg" xmlns:xlink="http://www.w3.org/1999/xlink" x="0px" y="0px"
	 viewBox="0 0 500 500" enable-background="new 0 0 500 500" xml:space="preserve">
<g>
	<g>
		<g>
			<path fill="#FFFFFF" d="M170.314,295.35l-1.442,0.674c-0.134-0.559-0.456-1.012-0.968-1.359c-0.51-0.346-1.07-0.52-1.678-0.52
				c-0.45,0-0.846,0.088-1.187,0.266c-0.341,0.176-0.62,0.465-0.839,0.867c-0.146,0.328-0.219,0.662-0.219,1.002
				c0,0.816,0.383,1.43,1.149,1.844l3.468,1.277c0.631,0.352,1.114,0.828,1.449,1.428c0.335,0.602,0.502,1.242,0.502,1.922
				c0,0.582-0.119,1.141-0.355,1.674c-0.238,0.535-0.594,1.008-1.068,1.42c-0.851,0.594-1.805,0.893-2.864,0.893
				c-0.948,0-1.818-0.238-2.61-0.713c-0.424-0.316-0.75-0.672-0.975-1.066c-0.227-0.395-0.43-0.91-0.612-1.543l1.479-0.748
				c0,0.768,0.272,1.406,0.82,1.916c0.547,0.512,1.191,0.768,1.934,0.768c0.293,0,0.58-0.047,0.867-0.137
				c0.285-0.092,0.566-0.24,0.839-0.445c0.274-0.205,0.493-0.484,0.657-0.836s0.247-0.723,0.247-1.109
				c0-0.582-0.131-1.012-0.393-1.291c-0.262-0.277-0.468-0.467-0.62-0.563c-0.152-0.098-0.46-0.25-0.922-0.455l-2.336-0.822
				c-0.693-0.328-1.252-0.775-1.679-1.34c-0.427-0.566-0.638-1.209-0.638-1.926c0-0.182,0.045-0.514,0.136-0.994
				c0.092-0.48,0.381-0.988,0.867-1.523c0.485-0.535,1.019-0.861,1.597-0.977c0.577-0.115,1.092-0.172,1.542-0.172
				c0.194,0,0.347,0.006,0.456,0.018s0.393,0.064,0.848,0.154c0.457,0.092,0.943,0.355,1.46,0.795
				C169.744,294.164,170.106,294.705,170.314,295.35z"/>
			<path fill="#FFFFFF" d="M198.433,294.42h-3.888v12.078h-1.678V294.42h-3.887v-1.424h9.452V294.42z"/>
			<path fill="#FFFFFF" d="M226.66,292.996l-0.037,9.195c0,0.805-0.225,1.572-0.674,2.309s-1.034,1.293-1.752,1.67
				c-0.998,0.449-2.032,0.676-3.102,0.676c-1.07,0-2.031-0.238-2.884-0.713c-0.851-0.475-1.417-1.029-1.696-1.67
				c-0.28-0.637-0.46-1.121-0.539-1.449c-0.079-0.33-0.118-0.627-0.118-0.895v-9.123h1.624v9.123
				c0.085,0.633,0.268,1.201,0.547,1.707c0.281,0.504,0.682,0.885,1.205,1.141c0.682,0.291,1.369,0.438,2.062,0.438
				c0.548,0,1.052-0.088,1.515-0.266c0.462-0.176,0.854-0.447,1.178-0.813c0.321-0.365,0.571-0.727,0.748-1.084
				c0.176-0.359,0.264-0.734,0.264-1.123v-0.146v-8.977H226.66z"/>
			<path fill="#FFFFFF" d="M251.459,305.75c-0.475,0.232-0.949,0.414-1.424,0.549c-0.475,0.133-0.942,0.199-1.405,0.199h-5.108
				v-13.502h5.748c1.715,0.17,3.071,0.928,4.068,2.271s1.496,2.881,1.496,4.607c0,1.277-0.279,2.439-0.84,3.486
				C253.436,304.406,252.59,305.203,251.459,305.75z M253.046,298.871c-0.098-1.059-0.508-1.994-1.231-2.811
				c-0.724-0.814-1.609-1.338-2.655-1.568h-4.05v10.547h3.484c1.375,0,2.469-0.549,3.285-1.643c0.813-1.096,1.222-2.342,1.222-3.74
				C253.101,299.389,253.082,299.127,253.046,298.871z"/>
			<path fill="#FFFFFF" d="M276.603,306.498h-1.587v-13.502h1.587V306.498z"/>
			<path fill="#FFFFFF" d="M310.688,299.646c0,1.998-0.703,3.701-2.107,5.105c-1.405,1.408-3.104,2.111-5.101,2.111
				c-2.019,0-3.756-0.68-5.209-2.037c-1.454-1.357-2.181-3.023-2.181-4.998c0-1.996,0.702-3.697,2.107-5.105
				c1.405-1.406,3.105-2.111,5.1-2.111c2.02,0,3.757,0.68,5.21,2.039C309.96,296.008,310.688,297.674,310.688,299.646z
				 M309.009,299.611c0-1.549-0.56-2.857-1.679-3.932c-1.119-1.07-2.463-1.607-4.033-1.607c-1.545,0-2.852,0.561-3.923,1.682
				c-1.07,1.121-1.604,2.467-1.604,4.039c0,1.547,0.556,2.854,1.668,3.92c1.114,1.066,2.461,1.6,4.042,1.6
				c1.546,0,2.854-0.561,3.924-1.682C308.473,302.51,309.009,301.17,309.009,299.611z"/>
			<path fill="#FFFFFF" d="M334.537,295.35l-1.442,0.674c-0.134-0.559-0.455-1.012-0.967-1.359c-0.511-0.346-1.071-0.52-1.679-0.52
				c-0.45,0-0.846,0.088-1.187,0.266c-0.341,0.176-0.62,0.465-0.84,0.867c-0.146,0.328-0.218,0.662-0.218,1.002
				c0,0.816,0.383,1.43,1.149,1.844l3.467,1.277c0.632,0.352,1.115,0.828,1.451,1.428c0.334,0.602,0.502,1.242,0.502,1.922
				c0,0.582-0.119,1.141-0.356,1.674c-0.237,0.535-0.593,1.008-1.067,1.42c-0.852,0.594-1.807,0.893-2.865,0.893
				c-0.948,0-1.818-0.238-2.609-0.713c-0.425-0.316-0.751-0.672-0.976-1.066c-0.226-0.395-0.43-0.91-0.612-1.543l1.479-0.748
				c0,0.768,0.272,1.406,0.82,1.916c0.548,0.512,1.191,0.768,1.935,0.768c0.292,0,0.58-0.047,0.867-0.137
				c0.284-0.092,0.565-0.24,0.838-0.445c0.274-0.205,0.493-0.484,0.657-0.836c0.165-0.352,0.247-0.723,0.247-1.109
				c0-0.582-0.131-1.012-0.393-1.291c-0.262-0.277-0.468-0.467-0.62-0.563c-0.152-0.098-0.46-0.25-0.922-0.455l-2.335-0.822
				c-0.694-0.328-1.253-0.775-1.68-1.34c-0.426-0.566-0.638-1.209-0.638-1.926c0-0.182,0.045-0.514,0.136-0.994
				c0.092-0.48,0.381-0.988,0.867-1.523s1.019-0.861,1.597-0.977c0.577-0.115,1.092-0.172,1.542-0.172
				c0.194,0,0.347,0.006,0.456,0.018s0.393,0.064,0.848,0.154c0.457,0.092,0.943,0.355,1.46,0.795
				C333.967,294.164,334.329,294.705,334.537,295.35z"/>
		</g>
	</g>
	<path fill="none" stroke="#FFFFFF" stroke-width="5" stroke-miterlimit="10" d="M37.332,259.875
		c0-119.156,96.6-215.751,215.742-215.751c119.158,0,215.758,96.596,215.758,215.751c0,119.15-96.6,215.744-215.758,215.744
		C133.932,475.619,37.332,379.025,37.332,259.875z"/>
	<line fill="#FFFFFF" x1="101.129" y1="284.533" x2="405.037" y2="284.533"/>
	<path fill-rule="evenodd" clip-rule="evenodd" fill="#FFFFFF" d="M291.075,405.482c0,0-1.787-19.188-2.665-25.555
		c-1.11-8.088-5.511-32.193-5.511-32.193s-1.44-7.117-7.559-11.582c-7.195-5.246-14.953-6.137-20.239-6.197l-0.049,3.623
		l0.029-3.623c-5.293-0.051-13.059,0.676-20.367,5.762c-6.22,4.346-7.801,11.42-7.801,11.42s-4.909,24.016-6.197,32.074
		c-1.01,6.344-3.191,25.496-3.191,25.496s-1.734,15.508,13.033,27.822c9.688,8.07,21.221,8.242,23.3,8.205
		c1.704,0.08,13.522,0.324,23.588-7.711C292.471,421.025,291.075,405.482,291.075,405.482z M248.271,342.609
		c7.983-3.463,17.266,0.197,20.734,8.186c3.469,7.986-0.197,17.264-8.181,20.732c-7.988,3.469-17.27-0.199-20.736-8.182
		C236.621,355.361,240.285,346.074,248.271,342.609z M260.483,434.537l-6.743-0.07l-6.863-0.076
		c-12.521-0.129-22.549-11.781-22.399-26.021c0.156-14.24,10.757-20.932,23.277-20.795l13.6,0.139
		c12.514,0.135,22.224,7.037,22.065,21.285C283.275,423.232,273.002,434.666,260.483,434.537z"/>
	<g>
		<g>
			<path fill="#FFFFFF" d="M125.683,236.997v4.418h-3.352v-4.646c0-5.713-2.209-10.055-8.074-10.055s-8.074,4.342-8.074,10.055
				v27.726c0,5.713,2.209,9.979,8.074,9.979s8.074-4.266,8.074-9.979v-6.322h3.352v6.094c0,7.693-3.352,13.482-11.502,13.482
				s-11.502-5.789-11.502-13.482v-27.269c0-7.693,3.352-13.482,11.502-13.482S125.683,229.303,125.683,236.997z"/>
			<path fill="#FFFFFF" d="M136.5,265.484l-2.666,11.807h-3.199l11.654-53.396h5.104l11.883,53.396h-3.504l-2.666-11.807H136.5z
				 M137.033,262.438h15.539l-7.846-34.505L137.033,262.438z"/>
			<path fill="#FFFFFF" d="M167.809,277.291h-3.199v-53.32h4.57l15.996,45.017v-45.017h3.199v53.32h-3.885l-16.682-47.531V277.291z"
				/>
			<path fill="#FFFFFF" d="M197.593,277.291h-3.199v-53.32h4.57l15.996,45.017v-45.017h3.199v53.32h-3.885l-16.682-47.531V277.291z"
				/>
			<path fill="#FFFFFF" d="M242.231,248.651v3.199h-14.549v22.242h17.52v3.199h-21.023v-53.32h21.023v3.199h-17.52v21.48H242.231z"
				/>
			<path fill="#FFFFFF" d="M262.646,223.971c8.227,0,11.807,5.408,11.807,13.254v26.812c0,7.846-3.58,13.254-11.807,13.254h-11.73
				v-53.32H262.646z M262.57,274.092c5.941,0,8.379-4.037,8.379-9.902v-27.117c0-5.865-2.514-9.902-8.379-9.902h-8.15v46.921H262.57
				z"/>
			<path fill="#FFFFFF" d="M295.556,252.23v25.061h-3.504v-53.32h3.504v25.061h16.605v-25.061h3.58v53.32h-3.58V252.23H295.556z"/>
			<path fill="#FFFFFF" d="M339.889,248.651v3.199H325.34v22.242h17.52v3.199h-21.023v-53.32h21.023v3.199h-17.52v21.48H339.889z"/>
			<path fill="#FFFFFF" d="M353.678,265.484l-2.666,11.807h-3.199l11.654-53.396h5.104l11.883,53.396h-3.504l-2.666-11.807H353.678z
				 M354.211,262.438h15.539l-7.846-34.505L354.211,262.438z"/>
			<path fill="#FFFFFF" d="M393.517,223.971c8.227,0,11.807,5.408,11.807,13.254v26.812c0,7.846-3.58,13.254-11.807,13.254h-11.73
				v-53.32H393.517z M393.44,274.092c5.941,0,8.379-4.037,8.379-9.902v-27.117c0-5.865-2.514-9.902-8.379-9.902h-8.15v46.921H393.44
				z"/>
		</g>
	</g>
</g>
</svg>
