<?xml version="1.0" encoding="UTF-8" standalone="no"?>
<!-- Created with Inkscape (http://www.inkscape.org/) -->

<svg
   xmlns:dc="http://purl.org/dc/elements/1.1/"
   xmlns:cc="http://creativecommons.org/ns#"
   xmlns:rdf="http://www.w3.org/1999/02/22-rdf-syntax-ns#"
   xmlns:svg="http://www.w3.org/2000/svg"
   xmlns="http://www.w3.org/2000/svg"
   xmlns:sodipodi="http://sodipodi.sourceforge.net/DTD/sodipodi-0.dtd"
   xmlns:inkscape="http://www.inkscape.org/namespaces/inkscape"
   width="90"
   height="90"
   id="svg2"
   version="1.1"
   inkscape:version="0.48.4 r9939"
   sodipodi:docname="New document 1">
  <defs
     id="defs4" />
  <sodipodi:namedview
     id="base"
     pagecolor="#ffffff"
     bordercolor="#666666"
     borderopacity="1.0"
     inkscape:pageopacity="0.0"
     inkscape:pageshadow="2"
     inkscape:zoom="3.959798"
     inkscape:cx="21.956869"
     inkscape:cy="63.510089"
     inkscape:document-units="px"
     inkscape:current-layer="layer2"
     showgrid="false"
     inkscape:window-width="1871"
     inkscape:window-height="1056"
     inkscape:window-x="49"
     inkscape:window-y="24"
     inkscape:window-maximized="1" />
  <metadata
     id="metadata7">
    <rdf:RDF>
      <cc:Work
         rdf:about="">
        <dc:format>image/svg+xml</dc:format>
        <dc:type
           rdf:resource="http://purl.org/dc/dcmitype/StillImage" />
        <dc:title></dc:title>
      </cc:Work>
    </rdf:RDF>
  </metadata>
  <g
     inkscape:groupmode="layer"
     id="layer2"
     inkscape:label="Layer">
    <rect
       style="fill:#b3b3b3;fill-opacity:0"
       id="rect3006"
       width="90.913727"
       height="91.166267"
       x="-0.50507629"
       y="-0.15611477" />
    <rect
       style="fill:#b3b3b3;fill-opacity:0"
       id="rect3008"
       width="63.387074"
       height="58.841385"
       x="-70.458138"
       y="-29.955614" />
    <rect
       style="fill:#b3b3b3;fill-opacity:0"
       id="rect3010"
       width="66.670067"
       height="76.519058"
       x="6.3134532"
       y="7.9251056"
       ry="10.101525" />
    <rect
       style="fill:#b3b3b3;fill-opacity:0"
       id="rect3012"
       width="18.182745"
       height="15.909903"
       x="50.002552"
       y="11.46064"
       ry="7.9549513" />
    <rect
       style="fill:#ffffff;fill-opacity:1"
       id="rect3016"
       width="89.398499"
       height="89.651039"
       x="0.25253785"
       y="-89.747459"
       ry="0"
       transform="scale(1,-1)" />
  </g>
  <g
     inkscape:label="Layer 1"
     inkscape:groupmode="layer"
     id="layer1"
     transform="translate(0,-962.36218)"
     sodipodi:insensitive="true">
    <g
       id="g2999"
       transform="matrix(0.90175831,0,0,0.90175831,28.218977,981.26033)">
      <g
         id="Layer_2" />
      <g
         id="Layer_1">
        <g
           id="g2989">
          <path
             id="path2991"
             d="m 37.692,39.088 c 0,0 -0.896,-9.611 -1.335,-12.802 -0.556,-4.053 -2.761,-16.129 -2.761,-16.129 0,0 -0.722,-3.564 -3.788,-5.801 C 26.203,1.73 22.318,1.282 19.67,1.251 L 19.645,3.067 19.66,1.251 C 17.007,1.226 13.118,1.59 9.457,4.137 6.34,6.313 5.548,9.859 5.548,9.859 c 0,0 -2.46,12.032 -3.104,16.067 -0.506,3.18 -1.6,12.774 -1.6,12.774 0,0 -0.869,7.77 6.531,13.941 4.852,4.041 10.631,4.125 11.673,4.108 0.853,0.041 6.774,0.164 11.818,-3.864 7.525,-6.01 6.826,-13.797 6.826,-13.797 z M 16.248,7.591 c 4,-1.735 8.65,0.099 10.388,4.1 1.737,4.001 -0.1,8.648 -4.098,10.387 -4.003,1.738 -8.653,-0.101 -10.39,-4.098 -1.736,-4.001 0.101,-8.654 4.1,-10.389 z m 6.119,46.055 -3.378,-0.037 -3.44,-0.039 C 9.277,53.507 4.252,47.669 4.328,40.537 4.407,33.401 9.717,30.048 15.99,30.118 l 6.814,0.07 c 6.268,0.067 11.132,3.523 11.054,10.662 -0.074,7.132 -5.219,12.858 -11.491,12.796 z"
             clip-rule="evenodd"
             inkscape:connector-curvature="0"
             style="fill:#414042;fill-rule:evenodd" />
        </g>
      </g>
    </g>
  </g>
</svg>
