<?xml version="1.0" encoding="utf-8"?>
<!-- Generator: Adobe Illustrator 16.0.0, SVG Export Plug-In . SVG Version: 6.00 Build 0)  -->
<!DOCTYPE svg PUBLIC "-//W3C//DTD SVG 1.1//EN" "http://www.w3.org/Graphics/SVG/1.1/DTD/svg11.dtd">
<svg version="1.1" id="Layer_1" xmlns="http://www.w3.org/2000/svg" xmlns:xlink="http://www.w3.org/1999/xlink" x="0px" y="0px"
	   viewBox="0 0 500 500" enable-background="new 0 0 500 500" xml:space="preserve">
<g>
	
</g>
<g>
	<g>
		<g>
			<path fill="#58595B" d="M213.162,222.293l-0.716,0.333c-0.065-0.275-0.224-0.5-0.477-0.673c-0.253-0.171-0.532-0.256-0.832-0.256
				c-0.221,0-0.417,0.043-0.586,0.131c-0.168,0.087-0.308,0.231-0.417,0.429c-0.07,0.163-0.106,0.329-0.106,0.497
				c0,0.404,0.189,0.707,0.567,0.912l1.717,0.632c0.313,0.174,0.551,0.41,0.719,0.707c0.165,0.299,0.247,0.616,0.247,0.951
				c0,0.289-0.059,0.565-0.174,0.83c-0.119,0.265-0.295,0.499-0.529,0.703c-0.421,0.293-0.894,0.443-1.418,0.443
				c-0.47,0-0.901-0.119-1.292-0.354c-0.209-0.158-0.372-0.334-0.483-0.527c-0.112-0.196-0.212-0.451-0.303-0.766l0.733-0.369
				c0,0.378,0.136,0.696,0.406,0.947c0.27,0.254,0.59,0.38,0.958,0.38c0.144,0,0.285-0.022,0.429-0.067
				c0.141-0.046,0.28-0.119,0.414-0.221c0.135-0.101,0.244-0.24,0.325-0.414c0.081-0.173,0.123-0.357,0.123-0.549
				c0-0.287-0.065-0.5-0.194-0.639c-0.128-0.136-0.231-0.231-0.309-0.277c-0.073-0.049-0.227-0.125-0.455-0.226l-1.156-0.408
				c-0.342-0.162-0.62-0.383-0.83-0.662c-0.212-0.281-0.317-0.599-0.317-0.954c0-0.09,0.023-0.254,0.067-0.492
				c0.045-0.237,0.188-0.489,0.43-0.755c0.24-0.265,0.504-0.426,0.79-0.483c0.286-0.056,0.54-0.085,0.764-0.085
				c0.095,0,0.171,0.003,0.226,0.009c0.053,0.006,0.194,0.033,0.418,0.076c0.227,0.045,0.467,0.176,0.723,0.394
				C212.878,221.707,213.058,221.975,213.162,222.293z"/>
			<path fill="#58595B" d="M227.079,221.833h-1.924v5.979h-0.831v-5.979H222.4v-0.705h4.679V221.833z"/>
			<path fill="#58595B" d="M241.05,221.129l-0.019,4.552c0,0.398-0.11,0.777-0.333,1.142c-0.222,0.365-0.512,0.641-0.866,0.827
				c-0.493,0.222-1.007,0.335-1.535,0.335c-0.529,0-1.005-0.119-1.428-0.354c-0.42-0.235-0.7-0.508-0.838-0.826
				c-0.141-0.313-0.229-0.554-0.269-0.718c-0.038-0.164-0.058-0.31-0.058-0.441v-4.516h0.804v4.516
				c0.042,0.313,0.133,0.595,0.271,0.846c0.139,0.249,0.337,0.437,0.597,0.563c0.337,0.145,0.678,0.217,1.02,0.217
				c0.271,0,0.522-0.044,0.75-0.132c0.228-0.086,0.423-0.221,0.583-0.402s0.283-0.359,0.37-0.536
				c0.088-0.178,0.132-0.365,0.132-0.556v-0.073v-4.443H241.05z"/>
			<path fill="#58595B" d="M253.325,227.441c-0.235,0.115-0.47,0.206-0.705,0.272c-0.235,0.065-0.467,0.098-0.695,0.098h-2.527
				v-6.683h2.845c0.847,0.084,1.518,0.459,2.013,1.125c0.492,0.665,0.74,1.425,0.74,2.28c0,0.632-0.138,1.208-0.417,1.726
				C254.303,226.776,253.884,227.171,253.325,227.441z M254.11,224.037c-0.049-0.524-0.252-0.987-0.609-1.392
				c-0.358-0.403-0.797-0.663-1.315-0.776h-2.004v5.22h1.726c0.68,0,1.22-0.271,1.625-0.812c0.403-0.542,0.605-1.161,0.605-1.852
				C254.137,224.292,254.128,224.165,254.11,224.037z"/>
			<path fill="#58595B" d="M265.769,227.812h-0.784v-6.683h0.784V227.812z"/>
			<path fill="#58595B" d="M282.639,224.42c0,0.989-0.346,1.833-1.041,2.527c-0.698,0.697-1.539,1.044-2.526,1.044
				c-1,0-1.858-0.335-2.578-1.007c-0.721-0.671-1.08-1.497-1.08-2.474c0-0.987,0.346-1.83,1.043-2.527
				c0.694-0.695,1.536-1.044,2.522-1.044c1,0,1.861,0.336,2.581,1.009C282.279,222.619,282.639,223.444,282.639,224.42z
				 M281.81,224.403c0-0.767-0.278-1.414-0.832-1.947c-0.554-0.53-1.221-0.795-1.997-0.795c-0.762,0-1.41,0.278-1.941,0.833
				c-0.528,0.554-0.793,1.221-0.793,1.999c0,0.765,0.275,1.412,0.823,1.941c0.554,0.527,1.221,0.792,2.002,0.792
				c0.766,0,1.413-0.278,1.942-0.833C281.543,225.837,281.81,225.175,281.81,224.403z"/>
			<path fill="#58595B" d="M294.446,222.293l-0.715,0.333c-0.066-0.275-0.224-0.5-0.478-0.673c-0.253-0.171-0.531-0.256-0.832-0.256
				c-0.223,0-0.418,0.043-0.588,0.131c-0.168,0.087-0.306,0.231-0.415,0.429c-0.069,0.163-0.105,0.329-0.105,0.497
				c0,0.404,0.188,0.707,0.567,0.912l1.716,0.632c0.313,0.174,0.551,0.41,0.717,0.707c0.166,0.299,0.249,0.616,0.249,0.951
				c0,0.289-0.058,0.565-0.177,0.83c-0.116,0.265-0.292,0.499-0.526,0.703c-0.422,0.293-0.894,0.443-1.419,0.443
				c-0.468,0-0.899-0.119-1.292-0.354c-0.21-0.158-0.372-0.334-0.483-0.527c-0.112-0.196-0.213-0.451-0.302-0.766l0.731-0.369
				c0,0.378,0.136,0.696,0.407,0.947c0.27,0.254,0.589,0.38,0.958,0.38c0.144,0,0.285-0.022,0.429-0.067
				c0.14-0.046,0.278-0.119,0.415-0.221c0.134-0.101,0.244-0.24,0.324-0.414c0.082-0.173,0.124-0.357,0.124-0.549
				c0-0.287-0.065-0.5-0.195-0.639c-0.13-0.136-0.232-0.231-0.307-0.277c-0.075-0.049-0.227-0.125-0.456-0.226l-1.155-0.408
				c-0.343-0.162-0.62-0.383-0.832-0.662c-0.212-0.281-0.316-0.599-0.316-0.954c0-0.09,0.024-0.254,0.068-0.492
				c0.044-0.237,0.187-0.489,0.426-0.755c0.244-0.265,0.506-0.426,0.793-0.483c0.285-0.056,0.541-0.085,0.763-0.085
				c0.097,0,0.171,0.003,0.226,0.009c0.054,0.006,0.195,0.033,0.419,0.076c0.227,0.045,0.468,0.176,0.723,0.394
				C294.162,221.707,294.342,221.975,294.446,222.293z"/>
		</g>
	</g>
	<path fill="none" stroke="#58595B" stroke-width="3" stroke-miterlimit="10" d="M145.032,204.735
		c0-58.978,47.813-106.79,106.784-106.79c58.979,0,106.791,47.812,106.791,106.79c0,58.976-47.813,106.783-106.791,106.783
		C192.846,311.519,145.032,263.711,145.032,204.735z"/>
	<line fill="#FFFFFF" x1="176.608" y1="216.94" x2="327.032" y2="216.94"/>
	<path fill-rule="evenodd" clip-rule="evenodd" fill="#58595B" d="M270.03,276.805c0,0-0.886-9.496-1.319-12.648
		c-0.549-4.005-2.728-15.934-2.728-15.934s-0.714-3.522-3.743-5.732c-3.562-2.596-7.4-3.038-10.016-3.068l-0.025,1.793l0.015-1.793
		c-2.621-0.025-6.463,0.335-10.081,2.851c-3.079,2.152-3.862,5.654-3.862,5.654s-2.43,11.886-3.066,15.875
		c-0.5,3.142-1.582,12.62-1.582,12.62s-0.858,7.675,6.453,13.772c4.793,3.993,10.503,4.076,11.532,4.06
		c0.843,0.039,6.693,0.161,11.676-3.816C270.72,284.498,270.03,276.805,270.03,276.805z M248.843,245.686
		c3.951-1.714,8.546,0.098,10.263,4.05c1.716,3.954-0.099,8.544-4.048,10.263c-3.955,1.716-8.549-0.1-10.264-4.05
		C243.078,251.997,244.892,247.4,248.843,245.686z M254.889,291.188l-3.338-0.036l-3.397-0.038
		c-6.197-0.063-11.161-5.832-11.086-12.878c0.078-7.05,5.324-10.362,11.521-10.293l6.732,0.069
		c6.192,0.066,10.999,3.481,10.921,10.533C266.169,285.592,261.084,291.249,254.889,291.188z"/>
	<g>
		<g>
			<path fill="#58595B" d="M188.307,193.411v2.187h-1.659v-2.299c0-2.828-1.093-4.978-3.996-4.978c-2.903,0-3.998,2.149-3.998,4.978
				v13.723c0,2.827,1.094,4.939,3.998,4.939c2.903,0,3.996-2.112,3.996-4.939v-3.129h1.659v3.016c0,3.808-1.659,6.674-5.693,6.674
				c-4.033,0-5.693-2.866-5.693-6.674v-13.497c0-3.808,1.66-6.674,5.693-6.674C186.648,186.737,188.307,189.604,188.307,193.411z"/>
			<path fill="#58595B" d="M193.661,207.512l-1.318,5.843h-1.583l5.767-26.429h2.526l5.881,26.429h-1.733l-1.32-5.843H193.661z
				 M193.925,206.004h7.693l-3.885-17.08L193.925,206.004z"/>
			<path fill="#58595B" d="M209.157,213.354h-1.583v-26.391h2.263l7.918,22.282v-22.282h1.583v26.391h-1.922l-8.258-23.525V213.354z
				"/>
			<path fill="#58595B" d="M223.9,213.354h-1.583v-26.391h2.263l7.917,22.282v-22.282h1.583v26.391h-1.923L223.9,189.83V213.354z"/>
			<path fill="#58595B" d="M245.996,199.18v1.583h-7.202v11.008h8.671v1.583H237.06v-26.391h10.405v1.583h-8.671v10.632H245.996z"/>
			<path fill="#58595B" d="M256.1,186.964c4.07,0,5.843,2.677,5.843,6.56v13.271c0,3.884-1.773,6.559-5.843,6.559h-5.807v-26.391
				H256.1z M256.062,211.771c2.94,0,4.148-1.998,4.148-4.901v-13.421c0-2.904-1.246-4.902-4.148-4.902h-4.033v23.224H256.062z"/>
			<path fill="#58595B" d="M272.388,200.952v12.403h-1.734v-26.391h1.734v12.404h8.219v-12.404h1.771v26.391h-1.771v-12.403H272.388
				z"/>
			<path fill="#58595B" d="M294.332,199.18v1.583h-7.201v11.008h8.671v1.583h-10.405v-26.391h10.405v1.583h-8.671v10.632H294.332z"
				/>
			<path fill="#58595B" d="M301.157,207.512l-1.32,5.843h-1.583l5.768-26.429h2.527l5.88,26.429h-1.734l-1.317-5.843H301.157z
				 M301.419,206.004h7.691l-3.883-17.08L301.419,206.004z"/>
			<path fill="#58595B" d="M320.875,186.964c4.072,0,5.844,2.677,5.844,6.56v13.271c0,3.884-1.771,6.559-5.844,6.559h-5.805v-26.391
				H320.875z M320.837,211.771c2.939,0,4.149-1.998,4.149-4.901v-13.421c0-2.904-1.246-4.902-4.149-4.902h-4.033v23.224H320.837z"/>
		</g>
	</g>
	<g>
		<g>
			<path fill="#58595B" d="M128.549,370.828c-0.417,0.177-0.841,0.313-1.271,0.409c-0.43,0.097-0.865,0.145-1.307,0.145
				c-0.619,0-1.209-0.101-1.771-0.301c-0.562-0.201-1.076-0.506-1.542-0.916c-0.948-0.964-1.422-2.1-1.422-3.409
				c0-0.852,0.187-1.582,0.561-2.192s0.739-1.078,1.096-1.403c0.357-0.326,0.699-0.555,1.024-0.688
				c0.325-0.132,0.59-0.223,0.795-0.271c0.205-0.049,0.414-0.085,0.626-0.108c0.212-0.024,0.419-0.036,0.62-0.036
				c0.297,0,0.61,0.026,0.94,0.078c0.329,0.053,0.658,0.126,0.988,0.223l0.663,0.302v1.181c-0.747-0.53-1.566-0.796-2.458-0.796
				c-0.603,0-1.165,0.123-1.687,0.368c-0.522,0.245-0.972,0.62-1.35,1.126c-0.217,0.321-0.384,0.671-0.5,1.048
				c-0.116,0.378-0.175,0.764-0.175,1.157c0,0.683,0.171,1.323,0.512,1.921c0.341,0.599,0.811,1.049,1.41,1.35
				c0.598,0.302,1.207,0.452,1.825,0.452c0.667,0,1.265-0.165,1.795-0.494l0.626-0.397V370.828z"/>
			<path fill="#58595B" d="M142.271,366.702c0,1.318-0.464,2.442-1.392,3.371s-2.05,1.394-3.367,1.394
				c-1.333,0-2.48-0.448-3.439-1.346c-0.96-0.896-1.44-1.996-1.44-3.299c0-1.319,0.464-2.442,1.392-3.371
				c0.928-0.93,2.05-1.394,3.367-1.394c1.333,0,2.48,0.448,3.439,1.345C141.791,364.299,142.271,365.398,142.271,366.702z
				 M141.163,366.678c0-1.021-0.37-1.887-1.108-2.595c-0.739-0.708-1.626-1.062-2.663-1.062c-1.02,0-1.883,0.37-2.59,1.11
				c-0.707,0.74-1.06,1.629-1.06,2.666c0,1.022,0.368,1.885,1.103,2.589s1.624,1.056,2.668,1.056c1.02,0,1.883-0.37,2.59-1.11
				C140.809,368.592,141.163,367.707,141.163,366.678z"/>
			<path fill="#58595B" d="M153.403,371.418h-0.217l-6.505-7.156v6.964h-1v-9.132l0.251,0.002l6.447,7.163v-6.948h1.024V371.418z"/>
			<path fill="#58595B" d="M164.535,363.25h-2.566v7.976h-1.108v-7.976h-2.566v-0.939h6.24V363.25z"/>
			<path fill="#58595B" d="M177.499,371.226l-1.251-0.001l-1.141-2.77h-3.552l-1.144,2.77l-1.153,0.001l3.916-9.168h0.289
				L177.499,371.226z M174.765,367.647l-1.497-3.849l-1.447,3.849H174.765z"/>
			<path fill="#58595B" d="M188.787,370.828c-0.417,0.177-0.841,0.313-1.271,0.409c-0.43,0.097-0.865,0.145-1.307,0.145
				c-0.619,0-1.209-0.101-1.771-0.301c-0.562-0.201-1.076-0.506-1.542-0.916c-0.948-0.964-1.422-2.1-1.422-3.409
				c0-0.852,0.187-1.582,0.561-2.192s0.739-1.078,1.096-1.403c0.357-0.326,0.699-0.555,1.024-0.688
				c0.325-0.132,0.59-0.223,0.795-0.271c0.205-0.049,0.414-0.085,0.626-0.108c0.212-0.024,0.419-0.036,0.62-0.036
				c0.297,0,0.61,0.026,0.94,0.078c0.329,0.053,0.658,0.126,0.988,0.223l0.663,0.302v1.181c-0.747-0.53-1.566-0.796-2.458-0.796
				c-0.603,0-1.165,0.123-1.687,0.368c-0.522,0.245-0.972,0.62-1.35,1.126c-0.217,0.321-0.384,0.671-0.5,1.048
				c-0.116,0.378-0.175,0.764-0.175,1.157c0,0.683,0.171,1.323,0.512,1.921c0.341,0.599,0.811,1.049,1.41,1.35
				c0.598,0.302,1.207,0.452,1.825,0.452c0.667,0,1.265-0.165,1.795-0.494l0.626-0.397V370.828z"/>
			<path fill="#58595B" d="M200.677,363.25h-2.566v7.976h-1.108v-7.976h-2.566v-0.939h6.24V363.25z"/>
			<path fill="#58595B" d="M214.099,365.768c0,0.507-0.064,0.98-0.193,1.422c-0.128,0.442-0.321,0.831-0.578,1.169
				c-0.257,0.337-0.548,0.59-0.874,0.759s-0.645,0.253-0.958,0.253c-0.354,0-0.574-0.249-0.663-0.747
				c-0.233,0.233-0.478,0.416-0.735,0.549c-0.257,0.132-0.559,0.198-0.904,0.198c-0.538,0-1.01-0.219-1.416-0.656
				c-0.406-0.438-0.608-0.962-0.608-1.572c0-0.771,0.229-1.443,0.687-2.019c0.458-0.573,1.048-0.861,1.771-0.861
				c0.313,0,0.601,0.066,0.862,0.199c0.261,0.133,0.512,0.352,0.753,0.656l0.168-0.747h0.855l-0.603,3.108
				c-0.024,0.113-0.046,0.231-0.066,0.355c-0.02,0.125-0.03,0.231-0.03,0.319c0,0.112,0.018,0.201,0.054,0.266
				c0.036,0.063,0.106,0.096,0.211,0.096c0.289,0,0.578-0.242,0.867-0.729s0.434-1.014,0.434-1.584c0-1.004-0.307-1.806-0.921-2.404
				c-0.615-0.598-1.396-0.897-2.343-0.897c-1.012,0-1.866,0.368-2.56,1.103c-0.695,0.735-1.042,1.629-1.042,2.681
				c0,1.084,0.372,1.984,1.115,2.698c0.743,0.716,1.64,1.072,2.692,1.072c1.044,0,1.795-0.192,2.253-0.578l0.904,0.723
				c-0.506,0.266-0.994,0.469-1.464,0.608c-0.47,0.141-1.066,0.211-1.789,0.211c-1.309,0-2.416-0.447-3.319-1.343
				c-0.903-0.896-1.355-2.026-1.355-3.392c0-1.341,0.443-2.468,1.331-3.379c0.887-0.912,1.978-1.368,3.271-1.368
				c0.546,0,1.058,0.085,1.536,0.253c0.478,0.169,0.921,0.437,1.331,0.802s0.733,0.783,0.97,1.253S214.099,365.222,214.099,365.768z
				 M210.942,366.744c0.008-0.064,0.012-0.152,0.012-0.266c0-0.401-0.11-0.712-0.331-0.934c-0.221-0.221-0.528-0.331-0.922-0.331
				c-0.458,0-0.837,0.19-1.138,0.572s-0.452,0.806-0.452,1.271c0,0.378,0.108,0.701,0.325,0.971c0.217,0.269,0.51,0.403,0.879,0.403
				c0.498,0,0.877-0.158,1.138-0.476C210.715,367.638,210.878,367.234,210.942,366.744z"/>
			<path fill="#58595B" d="M224.929,370.828c-0.417,0.177-0.841,0.313-1.271,0.409c-0.43,0.097-0.865,0.145-1.307,0.145
				c-0.619,0-1.209-0.101-1.771-0.301c-0.562-0.201-1.076-0.506-1.542-0.916c-0.948-0.964-1.422-2.1-1.422-3.409
				c0-0.852,0.187-1.582,0.561-2.192s0.739-1.078,1.096-1.403c0.357-0.326,0.699-0.555,1.024-0.688
				c0.325-0.132,0.59-0.223,0.795-0.271c0.205-0.049,0.414-0.085,0.626-0.108c0.212-0.024,0.419-0.036,0.62-0.036
				c0.297,0,0.61,0.026,0.94,0.078c0.329,0.053,0.658,0.126,0.988,0.223l0.663,0.302v1.181c-0.747-0.53-1.566-0.796-2.458-0.796
				c-0.603,0-1.165,0.123-1.687,0.368c-0.522,0.245-0.972,0.62-1.35,1.126c-0.217,0.321-0.384,0.671-0.5,1.048
				c-0.116,0.378-0.175,0.764-0.175,1.157c0,0.683,0.171,1.323,0.512,1.921c0.341,0.599,0.811,1.049,1.41,1.35
				c0.598,0.302,1.207,0.452,1.825,0.452c0.667,0,1.265-0.165,1.795-0.494l0.626-0.397V370.828z"/>
			<path fill="#58595B" d="M237.736,371.226l-1.251-0.001l-1.141-2.77h-3.552l-1.144,2.77l-1.153,0.001l3.916-9.168h0.289
				L237.736,371.226z M235.002,367.647l-1.497-3.849l-1.447,3.849H235.002z"/>
			<path fill="#58595B" d="M249.784,371.418h-0.217l-6.505-7.156v6.964h-1v-9.132l0.251,0.002l6.447,7.163v-6.948h1.024V371.418z"/>
			<path fill="#58595B" d="M261.831,371.418h-0.217l-6.505-7.156v6.964h-1v-9.132l0.251,0.002l6.447,7.163v-6.948h1.024V371.418z"/>
			<path fill="#58595B" d="M272.192,371.226h-4.843v-8.915h4.843v0.964h-3.771v2.639h3.771v0.915h-3.771v3.434h3.771V371.226z"/>
			<path fill="#58595B" d="M283.878,370.731c-0.313,0.153-0.626,0.273-0.939,0.361c-0.313,0.089-0.623,0.133-0.928,0.133h-3.374
				v-8.915h3.795c1.133,0.112,2.028,0.612,2.687,1.5c0.659,0.888,0.988,1.901,0.988,3.042c0,0.843-0.185,1.61-0.554,2.301
				C285.183,369.845,284.625,370.37,283.878,370.731z M284.926,366.189c-0.064-0.698-0.335-1.316-0.813-1.855
				c-0.478-0.538-1.062-0.883-1.753-1.036h-2.674v6.964h2.301c0.908,0,1.63-0.361,2.169-1.084c0.538-0.723,0.807-1.546,0.807-2.47
				C284.962,366.531,284.95,366.358,284.926,366.189z"/>
			<path fill="#58595B" d="M297.576,371.226h-1.048v-4.445h-4.939v4.445h-1.048v-8.915h1.048v3.529h4.939v-3.529h1.048V371.226z"/>
			<path fill="#58595B" d="M308.334,371.226h-4.843v-8.915h4.843v0.964h-3.771v2.639h3.771v0.915h-3.771v3.434h3.771V371.226z"/>
			<path fill="#58595B" d="M322.069,371.226l-1.251-0.001l-1.141-2.77h-3.552l-1.144,2.77l-1.153,0.001l3.916-9.168h0.289
				L322.069,371.226z M319.335,367.647l-1.497-3.849l-1.447,3.849H319.335z"/>
			<path fill="#58595B" d="M332.068,370.731c-0.313,0.153-0.626,0.273-0.939,0.361c-0.313,0.089-0.623,0.133-0.928,0.133h-3.374
				v-8.915h3.795c1.133,0.112,2.028,0.612,2.687,1.5c0.659,0.888,0.988,1.901,0.988,3.042c0,0.843-0.185,1.61-0.554,2.301
				C333.374,369.845,332.815,370.37,332.068,370.731z M333.117,366.189c-0.064-0.698-0.335-1.316-0.813-1.855
				c-0.478-0.538-1.062-0.883-1.753-1.036h-2.674v6.964h2.301c0.908,0,1.63-0.361,2.169-1.084c0.538-0.723,0.807-1.546,0.807-2.47
				C333.153,366.531,333.141,366.358,333.117,366.189z"/>
			<path fill="#58595B" d="M340.249,369.961c0.168,0.057,0.299,0.154,0.392,0.291c0.092,0.139,0.139,0.288,0.139,0.45
				c0,0.194-0.059,0.356-0.175,0.485c-0.117,0.13-0.287,0.194-0.512,0.194c-0.233,0-0.416-0.07-0.548-0.212
				c-0.133-0.142-0.199-0.314-0.199-0.517c0-0.308,0.145-0.534,0.434-0.681c0.056-0.016,0.128-0.028,0.217-0.036
				s0.157-0.008,0.205,0L340.249,369.961z"/>
			<path fill="#58595B" d="M357.453,370.828c-0.417,0.177-0.841,0.313-1.271,0.409c-0.43,0.097-0.865,0.145-1.307,0.145
				c-0.619,0-1.209-0.101-1.771-0.301c-0.562-0.201-1.076-0.506-1.542-0.916c-0.948-0.964-1.422-2.1-1.422-3.409
				c0-0.852,0.187-1.582,0.561-2.192s0.739-1.078,1.096-1.403c0.357-0.326,0.699-0.555,1.024-0.688
				c0.325-0.132,0.59-0.223,0.795-0.271c0.205-0.049,0.414-0.085,0.626-0.108c0.212-0.024,0.419-0.036,0.62-0.036
				c0.297,0,0.61,0.026,0.94,0.078c0.329,0.053,0.658,0.126,0.988,0.223l0.663,0.302v1.181c-0.747-0.53-1.566-0.796-2.458-0.796
				c-0.603,0-1.165,0.123-1.687,0.368c-0.522,0.245-0.972,0.62-1.35,1.126c-0.217,0.321-0.384,0.671-0.5,1.048
				c-0.116,0.378-0.175,0.764-0.175,1.157c0,0.683,0.171,1.323,0.512,1.921c0.341,0.599,0.811,1.049,1.41,1.35
				c0.598,0.302,1.207,0.452,1.825,0.452c0.667,0,1.265-0.165,1.795-0.494l0.626-0.397V370.828z"/>
			<path fill="#58595B" d="M371.175,366.702c0,1.318-0.464,2.442-1.392,3.371s-2.05,1.394-3.367,1.394
				c-1.333,0-2.48-0.448-3.439-1.346c-0.96-0.896-1.44-1.996-1.44-3.299c0-1.319,0.464-2.442,1.392-3.371
				c0.928-0.93,2.05-1.394,3.367-1.394c1.333,0,2.48,0.448,3.439,1.345C370.695,364.299,371.175,365.398,371.175,366.702z
				 M370.066,366.678c0-1.021-0.37-1.887-1.108-2.595c-0.739-0.708-1.626-1.062-2.663-1.062c-1.02,0-1.883,0.37-2.59,1.11
				c-0.707,0.74-1.06,1.629-1.06,2.666c0,1.022,0.368,1.885,1.103,2.589s1.624,1.056,2.668,1.056c1.02,0,1.883-0.37,2.59-1.11
				C369.713,368.592,370.066,367.707,370.066,366.678z"/>
			<path fill="#58595B" d="M383.5,371.226h-1.168l-0.976-6.735l-2.835,6.979l-0.308-0.004l-2.774-7.009l-1.063,6.771l-1.104-0.002
				l1.771-9.168h0.373l3.048,7.421l2.988-7.421h0.374L383.5,371.226z"/>
		</g>
	</g>
	<g>
		<path fill="#58595B" d="M96.636,345.32h-1.233v-5.231H89.59v5.231h-1.233v-10.491h1.233v4.154h5.813v-4.154h1.233V345.32z"/>
		<path fill="#58595B" d="M111.281,345.32l-1.472-0.001l-1.342-3.26h-4.181l-1.345,3.259l-1.357,0.002l4.607-10.788h0.34
			L111.281,345.32z M108.064,341.109l-1.762-4.528l-1.703,4.528H108.064z"/>
		<path fill="#58595B" d="M124.88,345.317l-1.705,0.003l-3.941-5.358v5.358h-1.318v-10.491l3.885,0.043
			c0.746,0,1.358,0.283,1.835,0.851c0.478,0.567,0.716,1.224,0.716,1.971c0,0.396-0.068,0.766-0.206,1.105
			c-0.137,0.341-0.361,0.652-0.673,0.936c-0.349,0.284-0.731,0.487-1.147,0.61l-1.388-0.003L124.88,345.317z M121.999,336.091
			c-0.123-0.047-0.253-0.087-0.39-0.12c-0.137-0.033-0.263-0.05-0.376-0.05h-1.999v3.516h2.339c0.454,0,0.806-0.158,1.056-0.475
			s0.375-0.702,0.375-1.155c0-0.378-0.085-0.723-0.255-1.035C122.58,336.46,122.329,336.233,121.999,336.091z"/>
		<path fill="#58595B" d="M137.225,344.739c-0.369,0.18-0.737,0.321-1.106,0.425c-0.369,0.104-0.732,0.156-1.092,0.156h-3.969
			v-10.491h4.465c1.333,0.133,2.387,0.721,3.162,1.766c0.775,1.044,1.163,2.237,1.163,3.579c0,0.992-0.218,1.896-0.652,2.708
			C138.76,343.695,138.104,344.313,137.225,344.739z M138.458,339.395c-0.076-0.822-0.395-1.55-0.957-2.184
			c-0.563-0.633-1.25-1.039-2.063-1.219h-3.147v8.194h2.708c1.068,0,1.918-0.426,2.552-1.276s0.95-1.819,0.95-2.906
			C138.5,339.796,138.486,339.593,138.458,339.395z"/>
		<path fill="#58595B" d="M155.967,334.829l-3.844,10.817l-0.383,0.001l-2.631-8.285l-2.589,8.287l-0.369-0.003l-4.034-10.817h1.418
			l2.75,8.364l2.68-8.478h0.312l2.708,8.478l2.637-8.364H155.967z"/>
		<path fill="#58595B" d="M167.989,345.32l-1.472-0.001l-1.342-3.26h-4.181l-1.345,3.259l-1.357,0.002l4.607-10.788h0.34
			L167.989,345.32z M164.772,341.109l-1.762-4.528l-1.703,4.528H164.772z"/>
		<path fill="#58595B" d="M181.587,345.317l-1.705,0.003l-3.941-5.358v5.358h-1.318v-10.491l3.885,0.043
			c0.746,0,1.358,0.283,1.835,0.851c0.478,0.567,0.716,1.224,0.716,1.971c0,0.396-0.068,0.766-0.206,1.105
			c-0.137,0.341-0.361,0.652-0.673,0.936c-0.349,0.284-0.731,0.487-1.147,0.61l-1.388-0.003L181.587,345.317z M178.706,336.091
			c-0.123-0.047-0.253-0.087-0.39-0.12c-0.137-0.033-0.263-0.05-0.376-0.05h-1.999v3.516h2.339c0.454,0,0.806-0.158,1.056-0.475
			s0.375-0.702,0.375-1.155c0-0.378-0.085-0.723-0.255-1.035C179.287,336.46,179.037,336.233,178.706,336.091z"/>
		<path fill="#58595B" d="M194.357,345.32h-5.699v-10.491h5.699v1.135h-4.438v3.104h4.438v1.077h-4.438v4.041h4.438V345.32z"/>
	</g>
	<circle fill="#58595B" cx="205.023" cy="341.103" r="2.526"/>
	<g>
		<path fill="#58595B" d="M224.676,336.658l-1.12,0.524c-0.104-0.435-0.354-0.787-0.751-1.056c-0.397-0.27-0.832-0.404-1.304-0.404
			c-0.35,0-0.657,0.068-0.921,0.205c-0.265,0.138-0.482,0.362-0.652,0.674c-0.113,0.255-0.17,0.516-0.17,0.779
			c0,0.634,0.297,1.111,0.893,1.433l2.693,0.992c0.491,0.273,0.867,0.644,1.127,1.11c0.26,0.467,0.39,0.964,0.39,1.491
			c0,0.453-0.092,0.887-0.276,1.302c-0.185,0.414-0.461,0.782-0.83,1.103c-0.662,0.462-1.403,0.693-2.226,0.693
			c-0.737,0-1.413-0.185-2.027-0.553c-0.331-0.246-0.583-0.522-0.758-0.83c-0.175-0.307-0.333-0.706-0.475-1.197l1.148-0.582
			c0,0.596,0.212,1.092,0.638,1.489c0.425,0.396,0.926,0.595,1.503,0.595c0.227,0,0.451-0.035,0.673-0.105s0.439-0.186,0.652-0.346
			c0.212-0.16,0.382-0.377,0.51-0.65c0.127-0.272,0.191-0.56,0.191-0.861c0-0.452-0.102-0.786-0.305-1.003
			c-0.204-0.216-0.364-0.362-0.482-0.438s-0.356-0.193-0.716-0.354l-1.814-0.638c-0.539-0.256-0.974-0.603-1.304-1.042
			c-0.331-0.439-0.497-0.938-0.497-1.496c0-0.142,0.036-0.398,0.106-0.772c0.071-0.373,0.295-0.768,0.673-1.184
			s0.792-0.668,1.241-0.758c0.449-0.09,0.848-0.135,1.198-0.135c0.151,0,0.27,0.005,0.354,0.014c0.085,0.01,0.305,0.05,0.659,0.121
			c0.354,0.07,0.732,0.276,1.134,0.616C224.234,335.736,224.515,336.157,224.676,336.658z"/>
		<path fill="#58595B" d="M241.589,339.997c0,1.552-0.546,2.874-1.637,3.968c-1.092,1.093-2.413,1.639-3.963,1.639
			c-1.569,0-2.918-0.527-4.047-1.582c-1.129-1.056-1.694-2.35-1.694-3.883c0-1.552,0.545-2.874,1.637-3.968
			c1.092-1.093,2.412-1.639,3.962-1.639c1.569,0,2.918,0.527,4.047,1.582C241.024,337.17,241.589,338.464,241.589,339.997z
			 M240.285,339.969c0-1.202-0.435-2.22-1.304-3.054c-0.87-0.832-1.914-1.249-3.133-1.249c-1.2,0-2.216,0.436-3.048,1.307
			c-0.832,0.871-1.248,1.917-1.248,3.138c0,1.202,0.432,2.218,1.297,3.046c0.865,0.828,1.912,1.242,3.14,1.242
			c1.2,0,2.216-0.435,3.048-1.306C239.869,342.222,240.285,341.181,240.285,339.969z"/>
		<path fill="#58595B" d="M253.256,340.188h-4.409v5.132h-1.233v-10.491h5.643v1.106h-4.409v3.176h4.409V340.188z"/>
		<path fill="#58595B" d="M267.788,335.936h-3.02v9.385h-1.305v-9.385h-3.02v-1.106h7.344V335.936z"/>
		<path fill="#58595B" d="M285.197,334.829l-3.844,10.817l-0.383,0.001l-2.631-8.285l-2.589,8.287l-0.369-0.003l-4.034-10.817h1.418
			l2.75,8.364l2.68-8.478h0.312l2.708,8.478l2.637-8.364H285.197z"/>
		<path fill="#58595B" d="M297.219,345.32l-1.472-0.001l-1.342-3.26h-4.181l-1.345,3.259l-1.357,0.002l4.607-10.788h0.34
			L297.219,345.32z M294.002,341.109l-1.762-4.528l-1.703,4.528H294.002z"/>
		<path fill="#58595B" d="M310.818,345.317l-1.705,0.003l-3.941-5.358v5.358h-1.318v-10.491l3.885,0.043
			c0.746,0,1.358,0.283,1.835,0.851c0.478,0.567,0.716,1.224,0.716,1.971c0,0.396-0.068,0.766-0.206,1.105
			c-0.137,0.341-0.361,0.652-0.673,0.936c-0.349,0.284-0.731,0.487-1.147,0.61l-1.388-0.003L310.818,345.317z M307.937,336.091
			c-0.123-0.047-0.253-0.087-0.39-0.12c-0.137-0.033-0.263-0.05-0.376-0.05h-1.999v3.516h2.339c0.454,0,0.806-0.158,1.056-0.475
			s0.375-0.702,0.375-1.155c0-0.378-0.085-0.723-0.255-1.035C308.518,336.46,308.267,336.233,307.937,336.091z"/>
		<path fill="#58595B" d="M323.588,345.32h-5.699v-10.491h5.699v1.135h-4.438v3.104h4.438v1.077h-4.438v4.041h4.438V345.32z"/>
	</g>
	<circle fill="#58595B" cx="337.204" cy="341.103" r="2.526"/>
	<g>
		<path fill="#58595B" d="M355.073,345.32h-1.233v-10.491h1.233V345.32z"/>
		<path fill="#58595B" d="M370.979,344.739c-0.369,0.18-0.737,0.321-1.106,0.425c-0.369,0.104-0.732,0.156-1.092,0.156h-3.969
			v-10.491h4.465c1.333,0.133,2.387,0.721,3.162,1.766c0.775,1.044,1.163,2.237,1.163,3.579c0,0.992-0.218,1.896-0.652,2.708
			C372.515,343.695,371.858,344.313,370.979,344.739z M372.213,339.395c-0.076-0.822-0.395-1.55-0.957-2.184
			c-0.563-0.633-1.25-1.039-2.063-1.219h-3.147v8.194h2.708c1.068,0,1.918-0.426,2.552-1.276s0.95-1.819,0.95-2.906
			C372.255,339.796,372.241,339.593,372.213,339.395z"/>
		<path fill="#58595B" d="M385.582,345.32h-5.699v-10.491h5.699v1.135h-4.438v3.104h4.438v1.077h-4.438v4.041h4.438V345.32z"/>
		<path fill="#58595B" d="M401.743,345.32l-1.472-0.001l-1.342-3.26h-4.181l-1.345,3.259l-1.357,0.002l4.607-10.788h0.34
			L401.743,345.32z M398.526,341.109l-1.762-4.528l-1.703,4.528H398.526z"/>
		<path fill="#58595B" d="M414.261,336.658l-1.12,0.524c-0.104-0.435-0.354-0.787-0.751-1.056c-0.397-0.27-0.832-0.404-1.304-0.404
			c-0.35,0-0.657,0.068-0.921,0.205c-0.265,0.138-0.482,0.362-0.652,0.674c-0.113,0.255-0.17,0.516-0.17,0.779
			c0,0.634,0.297,1.111,0.893,1.433l2.693,0.992c0.491,0.273,0.867,0.644,1.127,1.11c0.26,0.467,0.39,0.964,0.39,1.491
			c0,0.453-0.092,0.887-0.276,1.302c-0.185,0.414-0.461,0.782-0.83,1.103c-0.662,0.462-1.403,0.693-2.226,0.693
			c-0.737,0-1.413-0.185-2.027-0.553c-0.331-0.246-0.583-0.522-0.758-0.83c-0.175-0.307-0.333-0.706-0.475-1.197l1.148-0.582
			c0,0.596,0.212,1.092,0.638,1.489c0.425,0.396,0.926,0.595,1.503,0.595c0.227,0,0.451-0.035,0.673-0.105s0.439-0.186,0.652-0.346
			c0.212-0.16,0.382-0.377,0.51-0.65c0.127-0.272,0.191-0.56,0.191-0.861c0-0.452-0.102-0.786-0.305-1.003
			c-0.204-0.216-0.364-0.362-0.482-0.438s-0.356-0.193-0.716-0.354l-1.814-0.638c-0.539-0.256-0.974-0.603-1.304-1.042
			c-0.331-0.439-0.497-0.938-0.497-1.496c0-0.142,0.036-0.398,0.106-0.772c0.071-0.373,0.295-0.768,0.673-1.184
			s0.792-0.668,1.241-0.758c0.449-0.09,0.848-0.135,1.198-0.135c0.151,0,0.27,0.005,0.354,0.014c0.085,0.01,0.305,0.05,0.659,0.121
			c0.354,0.07,0.732,0.276,1.134,0.616C413.819,335.736,414.101,336.157,414.261,336.658z"/>
	</g>
</g>
</svg>
