<?xml version="1.0" encoding="utf-8"?>
<!-- Generator: Adobe Illustrator 16.0.0, SVG Export Plug-In . SVG Version: 6.00 Build 0)  -->
<!DOCTYPE svg PUBLIC "-//W3C//DTD SVG 1.1//EN" "http://www.w3.org/Graphics/SVG/1.1/DTD/svg11.dtd">
<svg version="1.1" xmlns="http://www.w3.org/2000/svg" xmlns:xlink="http://www.w3.org/1999/xlink" x="0px" y="0px" width="19px"
	 height="17.25px" viewBox="0 0 19 17.25" enable-background="new 0 0 19 17.25" xml:space="preserve">
<g id="Layer_2">
</g>
<g id="Layer_1">
	<g>
		<path fill="#FFFFFF" d="M14.73,9.413l-5.283,4.674L4.165,9.413c-0.346-0.346-0.911-0.346-1.254,0
			c-0.35,0.345-0.35,0.907-0.003,1.254l5.9,5.218c0.176,0.176,0.407,0.261,0.638,0.257c0.232,0.003,0.464-0.081,0.64-0.257
			l5.898-5.218c0.345-0.345,0.345-0.909,0-1.254C15.638,9.067,15.075,9.067,14.73,9.413z"/>
		<path fill="#FFFFFF" d="M8.807,9.561c0.176,0.177,0.407,0.261,0.638,0.258c0.232,0.003,0.464-0.081,0.64-0.258l5.898-5.217
			c0.345-0.348,0.345-0.909,0-1.253c-0.346-0.348-0.909-0.348-1.254,0L9.447,7.763L4.165,3.091c-0.346-0.348-0.911-0.348-1.254,0
			c-0.346,0.344-0.346,0.906,0,1.253L8.807,9.561z"/>
	</g>
</g>
</svg>
