<?xml version="1.0" encoding="UTF-8" standalone="no"?>
<!-- Generator: Adobe Illustrator 16.0.4, SVG Export Plug-In . SVG Version: 6.00 Build 0)  -->

<svg
   xmlns:dc="http://purl.org/dc/elements/1.1/"
   xmlns:cc="http://creativecommons.org/ns#"
   xmlns:rdf="http://www.w3.org/1999/02/22-rdf-syntax-ns#"
   xmlns:svg="http://www.w3.org/2000/svg"
   xmlns="http://www.w3.org/2000/svg"
   xmlns:sodipodi="http://sodipodi.sourceforge.net/DTD/sodipodi-0.dtd"
   xmlns:inkscape="http://www.inkscape.org/namespaces/inkscape"
   version="1.1"
   id="Capa_1"
   x="0px"
   y="0px"
   width="84"
   height="84"
   viewBox="0 0 84.000003 83.999999"
   enable-background="new 0 0 23.303 18.93"
   xml:space="preserve"
   inkscape:version="0.48.4 r9939"
   sodipodi:docname="premium.svg"><metadata
     id="metadata13"><rdf:RDF><cc:Work
         rdf:about=""><dc:format>image/svg+xml</dc:format><dc:type
           rdf:resource="http://purl.org/dc/dcmitype/StillImage" /></cc:Work></rdf:RDF></metadata><defs
     id="defs11" /><sodipodi:namedview
     pagecolor="#ffffff"
     bordercolor="#666666"
     borderopacity="1"
     objecttolerance="10"
     gridtolerance="10"
     guidetolerance="10"
     inkscape:pageopacity="0"
     inkscape:pageshadow="2"
     inkscape:window-width="1871"
     inkscape:window-height="1056"
     id="namedview9"
     showgrid="false"
     inkscape:zoom="4.4077443"
     inkscape:cx="26.775597"
     inkscape:cy="-6.396439"
     inkscape:window-x="49"
     inkscape:window-y="24"
     inkscape:window-maximized="1"
     inkscape:current-layer="Capa_1" /><g
     id="g3"
     transform="matrix(3.600715,0,0,3.600715,2.8571428e-8,5.8384687)"
     style="fill:#ffffff"><path
       d="m 21.624,2.3 c -0.931,0 -1.685,0.821 -1.685,1.831 0,0.657 0.318,1.229 0.797,1.554 -1.012,1.519 -2.44,3.283 -3.912,3.794 C 14.887,10.152 13.081,6.016 12.192,3.558 12.851,3.31 13.331,2.633 13.331,1.83 13.331,0.82 12.578,0 11.65,0 10.724,0 9.97,0.82 9.97,1.83 c 0,0.803 0.479,1.479 1.139,1.728 C 10.222,6.016 8.418,10.152 6.478,9.479 5.008,8.968 3.577,7.204 2.567,5.685 3.044,5.36 3.363,4.789 3.363,4.131 3.363,3.121 2.608,2.3 1.68,2.3 0.754,2.3 0,3.121 0,4.131 0,5.144 0.754,5.964 1.68,5.964 1.699,5.964 1.712,5.959 1.73,5.957 L 4,16.502 H 19.303 L 21.574,5.957 c 0.016,0.001 0.032,0.007 0.051,0.007 0.925,0 1.679,-0.82 1.679,-1.833 C 23.303,3.121 22.549,2.3 21.624,2.3 z"
       id="path5"
       inkscape:connector-curvature="0"
       style="fill:#ffffff" /><rect
       x="4.0770001"
       y="16.872999"
       width="15.148"
       height="2.0569999"
       id="rect7"
       style="fill:#ffffff" /></g></svg>