<?xml version="1.0" encoding="UTF-8" standalone="no"?>
<!-- Generator: Adobe Illustrator 16.0.4, SVG Export Plug-In . SVG Version: 6.00 Build 0)  -->

<svg
   xmlns:dc="http://purl.org/dc/elements/1.1/"
   xmlns:cc="http://creativecommons.org/ns#"
   xmlns:rdf="http://www.w3.org/1999/02/22-rdf-syntax-ns#"
   xmlns:svg="http://www.w3.org/2000/svg"
   xmlns="http://www.w3.org/2000/svg"
   xmlns:sodipodi="http://sodipodi.sourceforge.net/DTD/sodipodi-0.dtd"
   xmlns:inkscape="http://www.inkscape.org/namespaces/inkscape"
   version="1.1"
   id="Capa_1"
   x="0px"
   y="0px"
   width="84"
   height="84"
   viewBox="0 0 84 83.999999"
   enable-background="new 0 0 22 21.812"
   xml:space="preserve"
   inkscape:version="0.48.4 r9939"
   sodipodi:docname="custom1.svg"><metadata
     id="metadata19"><rdf:RDF><cc:Work
         rdf:about=""><dc:format>image/svg+xml</dc:format><dc:type
           rdf:resource="http://purl.org/dc/dcmitype/StillImage" /></cc:Work></rdf:RDF></metadata><defs
     id="defs17" /><sodipodi:namedview
     pagecolor="#ffffff"
     bordercolor="#666666"
     borderopacity="1"
     objecttolerance="10"
     gridtolerance="10"
     guidetolerance="10"
     inkscape:pageopacity="0"
     inkscape:pageshadow="2"
     inkscape:window-width="1871"
     inkscape:window-height="1056"
     id="namedview15"
     showgrid="false"
     inkscape:zoom="3.825353"
     inkscape:cx="56.080789"
     inkscape:cy="30.825288"
     inkscape:window-x="49"
     inkscape:window-y="24"
     inkscape:window-maximized="1"
     inkscape:current-layer="Capa_1" /><g
     id="g3"
     transform="matrix(3.8284272,0,0,3.8284272,0,0.49434683)"
     style="fill:#ffffff"><path
       d="M 0,0 V 21.812 H 22 V 0 H 0 z m 20.188,20.001 c -1.576,0 -16.797,0 -18.375,0 0,-1.576 0,-16.614 0,-18.188 1.576,0 16.798,0 18.375,0 0,1.574 0,16.612 0,18.188 z"
       id="path5"
       inkscape:connector-curvature="0"
       style="fill:#ffffff" /><path
       d="m 5.791,12.591 c 0.06,0.21 0.093,0.668 0.093,1.371 0,0.603 0.031,1.046 0.096,1.327 0.065,0.28 0.192,0.517 0.382,0.708 0.189,0.19 0.421,0.328 0.696,0.411 0.276,0.082 0.672,0.123 1.187,0.123 H 8.55 V 15.156 C 8.139,15.156 7.872,15.13 7.748,15.078 7.625,15.026 7.533,14.952 7.472,14.851 7.412,14.752 7.382,14.577 7.382,14.326 7.382,14.149 7.366,13.743 7.336,13.108 7.313,12.691 7.263,12.359 7.186,12.111 7.11,11.861 7,11.651 6.856,11.476 6.713,11.302 6.529,11.151 6.304,11.021 6.559,10.856 6.748,10.698 6.873,10.544 6.997,10.392 7.099,10.199 7.179,9.964 7.258,9.729 7.308,9.422 7.328,9.044 7.362,8.374 7.381,7.918 7.381,7.677 7.381,7.441 7.41,7.273 7.467,7.176 7.525,7.079 7.613,7.006 7.733,6.957 7.853,6.91 8.126,6.886 8.55,6.886 V 5.518 H 8.245 c -0.501,0 -0.868,0.035 -1.1,0.104 C 6.801,5.725 6.539,5.865 6.358,6.042 6.178,6.22 6.054,6.455 5.985,6.748 5.917,7.039 5.884,7.556 5.884,8.294 5.884,8.751 5.867,9.067 5.836,9.251 5.798,9.495 5.727,9.698 5.625,9.861 5.521,10.024 5.401,10.138 5.258,10.208 5.118,10.276 4.909,10.319 4.629,10.335 v 1.376 c 0.352,0.018 0.612,0.093 0.783,0.226 0.169,0.131 0.296,0.348 0.379,0.654 z"
       id="path7"
       inkscape:connector-curvature="0"
       style="fill:#ffffff" /><path
       d="m 9.832,15.27 0.312,0.665 c 0.344,-0.123 0.629,-0.292 0.853,-0.505 0.224,-0.213 0.375,-0.455 0.455,-0.724 0.081,-0.271 0.121,-0.64 0.121,-1.104 v -1.15 H 9.962 v 1.61 h 0.777 c -0.006,0.318 -0.08,0.571 -0.216,0.764 -0.137,0.188 -0.368,0.337 -0.691,0.444 z"
       id="path9"
       inkscape:connector-curvature="0"
       style="fill:#ffffff" /><rect
       x="9.9619999"
       y="7.973"
       width="1.6109999"
       height="1.612"
       id="rect11"
       style="fill:#ffffff" /><path
       d="m 14.426,16.426 c 0.346,-0.104 0.612,-0.243 0.793,-0.421 0.18,-0.177 0.303,-0.414 0.368,-0.708 0.065,-0.295 0.101,-0.813 0.101,-1.553 0,-0.452 0.016,-0.769 0.047,-0.953 0.041,-0.244 0.113,-0.447 0.215,-0.61 0.101,-0.161 0.221,-0.278 0.363,-0.346 0.141,-0.068 0.349,-0.11 0.629,-0.125 H 16.94 V 10.335 C 16.587,10.315 16.328,10.239 16.155,10.107 15.985,9.976 15.858,9.757 15.772,9.453 15.714,9.239 15.686,8.783 15.686,8.085 15.686,7.481 15.653,7.04 15.586,6.761 15.52,6.478 15.393,6.242 15.206,6.049 15.018,5.857 14.787,5.722 14.512,5.641 14.235,5.561 13.839,5.52 13.324,5.52 H 13.02 v 1.366 c 0.432,0 0.711,0.026 0.834,0.078 0.125,0.051 0.211,0.124 0.258,0.219 0.048,0.095 0.072,0.286 0.076,0.573 0.021,0.909 0.054,1.497 0.095,1.765 0.065,0.388 0.188,0.709 0.366,0.96 0.131,0.177 0.336,0.355 0.619,0.539 -0.218,0.124 -0.395,0.271 -0.535,0.438 -0.141,0.165 -0.252,0.369 -0.334,0.607 -0.084,0.24 -0.137,0.559 -0.155,0.954 -0.031,0.658 -0.05,1.104 -0.05,1.336 -0.004,0.234 -0.032,0.399 -0.092,0.497 -0.061,0.098 -0.153,0.172 -0.278,0.224 -0.126,0.052 -0.394,0.077 -0.804,0.077 v 1.375 h 0.306 c 0.499,0.001 0.867,-0.035 1.1,-0.102 z"
       id="path13"
       inkscape:connector-curvature="0"
       style="fill:#ffffff" /></g></svg>