<?xml version="1.0" encoding="UTF-8" standalone="no"?>
<!-- Generator: Adobe Illustrator 15.1.0, SVG Export Plug-In  -->

<svg
   xmlns:dc="http://purl.org/dc/elements/1.1/"
   xmlns:cc="http://creativecommons.org/ns#"
   xmlns:rdf="http://www.w3.org/1999/02/22-rdf-syntax-ns#"
   xmlns:svg="http://www.w3.org/2000/svg"
   xmlns="http://www.w3.org/2000/svg"
   xmlns:sodipodi="http://sodipodi.sourceforge.net/DTD/sodipodi-0.dtd"
   xmlns:inkscape="http://www.inkscape.org/namespaces/inkscape"
   version="1.1"
   x="0px"
   y="0px"
   width="46px"
   height="46px"
   viewBox="-0.431 -0.45 46 46"
   overflow="visible"
   enable-background="new -0.431 -0.45 46 46"
   xml:space="preserve"
   id="svg2"
   inkscape:version="0.48.4 r9939"
   sodipodi:docname="social3.svg"><metadata
     id="metadata12"><rdf:RDF><cc:Work
         rdf:about=""><dc:format>image/svg+xml</dc:format><dc:type
           rdf:resource="http://purl.org/dc/dcmitype/StillImage" /><dc:title></dc:title></cc:Work></rdf:RDF></metadata><sodipodi:namedview
     pagecolor="#ffffff"
     bordercolor="#666666"
     borderopacity="1"
     objecttolerance="10"
     gridtolerance="10"
     guidetolerance="10"
     inkscape:pageopacity="0"
     inkscape:pageshadow="2"
     inkscape:window-width="1631"
     inkscape:window-height="1026"
     id="namedview10"
     showgrid="false"
     inkscape:zoom="10.26087"
     inkscape:cx="43.171045"
     inkscape:cy="14.442435"
     inkscape:window-x="1969"
     inkscape:window-y="24"
     inkscape:window-maximized="1"
     inkscape:current-layer="layer4" /><defs
     id="defs4" /><path
     fill="none"
     d="M22.553,0C10.098,0,0,10.098,0,22.553c0,12.456,10.098,22.553,22.553,22.553  c12.457,0,22.553-10.097,22.553-22.553C45.106,10.098,35.01,0,22.553,0z M32.22,23.059c-2.077,8.423-16.014,11.997-22.425,3.25  c2.455,2.346,6.731,2.553,9.444-0.251c-1.591,0.231-2.747-1.329-0.794-2.172c-1.757,0.191-2.733-0.743-3.135-1.538  c0.412-0.431,0.866-0.631,1.745-0.689c-1.923-0.455-2.634-1.396-2.851-2.539c0.534-0.127,1.202-0.237,1.567-0.188  c-1.686-0.882-2.271-2.208-2.179-3.205c3.011,1.119,4.929,2.017,6.533,2.878c0.572,0.305,1.209,0.854,1.929,1.552  c0.916-2.423,2.048-4.92,3.986-6.159c-0.032,0.281-0.183,0.542-0.382,0.757c0.55-0.5,1.264-0.844,1.989-0.943  c-0.083,0.545-0.867,0.852-1.341,1.031c0.358-0.112,2.266-0.963,2.474-0.478c0.245,0.551-1.316,0.806-1.582,0.901  c-0.198,0.066-0.396,0.139-0.592,0.218c2.418-0.241,4.726,1.755,5.398,4.231c0.048,0.179,0.097,0.376,0.139,0.584  c0.885,0.33,2.486-0.017,3.003-0.333c-0.373,0.883-1.343,1.534-2.774,1.652c0.689,0.286,1.989,0.444,2.886,0.292  C34.689,22.52,33.775,23.071,32.22,23.059z"
     id="path8" /><g
     inkscape:groupmode="layer"
     id="layer1"
     inkscape:label="dribbble"
     style="display:none"
     sodipodi:insensitive="true"><path
       d="M 22.762898,-0.32711876 C 10.128121,-0.32612721 -0.11320335,9.9157299 -0.11320335,22.551016 c 0,12.633254 10.24132435,22.876102 22.87610135,22.876102 12.634778,0 22.876611,-10.242848 22.878136,-22.876102 C 45.639547,9.9157299 35.397676,-0.32610242 22.762898,-0.32711876 z M 36.780472,11.534413 c 2.23179,2.834221 3.629328,6.344079 3.805736,10.176759 -2.583081,-0.548034 -5.0228,-0.814934 -7.297801,-0.814934 v -5.09e-4 h -0.01678 c -1.831187,0 -3.550529,0.166241 -5.170229,0.453476 -0.393995,-0.964906 -0.792565,-1.891683 -1.194694,-2.779315 3.607467,-1.582589 7.070047,-3.835731 9.873765,-7.035477 z M 22.762898,4.7022887 c 4.210407,0 8.072064,1.4717612 11.129465,3.9221548 C 31.552796,11.42562 28.464385,13.454566 25.127884,14.887182 22.783742,10.353953 20.518399,7.1109951 18.969872,5.1283114 20.195577,4.8563279 21.460936,4.7022887 22.762898,4.7022887 z M 14.879444,6.562961 c 1.238922,1.4631188 3.719311,4.681675 6.368481,9.707015 -5.387816,1.60394 -10.813251,1.980651 -14.0958641,1.979633 -0.093543,0 -0.1860667,0 -0.2770674,-9.91e-4 h -0.00307 c -0.5526097,0 -1.0279448,-0.0086 -1.42499,-0.02084 C 6.7275438,13.103275 10.238419,8.8593153 14.879424,6.562961 z M 4.9146786,22.551016 c 0,-0.08389 0.00307,-0.169291 0.00813,-0.25724 0.5093969,0.01881 1.1631746,0.03508 1.9496389,0.03508 h 0.00456 c 3.5876405,-0.02339 9.8519035,-0.32333 16.2000495,-2.327366 0.346208,0.756471 0.688347,1.54446 1.027437,2.362444 -4.239384,1.417874 -7.578427,3.676608 -10.048139,5.926191 -2.377187,2.1657 -3.983668,4.310049 -4.9221381,5.742157 -2.6262858,-3.109258 -4.218025,-7.105128 -4.21955,-11.481267 z M 22.762898,40.399744 c -3.971975,0 -7.632824,-1.313654 -10.602781,-3.517992 0.631408,-1.039638 1.984717,-3.035031 4.139741,-5.097531 2.217556,-2.125029 5.278514,-4.312082 9.274893,-5.614045 1.358392,3.80777 2.587656,8.161032 3.524092,13.060802 -1.972516,0.751386 -4.104155,1.168766 -6.335945,1.168766 z M 32.864417,37.2305 C 31.958991,32.798949 30.82022,28.803079 29.570112,25.23679 30.729728,25.070549 31.94679,24.9765 33.230959,24.9765 h 0.04575 0.0031 0.0031 c 2.129097,0 4.468156,0.264866 7.004974,0.841369 -0.877974,4.719295 -3.611535,8.783796 -7.423371,11.412631 z"
       id="Dribbble"
       inkscape:connector-curvature="0"
       style="fill:#ffffff" /></g><g
     inkscape:groupmode="layer"
     id="layer2"
     inkscape:label="facebook"
     sodipodi:insensitive="true"
     style="display:none"><path
       d="m 16.35304,8.492226 c 0,1.1572488 0,6.322516 0,6.322516 l -4.632056,0 0,7.73132 4.632056,0 0,22.974547 9.515666,0 0,-22.974038 7.242043,0 0.03056,-7.760403 c -0.831199,0 -7.236886,0 -7.236886,0 0,0 0,-4.497859 0,-5.2861969 0,-0.789868 1.037339,-1.8527203 2.062943,-1.8527203 1.023563,0 3.183455,0 5.184148,0 0,-1.0526471 0,-4.6897139 0,-8.04869414 -2.671163,0 -5.709195,0 -7.048604,0 -9.985096,-5.1031e-4 -9.74987,7.73846184 -9.74987,8.89366934 z"
       id="Facebook"
       inkscape:connector-curvature="0"
       sodipodi:nodetypes="sccccccccccsscccs"
       style="fill:#ffffff" /></g><g
     inkscape:groupmode="layer"
     id="layer3"
     inkscape:label="insta"
     style="display:none"
     sodipodi:insensitive="true"><path
       id="path3067"
       d="M 5.4050084,-0.47666774 H 39.623114 c 3.249616,0 5.908394,2.40589734 5.908394,5.90839374 v 34.218579 c 0,3.502969 -2.658778,5.908394 -5.908394,5.908394 H 5.4050084 c -3.2505623,0 -5.90886694,-2.405899 -5.90886694,-5.908394 V 5.431726 c 0,-3.5024964 2.65830464,-5.90839374 5.90886694,-5.90839374 l 0,0 z M 33.031238,4.6381108 c -1.140084,0 -2.072192,0.9321081 -2.072192,2.0726641 v 4.9606881 c 0,1.140082 0.932108,2.072663 2.072192,2.072663 h 5.203168 c 1.139611,0 2.072191,-0.932581 2.072191,-2.072663 V 6.7107749 c 0,-1.140556 -0.93258,-2.0726641 -2.072191,-2.0726641 h -5.203168 l 0,0 z M 40.328813,18.991252 H 36.2766 c 0.383337,1.251634 0.59084,2.577478 0.59084,3.949643 0,7.657278 -6.407062,13.864401 -14.309656,13.864401 -7.902122,0 -14.3087114,-6.207123 -14.3087114,-13.864401 0,-1.372637 0.2070297,-2.698009 0.590839,-3.949643 H 4.6118651 V 38.43743 c 0,1.006318 0.8233938,1.830184 1.8301838,1.830184 H 38.499575 c 1.006316,0 1.830183,-0.823393 1.830183,-1.830184 V 18.991252 l -9.45e-4,0 z M 22.557311,13.482738 c -5.105798,0 -9.245454,4.010619 -9.245454,8.958544 0,4.947925 4.139656,8.958542 9.245454,8.958542 5.106269,0 9.246399,-4.010617 9.246399,-8.958542 0,-4.947925 -4.139656,-8.958544 -9.246399,-8.958544 z"
       clip-rule="evenodd"
       inkscape:connector-curvature="0"
       style="fill:#ffffff;fill-rule:evenodd" /></g><g
     inkscape:groupmode="layer"
     id="layer4"
     inkscape:label="behance"><path
       style="display:inline;fill:#ffffff"
       d="M 41.26656,11.477688 H 29.703774 V 8.6054475 H 41.267073 V 11.477688 z M 22.00687,23.254791 c 0.746003,1.155151 1.118748,2.558457 1.118748,4.205303 0,1.703758 -0.420427,3.231654 -1.275639,4.581637 -0.543993,0.893665 -1.21924,1.647872 -2.030871,2.254928 -0.914174,0.702935 -1.996519,1.184376 -3.24037,1.44176 -1.247953,0.257896 -2.598961,0.388126 -4.054051,0.388126 H -0.40603008 V 7.4144069 H 13.460395 c 3.49519,0.056912 5.97315,1.0695276 7.436443,3.0583561 0.877772,1.219753 1.313068,2.683047 1.313068,4.384241 0,1.755542 -0.440424,3.159873 -1.326911,4.227349 -0.493233,0.598341 -1.221804,1.142333 -2.186224,1.633516 1.46073,0.534763 2.569224,1.377157 3.310099,2.536922 z M 6.2157069,18.734168 H 12.2914 c 1.248466,0 2.258005,-0.237388 3.035284,-0.711651 0.776766,-0.47375 1.164379,-1.315631 1.164379,-2.524617 0,-1.335627 -0.513229,-2.222115 -1.542252,-2.648695 -0.884436,-0.29635 -2.016002,-0.44914 -3.389057,-0.44914 H 6.2157069 v 6.334103 z m 10.8603661,8.316265 c 0,-1.492005 -0.60962,-2.522566 -1.826297,-3.075787 -0.680375,-0.314809 -1.640181,-0.475289 -2.871214,-0.486569 H 6.2157069 v 7.651273 h 6.0674901 c 1.246414,0 2.211347,-0.163044 2.907617,-0.503488 1.255643,-0.626028 1.885259,-1.817069 1.885259,-3.585429 z m 28.479875,-4.670849 c 0.139972,0.939297 0.203036,2.302098 0.1774,4.083276 H 30.758945 c 0.08306,2.067274 0.796247,3.512622 2.149819,4.339635 0.815732,0.518869 1.805276,0.772151 2.964016,0.772151 1.221291,0 2.2175,-0.309168 2.984011,-0.943912 0.417864,-0.336342 0.786508,-0.81163 1.104905,-1.410483 h 5.48812 c -0.143561,1.220266 -0.804453,2.458477 -1.991905,3.717196 -1.84014,1.999083 -4.421156,3.00247 -7.734845,3.00247 -2.737907,0 -5.15075,-0.845983 -7.245198,-2.531283 -2.087782,-1.69094 -3.135775,-4.433975 -3.135775,-8.238846 0,-3.567996 0.941348,-6.298725 2.830196,-8.199878 1.895001,-1.90423 4.341683,-2.852244 7.357483,-2.852244 1.787331,0 3.3988,0.319423 4.835945,0.961857 1.433556,0.642947 2.617419,1.65505 3.550563,3.045537 0.843932,1.22488 1.386899,2.641004 1.639668,4.254524 z m -5.401983,0.535789 c -0.101006,-1.429455 -0.578345,-2.511287 -1.437145,-3.250625 -0.852648,-0.741388 -1.917048,-1.11362 -3.187048,-1.11362 -1.382797,0 -2.44976,0.397868 -3.208581,1.179761 -0.763436,0.780355 -1.238721,1.841166 -1.433554,3.184484 h 9.266328 z"
       id="Behance"
       inkscape:connector-curvature="0" /></g></svg>