<?xml version="1.0" encoding="UTF-8" standalone="no"?>
<!-- Generator: Adobe Illustrator 15.1.0, SVG Export Plug-In  -->

<svg
   xmlns:dc="http://purl.org/dc/elements/1.1/"
   xmlns:cc="http://creativecommons.org/ns#"
   xmlns:rdf="http://www.w3.org/1999/02/22-rdf-syntax-ns#"
   xmlns:svg="http://www.w3.org/2000/svg"
   xmlns="http://www.w3.org/2000/svg"
   xmlns:sodipodi="http://sodipodi.sourceforge.net/DTD/sodipodi-0.dtd"
   xmlns:inkscape="http://www.inkscape.org/namespaces/inkscape"
   version="1.1"
   x="0px"
   y="0px"
   width="46px"
   height="46px"
   viewBox="-0.431 -0.45 46 46"
   overflow="visible"
   enable-background="new -0.431 -0.45 46 46"
   xml:space="preserve"
   id="svg2"
   inkscape:version="0.48.4 r9939"
   sodipodi:docname="social1.svg"><metadata
     id="metadata12"><rdf:RDF><cc:Work
         rdf:about=""><dc:format>image/svg+xml</dc:format><dc:type
           rdf:resource="http://purl.org/dc/dcmitype/StillImage" /><dc:title></dc:title></cc:Work></rdf:RDF></metadata><sodipodi:namedview
     pagecolor="#ffffff"
     bordercolor="#666666"
     borderopacity="1"
     objecttolerance="10"
     gridtolerance="10"
     guidetolerance="10"
     inkscape:pageopacity="0"
     inkscape:pageshadow="2"
     inkscape:window-width="1631"
     inkscape:window-height="1026"
     id="namedview10"
     showgrid="false"
     inkscape:zoom="14.511061"
     inkscape:cx="38.537995"
     inkscape:cy="18.951083"
     inkscape:window-x="1969"
     inkscape:window-y="24"
     inkscape:window-maximized="1"
     inkscape:current-layer="layer2" /><defs
     id="defs4" /><path
     fill="none"
     d="M22.553,0C10.098,0,0,10.098,0,22.553c0,12.456,10.098,22.553,22.553,22.553  c12.457,0,22.553-10.097,22.553-22.553C45.106,10.098,35.01,0,22.553,0z M32.22,23.059c-2.077,8.423-16.014,11.997-22.425,3.25  c2.455,2.346,6.731,2.553,9.444-0.251c-1.591,0.231-2.747-1.329-0.794-2.172c-1.757,0.191-2.733-0.743-3.135-1.538  c0.412-0.431,0.866-0.631,1.745-0.689c-1.923-0.455-2.634-1.396-2.851-2.539c0.534-0.127,1.202-0.237,1.567-0.188  c-1.686-0.882-2.271-2.208-2.179-3.205c3.011,1.119,4.929,2.017,6.533,2.878c0.572,0.305,1.209,0.854,1.929,1.552  c0.916-2.423,2.048-4.92,3.986-6.159c-0.032,0.281-0.183,0.542-0.382,0.757c0.55-0.5,1.264-0.844,1.989-0.943  c-0.083,0.545-0.867,0.852-1.341,1.031c0.358-0.112,2.266-0.963,2.474-0.478c0.245,0.551-1.316,0.806-1.582,0.901  c-0.198,0.066-0.396,0.139-0.592,0.218c2.418-0.241,4.726,1.755,5.398,4.231c0.048,0.179,0.097,0.376,0.139,0.584  c0.885,0.33,2.486-0.017,3.003-0.333c-0.373,0.883-1.343,1.534-2.774,1.652c0.689,0.286,1.989,0.444,2.886,0.292  C34.689,22.52,33.775,23.071,32.22,23.059z"
     id="path8" /><g
     inkscape:groupmode="layer"
     id="layer1"
     inkscape:label="dribbble"
     style="display:none"
     sodipodi:insensitive="true"><path
       d="M 22.762898,-0.32711876 C 10.128121,-0.32612721 -0.11320335,9.9157299 -0.11320335,22.551016 c 0,12.633254 10.24132435,22.876102 22.87610135,22.876102 12.634778,0 22.876611,-10.242848 22.878136,-22.876102 C 45.639547,9.9157299 35.397676,-0.32610242 22.762898,-0.32711876 z M 36.780472,11.534413 c 2.23179,2.834221 3.629328,6.344079 3.805736,10.176759 -2.583081,-0.548034 -5.0228,-0.814934 -7.297801,-0.814934 v -5.09e-4 h -0.01678 c -1.831187,0 -3.550529,0.166241 -5.170229,0.453476 -0.393995,-0.964906 -0.792565,-1.891683 -1.194694,-2.779315 3.607467,-1.582589 7.070047,-3.835731 9.873765,-7.035477 z M 22.762898,4.7022887 c 4.210407,0 8.072064,1.4717612 11.129465,3.9221548 C 31.552796,11.42562 28.464385,13.454566 25.127884,14.887182 22.783742,10.353953 20.518399,7.1109951 18.969872,5.1283114 20.195577,4.8563279 21.460936,4.7022887 22.762898,4.7022887 z M 14.879444,6.562961 c 1.238922,1.4631188 3.719311,4.681675 6.368481,9.707015 -5.387816,1.60394 -10.813251,1.980651 -14.0958641,1.979633 -0.093543,0 -0.1860667,0 -0.2770674,-9.91e-4 h -0.00307 c -0.5526097,0 -1.0279448,-0.0086 -1.42499,-0.02084 C 6.7275438,13.103275 10.238419,8.8593153 14.879424,6.562961 z M 4.9146786,22.551016 c 0,-0.08389 0.00307,-0.169291 0.00813,-0.25724 0.5093969,0.01881 1.1631746,0.03508 1.9496389,0.03508 h 0.00456 c 3.5876405,-0.02339 9.8519035,-0.32333 16.2000495,-2.327366 0.346208,0.756471 0.688347,1.54446 1.027437,2.362444 -4.239384,1.417874 -7.578427,3.676608 -10.048139,5.926191 -2.377187,2.1657 -3.983668,4.310049 -4.9221381,5.742157 -2.6262858,-3.109258 -4.218025,-7.105128 -4.21955,-11.481267 z M 22.762898,40.399744 c -3.971975,0 -7.632824,-1.313654 -10.602781,-3.517992 0.631408,-1.039638 1.984717,-3.035031 4.139741,-5.097531 2.217556,-2.125029 5.278514,-4.312082 9.274893,-5.614045 1.358392,3.80777 2.587656,8.161032 3.524092,13.060802 -1.972516,0.751386 -4.104155,1.168766 -6.335945,1.168766 z M 32.864417,37.2305 C 31.958991,32.798949 30.82022,28.803079 29.570112,25.23679 30.729728,25.070549 31.94679,24.9765 33.230959,24.9765 h 0.04575 0.0031 0.0031 c 2.129097,0 4.468156,0.264866 7.004974,0.841369 -0.877974,4.719295 -3.611535,8.783796 -7.423371,11.412631 z"
       id="Dribbble"
       inkscape:connector-curvature="0"
       style="fill:#333" /></g><g
     inkscape:groupmode="layer"
     id="layer2"
     inkscape:label="facebook"><path
       d="m 16.35304,8.492226 c 0,1.1572488 0,6.322516 0,6.322516 l -4.632056,0 0,7.73132 4.632056,0 0,22.974547 9.515666,0 0,-22.974038 7.242043,0 0.03056,-7.760403 c -0.831199,0 -7.236886,0 -7.236886,0 0,0 0,-4.497859 0,-5.2861969 0,-0.789868 1.037339,-1.8527203 2.062943,-1.8527203 1.023563,0 3.183455,0 5.184148,0 0,-1.0526471 0,-4.6897139 0,-8.04869414 -2.671163,0 -5.709195,0 -7.048604,0 -9.985096,-5.1031e-4 -9.74987,7.73846184 -9.74987,8.89366934 z"
       id="Facebook"
       inkscape:connector-curvature="0"
       sodipodi:nodetypes="sccccccccccsscccs"
       style="fill:#333" /></g></svg>